<?xml version="1.0" encoding="utf-8"?>
<!-- Generator: Adobe Illustrator 22.1.0, SVG Export Plug-In . SVG Version: 6.00 Build 0)  -->
<svg version="1.1" id="Layer_1" xmlns="http://www.w3.org/2000/svg" xmlns:xlink="http://www.w3.org/1999/xlink" x="0px" y="0px"
	 viewBox="0 0 613 674" style="enable-background:new 0 0 613 674;" xml:space="preserve">
<style type="text/css">
	.st0{fill:#1A3557;}
	.st1{fill:#D2D7DD;}
</style>
<g>
	<path class="st0" d="M568,256h-2l1-10c-1-3-2-3-3-2c-1,0-6,3-8,8l-6,12l-4,4l-17-7l-12-7l-10-5l-5-2c0-1-9-7-16-9l-19-5l-17-4
		l-24-8l-14-5c-4-1.1-8-2.1-12-3c5-6,11-13,13-13h4c-11-4-15-3-19-3l-10,4l-8,5l-7,4l1-2c1-1,0-1-1-1h-4l-5,3v-2c-1-1-3,2-8,4l-8,2
		l2-2l1-1h-2l-4-1v-1v-1l3-4l1-2l-2-1l-2-1v-1l2-2v-2l3-2v-1l-1-2l1-1l4-3c0,0,0-2-2-3l-3-2l-5-3l-6-2l-8-2l-15-8l-13-10l-13-12
		l-22-24l-13-11l-14-5c-21.4-10.3-42.4-21.3-63-33l-18-18c-8-9-16-23-20-29c-5-7-12-18-12-14c0,1,0,9,6,20c7.2,13.2,16.3,25.3,27,36
		c0,0-16-9-25-18c-17-14.6-33-30.3-48-47h-2l1,3l2,4c-1,1,1,1,2,2v1v2l11,15l5,5c3,3,2,4,4,4l4,1v1h-2l2,3l3,2l2,2l2,1h-2l2,2h3
		l-1,1l6,4c-8.1-4.1-16.1-8.5-24-13L74,21l-11-6c-1,0,4,8,14,17l31,22l18,10c-24.5-8.9-48.8-18.2-73-28l-6-2c0,0,10,8,19,12l25,14
		c6.1,2.4,12.1,5.1,18,8c0,0-23-7-41-10c-18-2-24-3-25-2l18,6l24,8l11,4c2,1,0,2-1,2c-1-1-27-5-38-5l-12,1l9,2l14,4c2,0,6,1,7,3
		s-2,1-4,1H60c-1,0-3,0,2,3l9,6l3,2c0,0-3,1-2,2s1,5,4,7l8,5l2,2l-2,3c0,1,0,4,2,6s5,2,8,4c3,1,2,2,7,3l11,1c2,1-5,4-6,6v4l-2,2
		c0,1,3,1,3,3c0,1-1,4,2,5h8c5-1,7,0,7,1l-6,6c-1,3-3,6,0,8c4,2,3,2,3,3s-2,3,1,4l7,1c2,0,3,0,2,1c0,0-2,2-1,3l3,4l4,1l1,1
		c0,1-1,4,1,5l6,2c2,1,2,5,4,6s6,1,7,2c1,2-2,4,2,6l7,2c2,1,3,1,4,5c1,5,0,5,2,6c2,2,4,3,6,2l4,1c1,1,1,4,6,5h6c0,1-2,2-1,3l4,4h5
		l1-3l1,3l4,3l7,2c2,0,4,5,5,6v4c1,1-2,3-2,5s1,5,3,5l6-1l3-2c0,0-4,3-5,6s1,2-1,3c-2,2-5,4-5,6s0,3,2,4h2c-1,2,0,3-2,5l-2,4l-8,5
		l-5,2l-1-2l4-3c2,0,3-1,4-3l-2-4l-7,4c-3,2-5,5-13,9l-23,13l-4,3l-6,5c-4,4-5,9-4,9l3-1l-3,2l-3,3l2,2c3,2,3,0,6,0l1-1v2
		c1,1,1,2,5,1l-2,2c0,1,3,5,5,4c3.8-1.8,7.5-3.8,11-6l-4,3c-1,2,3,4,5,4l10-8h5c3-2,3-1,8-2c-2,1-7,7-8,10l9-8l18-15
		c-14,11-21,20-21,20l17-15c12-11,12-5,22-14l7-5h3l6-3l4-1c1,1,8-1,9-2l8-2l13-3l7-2c2-1,1,2,2,3h7c3-1,6-3,7-2s0,3,2,3h7
		c1,1,1,2,3,2l7,1c1,1-1,2,1,3h8c2,1,1,2,6,2l7,1c1,1,3,2,5,1l4-1c0,0-1,2,2,3l6,2h5c1,0,5,1,10-2c5-2,5-2,6-1c1,0,6,4,14,2l12-4
		c0,0,0,3,3,3l4,1c1,0,1,4,8,3l10-2c3,0,3,2,8,2h9l10,4c3,0,5,1,8-2l2-4c0,0,1,3,4,5l6,4l3,1l2,2h5v-7c-1-2,1-11,1-11l11,7l3,2l2,1
		l2-1l3,1l1,2l1-1l2,2c1,0,2-2,0-6l-6-13h4l14,3c3,0,6,2,7,1c0,0-2-3-4-3l-7-6c-2-2-2-4,0-4l11-1h12l6-3c2-1,1-2,0-2l1-1
		c1-1,6-4,7-12C572,250,568,256,568,256z"/>
	<path class="st0" d="M164,299l35-21l-38,21c-4,2-5,6-5,6C155,306,159,301,164,299z M424,191c0-2,0-4-5-5c5,6,4,12,0,17
		C423,200,425,196,424,191z M415,186v-1h-1l-2,2L415,186z M393,182h1l1,4c3,2,4,1,5-1l3-3l1,1l1-1c0,0,2,0,1-1l-6-2l-5,1
		c-1,1-4,0-3,1L393,182z"/>
</g>
<path class="st1" d="M171,475H85L0,674h85L171,475z"/>
<path class="st0" d="M394,489l30-84h44l16-44h-86l-61,168l-24-111h-85l-40,118l-17-61H85l57,199h86l34-113l22,113h86l67-185H394z"/>
<path class="st0" d="M434,419l-20,56h80c8,0,19,1,25,7c6,5,8,12,8,19s-2,12-8,19c-6,8-19,20-39,35c-34,25-57,43-69,61s-19,38-21,58
	h214l9-57H491c78-51,91-80,91-80c6-10,11-30,11-45c0.6-28.8-17-54.8-44-65c-13-6-33-9-58-9L434,419z"/>
</svg>
