<svg width="130" height="40" viewBox="0 0 130 40" fill="none" xmlns="http://www.w3.org/2000/svg">
<path d="M56.03 25.22C54.026 25.22 52.274 24.548 50.774 23.204L52.106 21.62C53.366 22.712 54.692 23.258 56.084 23.258C56.768 23.258 57.308 23.114 57.704 22.826C58.112 22.526 58.316 22.13 58.316 21.638C58.316 21.17 58.124 20.798 57.74 20.522C57.356 20.234 56.6 19.958 55.472 19.694C54.008 19.346 52.94 18.908 52.268 18.38C51.608 17.84 51.278 17.018 51.278 15.914C51.278 14.834 51.68 13.958 52.484 13.286C53.288 12.602 54.32 12.26 55.58 12.26C57.308 12.26 58.832 12.788 60.152 13.844L58.964 15.518C57.8 14.654 56.66 14.222 55.544 14.222C54.908 14.222 54.404 14.366 54.032 14.654C53.672 14.942 53.492 15.308 53.492 15.752C53.492 16.244 53.69 16.628 54.086 16.904C54.494 17.168 55.292 17.444 56.48 17.732C57.872 18.068 58.892 18.518 59.54 19.082C60.2 19.646 60.53 20.438 60.53 21.458C60.53 22.622 60.116 23.54 59.288 24.212C58.46 24.884 57.374 25.22 56.03 25.22ZM66.0677 25.202C64.2437 25.202 63.3317 24.272 63.3317 22.412V17.408H62.1257V15.536H63.3317V12.926H65.5097V15.536H68.0657V17.408H65.5097V22.07C65.5097 22.862 65.8997 23.258 66.6797 23.258C67.1477 23.258 67.5977 23.15 68.0297 22.934V24.716C67.4537 25.04 66.7997 25.202 66.0677 25.202ZM72.2085 27.974C71.4165 27.974 70.6665 27.782 69.9585 27.398L70.6965 25.778C71.1405 26.018 71.5665 26.138 71.9745 26.138C72.2865 26.138 72.5445 26.054 72.7485 25.886C72.9525 25.73 73.1445 25.448 73.3245 25.04L69.3645 15.536H71.6865L74.3865 22.592L76.8525 15.536H79.1205L75.3405 25.31C74.9565 26.282 74.5305 26.966 74.0625 27.362C73.5945 27.77 72.9765 27.974 72.2085 27.974ZM81.1131 25.04V11.9H83.2911V25.04H81.1131ZM90.6555 25.256C89.2155 25.256 88.0155 24.776 87.0555 23.816C86.0955 22.856 85.6155 21.686 85.6155 20.306C85.6155 18.926 86.1015 17.756 87.0735 16.796C88.0455 15.824 89.2515 15.338 90.6915 15.338C92.1315 15.338 93.3315 15.818 94.2915 16.778C95.2635 17.738 95.7495 18.914 95.7495 20.306C95.7495 21.674 95.2635 22.844 94.2915 23.816C93.3195 24.776 92.1075 25.256 90.6555 25.256ZM90.6915 23.366C91.5555 23.366 92.2515 23.072 92.7795 22.484C93.3075 21.896 93.5715 21.17 93.5715 20.306C93.5715 19.454 93.2955 18.734 92.7435 18.146C92.1915 17.546 91.4955 17.246 90.6555 17.246C89.8035 17.246 89.1135 17.54 88.5855 18.128C88.0575 18.716 87.7935 19.442 87.7935 20.306C87.7935 21.146 88.0695 21.866 88.6215 22.466C89.1735 23.066 89.8635 23.366 90.6915 23.366ZM98.2196 25.04V12.44H103.188C104.652 12.44 105.816 12.824 106.68 13.592C107.544 14.36 107.976 15.392 107.976 16.688C107.976 18.044 107.496 19.1 106.536 19.856C105.588 20.612 104.388 20.99 102.936 20.99H100.434V25.04H98.2196ZM100.434 18.992H103.008C103.836 18.992 104.496 18.782 104.988 18.362C105.48 17.942 105.726 17.39 105.726 16.706C105.726 15.986 105.48 15.434 104.988 15.05C104.508 14.654 103.848 14.456 103.008 14.456H100.434V18.992ZM117.789 25.04H115.629V23.87C114.861 24.782 113.835 25.238 112.551 25.238C111.603 25.238 110.799 24.98 110.139 24.464C109.491 23.936 109.167 23.204 109.167 22.268C109.167 21.248 109.521 20.474 110.229 19.946C110.937 19.418 111.867 19.154 113.019 19.154C113.943 19.154 114.819 19.286 115.647 19.55V19.37C115.647 18.71 115.443 18.206 115.035 17.858C114.639 17.51 114.063 17.336 113.307 17.336C112.443 17.336 111.537 17.534 110.589 17.93L109.995 16.184C111.171 15.656 112.377 15.392 113.613 15.392C114.993 15.392 116.031 15.74 116.727 16.436C117.435 17.132 117.789 18.122 117.789 19.406V25.04ZM115.683 21.602V21.062C115.035 20.81 114.309 20.684 113.505 20.684C112.821 20.684 112.287 20.816 111.903 21.08C111.519 21.344 111.327 21.716 111.327 22.196C111.327 22.628 111.501 22.97 111.849 23.222C112.197 23.474 112.635 23.6 113.163 23.6C113.895 23.6 114.495 23.414 114.963 23.042C115.443 22.67 115.683 22.19 115.683 21.602ZM121.972 27.974C121.18 27.974 120.43 27.782 119.722 27.398L120.46 25.778C120.904 26.018 121.33 26.138 121.738 26.138C122.05 26.138 122.308 26.054 122.512 25.886C122.716 25.73 122.908 25.448 123.088 25.04L119.128 15.536H121.45L124.15 22.592L126.616 15.536H128.884L125.104 25.31C124.72 26.282 124.294 26.966 123.826 27.362C123.358 27.77 122.74 27.974 121.972 27.974Z" fill="#1A1B26"/>
<mask id="mask0" mask-type="alpha" maskUnits="userSpaceOnUse" x="4" y="12" width="36" height="27">
<path fill-rule="evenodd" clip-rule="evenodd" d="M39.1908 38.2802V12.4797H4.62109V38.2802H39.1908Z" fill="white"/>
</mask>
<g mask="url(#mask0)">
<path fill-rule="evenodd" clip-rule="evenodd" d="M35.7695 12.4797V13.8558L37.1386 14.5438L35.7695 12.4797ZM36.4531 27.2718L37.8222 26.9279L37.1376 25.2078L36.4531 27.2718ZM38.164 26.584L39.1908 23.4878H37.4795L38.164 26.584ZM38.8486 22.7997L37.8217 20.0476L37.4795 22.7997H38.8486ZM39.1894 19.3601L37.8203 18.6723L38.8472 21.7683L39.1894 19.3601ZM37.4795 19.7037L35.4258 19.3596L36.7949 22.4558L37.4795 19.7037ZM34.7417 20.3918L33.7148 23.1438H36.1108L34.7417 20.3918ZM37.1376 23.832L34.3994 24.1759L35.7685 26.928L37.1376 23.832ZM32.6875 27.2718H35.0834L34.0566 25.2078L32.6875 27.2718ZM33.7141 24.5198H29.9492L31.6606 27.9598L33.7141 24.5198ZM35.082 30.7121L37.478 27.6161H35.082V30.7121ZM34.3988 31.7441V28.9919L32.6875 31.0559L34.3988 31.7441ZM34.0571 28.3039C33.9159 28.1439 30.9766 28.6479 30.9766 28.6479L32.0034 31.056C32.0034 31.056 34.1983 28.464 34.0571 28.3039ZM30.2919 28.9919L26.1846 29.3359L28.2383 32.432L30.2919 28.9919ZM31.661 31.3999L30.6342 28.9919L28.9229 32.088L31.661 31.3999ZM30.6357 34.8391L32.0048 32.087L28.582 33.119L30.6357 34.8391ZM23.7881 33.4639L25.1573 36.2159L29.6068 34.84L27.5532 33.12L23.7881 33.4639ZM25.8418 30.0239L23.7881 32.7759L27.2109 32.4319L25.8418 30.0239ZM24.1303 36.216L22.419 34.1521L21.0498 36.216H24.1303ZM17.9688 33.8087L20.0224 36.2167L21.7338 33.8087H17.9688ZM22.7617 38.2801L24.8153 36.9041H20.708L22.7617 38.2801ZM17.6274 38.2801L18.9965 36.9041H16.6006L17.6274 38.2801ZM14.5469 37.592L16.6006 37.9361L14.5469 36.5599V37.592ZM15.5742 36.216L18.997 36.5599L17.6279 34.496L15.5742 36.216ZM16.9433 34.496L13.5205 33.12L14.5473 35.872L16.9433 34.496ZM12.8355 35.872L14.2045 35.5279L11.124 33.4639L12.8355 35.872ZM7.70312 34.4965L10.0991 35.8725L7.70312 33.1204V34.4965ZM10.7816 35.872V34.496L9.07031 33.12L10.7816 35.872ZM8.72656 32.087L10.7802 33.8071L10.4379 32.431L8.72656 32.087ZM6.6743 33.12L7.35879 32.4319L5.64746 30.0239L6.6743 33.12ZM5.99018 26.5839L4.62109 27.6159L6.67478 29.6799L5.99018 26.5839ZM38.1641 15.9199V17.9837H38.8487L38.1641 15.9199ZM37.1372 17.6398L37.4795 15.2316L36.1104 14.5438L37.1372 17.6398Z" fill="#53258E"/>
</g>
<path fill-rule="evenodd" clip-rule="evenodd" d="M23.2734 24.0812L28.4075 23.7373L26.0116 20.2972L23.2734 24.0812ZM29.0936 23.3923L30.4628 19.2642L26.3555 19.6084L29.0936 23.3923ZM30.4614 17.2011L31.1459 14.105L28.75 14.4491L30.4614 17.2011ZM26.6963 18.5771L30.8037 18.2331L28.0655 14.7931L26.6963 18.5771ZM27.3822 14.7933L23.6172 15.1372L26.3554 18.2333L27.3822 14.7933ZM22.9297 15.8247L20.1914 19.2648L25.3256 18.9207L22.9297 15.8247ZM20.1914 19.6094L22.9297 23.3933L25.3256 19.9533L20.1914 19.6094ZM17.7969 24.0812H22.2465L19.5083 20.2972L17.7969 24.0812ZM15.0586 19.265L16.7699 23.3931L19.1659 19.953L15.0586 19.265ZM12.3203 23.3933L16.0853 23.7373L14.0316 19.9533L12.3203 23.3933ZM14.3759 19.2642H10.9531L12.6645 22.7044L14.3759 19.2642ZM8.21484 23.3925L11.2953 23.7366L9.58393 19.9525L8.21484 23.3925ZM6.84375 19.6091L7.52835 22.7051L9.23968 19.265L6.84375 19.6091ZM6.5019 20.297C6.33438 20.5822 5.13281 23.3931 5.13281 23.3931L6.84414 24.0811C6.84414 24.0811 6.66952 20.0119 6.5019 20.297ZM3.07812 20.6412L3.76262 23.0493L4.78946 19.9533L4.44721 19.6094L3.07812 20.6412ZM17.453 14.7933L14.7148 18.5774L18.8221 19.2653L17.453 14.7933ZM8.89743 15.825L6.84375 18.5771H8.21294L8.89743 15.825ZM28.7485 13.7614L32.5135 13.4175L28.4062 9.97724L28.7485 13.7614ZM28.75 9.28895L32.515 12.7289L32.1728 9.63288L28.75 9.28895ZM32.1709 8.60099V7.91292L30.1172 6.88092L32.1709 8.60099ZM27.04 5.84816L23.6172 4.81606L23.9594 6.53623L27.04 5.84816ZM30.8033 5.505L27.0383 4.4729L29.0919 6.88092L30.8033 5.505ZM2.39453 17.8891L4.79046 18.5772L4.44821 15.4811L2.39453 17.8891Z" fill="#DA1D61"/>
<path fill-rule="evenodd" clip-rule="evenodd" d="M27.726 9.06012L23.9609 7.34027L27.726 6.99613V9.06012ZM22.9336 7.68442L27.3832 9.74841L23.2758 10.4365L22.9336 7.68442ZM25.6686 3.55671C25.7894 3.56415 28.0645 3.55671 28.0645 3.55671L26.3532 4.24467C26.3532 4.24467 25.5478 3.54916 25.6686 3.55671ZM27.7246 10.4361V13.5322L23.6172 11.1241L27.7246 10.4361ZM19.5097 18.6921L18.1406 14.5641L22.2479 15.5961L19.5097 18.6921ZM26.6975 14.2201L22.5902 14.9081L18.1406 13.8762L22.5902 11.468L26.6975 14.2201ZM16.771 14.2202L14.375 18.3482L13.6904 14.2202H16.771ZM13.6922 18.6914H10.2695L12.6655 14.5634L13.6922 18.6914ZM11.9794 14.2202L9.24121 18.0043L9.58346 14.2202H11.9794ZM6.16113 18.3481V15.94L8.21481 14.5641L6.16113 18.3481ZM2.05358 15.2522V18.0042L0 18.3481L2.05358 15.2522ZM5.13281 13.5319L7.18639 14.2199L5.13281 16.628V13.5319ZM12.323 12.4993C12.323 12.4993 11.2783 12.1768 11.2962 12.1551C11.3141 12.1334 10.9539 13.1871 10.9539 13.1871H8.90034L7.53125 13.8753L8.90034 11.4672V12.4993L9.58483 12.1551L9.92718 10.4352L12.323 9.05903L10.9539 11.1231L13.3498 9.7471L12.323 12.4993ZM14.7082 12.4142L14.3755 9.40416H17.1136L14.9174 12.2423L17.1136 10.4362V13.5322H13.3486L14.7082 12.4142ZM22.5887 10.4354L17.7969 13.1873L18.1391 9.74732L22.5887 10.4354ZM22.2479 9.82477L18.1406 8.79267L22.2479 7.41675V9.82477ZM18.4844 8.02856V5.96468L22.934 6.30871L18.4844 8.02856ZM22.9325 5.62012L18.8252 5.27608L23.2747 3.90005L22.9325 5.62012ZM25.6718 4.24417H23.9604L24.3712 3.62499L22.9336 2.18018L27.0409 2.5241L25.0805 3.64995L25.6718 4.24417Z" fill="#EC440F"/>
<path fill-rule="evenodd" clip-rule="evenodd" d="M6.84475 25.8959L6.16016 28.3038L8.21384 27.9599L6.84475 25.8959ZM26.3545 28.3037L30.8041 27.9598L28.7504 24.8637L26.3545 28.3037ZM23.6162 24.8637L24.9854 27.9598L27.3813 24.8637H23.6162ZM20.8779 28.6479L24.9853 28.9919L22.9316 25.2078L20.8779 28.6479ZM22.5894 32.7759L24.9853 29.6799L20.8779 29.3358L22.5894 32.7759ZM18.1396 32.776L21.9047 33.12L19.8511 29.68L18.1396 32.776ZM14.7188 29.3358L17.1147 33.4638L19.1684 29.6799L14.7188 29.3358ZM13.6904 32.7759L16.4287 33.4639L14.7173 30.7119L13.6904 32.7759ZM22.5911 24.8637L17.457 24.5198L20.1952 28.6479L22.5911 24.8637ZM18.8261 28.9921L16.7724 25.2081L14.7188 28.6482L18.8261 28.9921ZM16.4291 24.5199L12.6641 24.1759L14.3754 27.9599L16.4291 24.5199ZM10.6104 32.4319L13.3485 32.776L10.6104 29.68V32.4319ZM11.293 28.9927L13.3467 31.7447L14.7157 28.9927H11.293ZM11.6386 24.5198L10.2695 27.9598L13.3499 28.3037L11.6386 24.5198ZM9.5834 31.3999V28.648H7.87207L9.5834 31.3999ZM7.8735 31.7439H9.24258L7.53125 29.3358L7.8735 31.7439ZM10.6103 24.5198L7.1875 23.8317L8.89894 27.9598L10.6103 24.5198ZM29.4336 23.8327L33.1986 23.4886L34.5677 19.3606H31.4873L29.4336 23.8327ZM35.2539 14.8877L35.5962 18.3277L37.3076 19.0158L35.2539 14.8877ZM34.5692 17.9838V14.5437L31.8311 14.1996L34.5692 17.9838ZM31.8314 14.8877L30.8047 18.3277L34.2274 18.6717L31.8314 14.8877ZM4.79297 23.4883L5.81981 27.2724L6.84665 24.5204L4.79297 23.4883ZM3.76262 27.2726L4.10497 24.1766L3.07812 24.8646L3.76262 27.2726ZM2.39543 20.3918L1.71094 24.1758L3.76451 23.4878L2.39543 20.3918ZM35.5975 13.8556L35.9398 13.5117L32.8594 10.0715L33.2016 13.5117L35.5975 13.8556ZM35.5972 12.1351L34.5703 11.1031L35.2549 12.4792L35.5972 12.1351Z" fill="#9D2066"/>
<mask id="mask1" mask-type="alpha" maskUnits="userSpaceOnUse" x="1" y="0" width="21" height="15">
<path fill-rule="evenodd" clip-rule="evenodd" d="M21.9909 0H1.1123L1.1123 14.7923H21.9909V0V0Z" fill="white"/>
</mask>
<g mask="url(#mask1)">
<path fill-rule="evenodd" clip-rule="evenodd" d="M17.8837 8.60015V6.88019L14.4609 8.94407L17.8837 8.60015ZM1.1123 14.7924L2.13904 13.7604L1.7968 13.4162L1.1123 14.7924ZM10.4372 8.49789L9.32712 7.56823L8.8137 9.11622L8.64252 8.94415L7.27344 10.6643L8.67375 9.53837L8.30028 10.6643L11.3807 9.28819L10.5701 8.60924L11.0385 8.25619L10.4372 8.49789ZM5.90567 12.385L6.93251 9.28895L4.19434 12.385H5.90567ZM5.21919 7.56823L2.13867 10.3202L4.19235 10.6643L5.21919 7.56823ZM12.7495 6.53629L11.0381 8.25625L12.4072 7.56828L12.7495 6.53629ZM15.8304 6.19214L12.75 7.56817L14.4613 8.25613L15.8304 6.19214ZM16.8584 5.16053L19.5966 4.47267L18.5697 3.78461L16.8584 5.16053ZM19.2529 3.09607L20.2798 4.12817L21.9911 3.09607H19.2529ZM11.0381 5.16009L13.0918 4.47224L12.7495 5.50423L15.8299 4.47224L15.4877 4.1282L17.199 2.75217L14.8031 3.78417L14.1186 3.0961L13.7763 3.78417H12.7495L11.0381 5.16009ZM20.2812 0L16.8584 0.688172L18.5697 2.0641L20.2812 0ZM13.0922 1.37609L9.32715 3.09604L11.3807 3.78411L13.0922 1.37609Z" fill="#F9A42A"/>
</g>
<path fill-rule="evenodd" clip-rule="evenodd" d="M37.1367 28.992V30.712L38.1636 27.616L37.1367 28.992ZM36.1074 31.7447V29.6807L34.7383 32.0886L36.1074 31.7447ZM31.3164 36.56L33.0277 35.528L32.3431 35.1841L31.3164 36.56ZM32.6855 34.4958L30.6318 35.5278L31.6587 35.8719L32.6855 34.4958ZM34.0547 32.7759L33.3701 34.8399C33.3701 34.8399 35.514 32.7261 35.4238 32.7759C35.3336 32.8256 34.0547 32.7759 34.0547 32.7759ZM31.3164 34.4959L34.0546 32.7759L32.3431 32.4319L31.3164 34.4959ZM29.2617 37.2484L30.6308 36.2165H29.9462L29.2617 37.2484ZM25.8398 36.56L28.2358 37.5921L29.6049 35.528L25.8398 36.56ZM25.1557 39.3119L25.8403 38.6238L23.4443 39.3119H25.1557ZM23.1025 38.6239L27.2098 38.28L25.1561 37.248L23.1025 38.6239ZM20.0219 40L22.0756 39.6559L19.6797 38.968L20.0219 40ZM15.5703 38.6245L18.9931 39.6567L18.6507 38.6245H15.5703ZM18.6523 37.248V38.6239L21.7329 38.968L18.6523 37.248ZM14.5453 38.2801V36.56L11.4648 35.8721L14.5453 38.2801Z" fill="#0067B4"/>
</svg>
