<svg width="176" height="59" viewBox="0 0 176 59" fill="none" xmlns="http://www.w3.org/2000/svg">
<path d="M161.984 -5.23906e-05H14.0235C13.4841 -5.23906e-05 12.9513 -5.23905e-05 12.4133 0.00289761C11.9631 0.00584761 11.5164 0.0144174 11.0618 0.0216301C10.0742 0.0332853 9.08887 0.12042 8.11446 0.282277C7.14143 0.447658 6.19887 0.759448 5.31868 1.2071C4.43956 1.65854 3.63629 2.24514 2.93799 2.94563C2.23604 3.64414 1.6509 4.45152 1.20509 5.33673C0.758042 6.22018 0.44806 7.16688 0.285847 8.14413C0.122091 9.12015 0.0339727 10.1074 0.0222824 11.0971C0.0086335 11.5493 0.00719213 12.0031 0 12.4553V46.5489C0.00719213 47.0069 0.0086335 47.4506 0.0222824 47.9087C0.0339763 48.8983 0.122095 49.8855 0.285847 50.8615C0.447612 51.8393 0.757613 52.7865 1.20509 53.6703C1.6507 54.5527 2.23592 55.3568 2.93799 56.0514C3.63364 56.755 4.43743 57.342 5.31868 57.79C6.19887 58.2389 7.14132 58.5525 8.11446 58.7204C9.08903 58.881 10.0742 58.9682 11.0618 58.9812C11.5164 58.9912 11.9631 58.997 12.4133 58.997C12.9512 59 13.4841 58.9999 14.0235 58.9999H161.984C162.513 58.9999 163.05 59 163.579 58.997C164.027 58.997 164.487 58.9912 164.935 58.9812C165.92 58.9689 166.904 58.8817 167.876 58.7204C168.853 58.5513 169.798 58.2378 170.683 57.79C171.563 57.3418 172.366 56.7548 173.061 56.0514C173.762 55.3541 174.348 54.5505 174.799 53.6703C175.243 52.7859 175.55 51.8387 175.71 50.8615C175.874 49.8854 175.965 48.8984 175.983 47.9087C175.989 47.4506 175.989 47.0069 175.989 46.5489C176 46.013 176 45.4801 176 44.9355V14.0657C176 13.5256 176 12.9897 175.989 12.4553C175.989 12.0031 175.989 11.5493 175.983 11.097C175.965 10.1073 175.874 9.12022 175.71 8.14407C175.55 7.16739 175.243 6.22077 174.799 5.33667C173.891 3.56236 172.452 2.11809 170.683 1.20697C169.798 0.760409 168.852 0.448702 167.876 0.282145C166.904 0.119574 165.92 0.0324091 164.935 0.0214236C164.487 0.0142256 164.027 0.00558211 163.579 0.00270586C163.05 -0.000244141 162.513 -0.000244141 161.984 -0.000244141V-5.23906e-05Z" fill="#A6A6A6"/>
<path d="M12.4205 57.7093C11.9724 57.7093 11.5351 57.7035 11.0905 57.6935C10.1695 57.6815 9.25061 57.6011 8.34142 57.4529C7.49365 57.3065 6.67238 57.0341 5.90472 56.6448C5.14409 56.2587 4.45033 55.7524 3.85003 55.1453C3.24104 54.5454 2.73402 53.8496 2.34908 53.0855C1.9599 52.3164 1.69056 51.492 1.55044 50.6411C1.39914 49.7268 1.31727 48.8022 1.30556 47.8755C1.29623 47.5644 1.28403 46.5286 1.28403 46.5286V12.4553C1.28403 12.4553 1.29703 11.4355 1.30563 11.1359C1.31685 10.2106 1.39824 9.28747 1.54909 8.37456C1.68946 7.5213 1.95901 6.69456 2.3484 5.92296C2.73193 5.15937 3.23613 4.46305 3.84146 3.86098C4.4461 3.25319 5.14207 2.74429 5.904 2.35284C6.6699 1.96474 7.48961 1.69428 8.33567 1.55053C9.24785 1.40091 10.1699 1.32002 11.0941 1.30854L12.4213 1.29053H163.572L164.915 1.30926C165.83 1.32017 166.744 1.40034 167.648 1.54908C168.502 1.69464 169.331 1.96699 170.105 2.35716C171.632 3.14606 172.874 4.39417 173.657 5.92656C174.041 6.69283 174.306 7.51283 174.445 8.35871C174.597 9.27912 174.683 10.2095 174.7 11.1423C174.704 11.5601 174.704 12.0088 174.704 12.4553C174.716 13.0084 174.716 13.5349 174.716 14.0657V44.9355C174.716 45.4714 174.716 45.9942 174.704 46.5214C174.704 47.0011 174.704 47.4405 174.699 47.8927C174.682 48.8089 174.597 49.7227 174.447 50.6266C174.31 51.4837 174.042 52.3145 173.653 53.0899C173.265 53.8457 172.761 54.5355 172.159 55.1338C171.559 55.7441 170.864 56.2534 170.101 56.642C169.329 57.0343 168.502 57.3077 167.648 57.4529C166.739 57.6018 165.82 57.6823 164.899 57.6935C164.468 57.7035 164.017 57.7093 163.579 57.7093L161.984 57.7122L12.4205 57.7093Z" fill="black"/>
<path d="M36.4302 29.9434C36.446 28.7123 36.7721 27.5052 37.3781 26.4344C37.9841 25.3636 38.8503 24.464 39.8962 23.8191C39.2318 22.8675 38.3553 22.0844 37.3363 21.5319C36.3173 20.9795 35.1839 20.6729 34.0261 20.6366C31.5563 20.3766 29.1619 22.1187 27.9033 22.1187C26.6204 22.1187 24.6827 20.6624 22.596 20.7054C21.2463 20.7492 19.9309 21.1428 18.778 21.8479C17.6251 22.553 16.674 23.5457 16.0173 24.729C13.1728 29.668 15.2946 36.9265 18.0194 40.9187C19.3826 42.8736 20.9759 45.0573 23.0607 44.9799C25.1007 44.895 25.8626 43.6753 28.3252 43.6753C30.7649 43.6753 31.4797 44.9799 33.6068 44.9306C35.7959 44.895 37.1751 42.9671 38.4905 40.9937C39.47 39.6007 40.2238 38.0612 40.7238 36.4322C39.452 35.8927 38.3667 34.9898 37.6032 33.8359C36.8396 32.682 36.4317 31.3283 36.4302 29.9434Z" fill="white"/>
<path d="M32.4128 18.011C33.6064 16.574 34.1944 14.727 34.0521 12.8623C32.2285 13.0544 30.5441 13.9284 29.3344 15.3102C28.7429 15.9853 28.2899 16.7706 28.0013 17.6214C27.7127 18.4721 27.5941 19.3715 27.6522 20.2683C28.5643 20.2777 29.4667 20.0794 30.2913 19.6884C31.1159 19.2974 31.8413 18.7239 32.4128 18.011Z" fill="white"/>
<path d="M62.2188 40.0308H55.257L53.5851 44.9816H50.6364L57.2305 26.665H60.2941L66.8882 44.9816H63.8892L62.2188 40.0308ZM55.978 37.7463H61.4964L58.776 29.7116H58.6999L55.978 37.7463Z" fill="white"/>
<path d="M81.1293 38.3051C81.1293 42.455 78.9145 45.1212 75.5722 45.1212C74.7255 45.1657 73.8835 44.9701 73.1425 44.5569C72.4016 44.1437 71.7916 43.5296 71.3825 42.7848H71.3192V49.3993H68.5859V31.6273H71.2317V33.8484H71.2819C71.7099 33.1073 72.3301 32.4964 73.0768 32.0806C73.8234 31.6649 74.6684 31.46 75.5219 31.4876C78.9015 31.4876 81.1293 34.1668 81.1293 38.3051ZM78.3199 38.3051C78.3199 35.6015 76.9266 33.824 74.8009 33.824C72.7125 33.824 71.3078 35.6389 71.3078 38.3051C71.3078 40.9959 72.7125 42.7978 74.8009 42.7978C76.9266 42.7978 78.3199 41.0333 78.3199 38.3051Z" fill="white"/>
<path d="M95.7854 38.3051C95.7854 42.455 93.5706 45.1212 90.2283 45.1212C89.3816 45.1656 88.5396 44.9701 87.7986 44.5569C87.0577 44.1436 86.4477 43.5295 86.0386 42.7848H85.9753V49.3993H83.242V31.6273H85.8877V33.8484H85.938C86.3659 33.1073 86.9862 32.4964 87.7328 32.0806C88.4794 31.6649 89.3245 31.46 90.178 31.4876C93.5577 31.4876 95.7854 34.1668 95.7854 38.3051ZM92.976 38.3051C92.976 35.6014 91.5827 33.8239 89.457 33.8239C87.3686 33.8239 85.9639 35.6389 85.9639 38.3051C85.9639 40.9958 87.3686 42.7978 89.457 42.7978C91.5827 42.7978 92.976 41.0333 92.976 38.3051H92.976Z" fill="white"/>
<path d="M105.472 39.8781C105.674 41.6945 107.434 42.8871 109.838 42.8871C112.142 42.8871 113.8 41.6945 113.8 40.0567C113.8 38.635 112.8 37.7837 110.433 37.2003L108.066 36.6285C104.712 35.816 103.155 34.2431 103.155 31.6907C103.155 28.5303 105.901 26.3596 109.801 26.3596C113.66 26.3596 116.306 28.5303 116.395 31.6907H113.636C113.471 29.8627 111.964 28.7594 109.762 28.7594C107.56 28.7594 106.054 29.8757 106.054 31.5005C106.054 32.7955 107.016 33.5575 109.37 34.1408L111.382 34.6363C115.13 35.525 116.687 37.0346 116.687 39.7138C116.687 43.1406 113.965 45.2868 109.636 45.2868C105.585 45.2868 102.851 43.191 102.674 39.878L105.472 39.8781Z" fill="white"/>
<path d="M122.586 28.467V31.6273H125.118V33.7981H122.586V41.1601C122.586 42.3038 123.093 42.8368 124.206 42.8368C124.506 42.8315 124.806 42.8103 125.105 42.7733V44.9311C124.604 45.0249 124.096 45.0674 123.587 45.0579C120.891 45.0579 119.839 44.0424 119.839 41.4525V33.7981H117.903V31.6273H119.839V28.467H122.586Z" fill="white"/>
<path d="M126.584 38.3052C126.584 34.1034 129.052 31.4631 132.9 31.4631C136.761 31.4631 139.217 34.1034 139.217 38.3052C139.217 42.5184 136.773 45.1472 132.9 45.1472C129.027 45.1472 126.584 42.5184 126.584 38.3052ZM136.432 38.3052C136.432 35.4229 135.114 33.7217 132.9 33.7217C130.685 33.7217 129.369 35.4358 129.369 38.3052C129.369 41.199 130.685 42.8872 132.9 42.8872C135.114 42.8872 136.432 41.199 136.432 38.3052H136.432Z" fill="white"/>
<path d="M141.47 31.6272H144.077V33.9001H144.14C144.317 33.1902 144.731 32.5629 145.315 32.1235C145.898 31.6841 146.614 31.4595 147.343 31.4874C147.658 31.4863 147.972 31.5206 148.28 31.5897V34.1537C147.882 34.0318 147.467 33.9759 147.052 33.988C146.655 33.9719 146.259 34.0421 145.891 34.1938C145.524 34.3456 145.193 34.5753 144.923 34.8672C144.652 35.1591 144.448 35.5062 144.324 35.8848C144.2 36.2634 144.158 36.6645 144.203 37.0605V44.9814H141.47L141.47 31.6272Z" fill="white"/>
<path d="M160.882 41.0593C160.514 43.4835 158.16 45.1472 155.148 45.1472C151.274 45.1472 148.87 42.5443 148.87 38.3685C148.87 34.1798 151.287 31.4631 155.033 31.4631C158.717 31.4631 161.034 34.0012 161.034 38.0502V38.9894H151.629V39.155C151.586 39.6465 151.647 40.1416 151.809 40.6075C151.971 41.0733 152.23 41.4993 152.569 41.857C152.908 42.2148 153.319 42.4962 153.774 42.6825C154.23 42.8688 154.72 42.9557 155.211 42.9376C155.857 42.9983 156.506 42.8483 157.06 42.5098C157.614 42.1714 158.044 41.6627 158.287 41.0593L160.882 41.0593ZM151.642 37.0736H158.299C158.324 36.6317 158.257 36.1895 158.103 35.7747C157.949 35.3599 157.712 34.9815 157.405 34.6633C157.098 34.345 156.729 34.0938 156.321 33.9253C155.913 33.7568 155.475 33.6748 155.033 33.6843C154.588 33.6816 154.147 33.7674 153.735 33.9366C153.323 34.1059 152.949 34.3552 152.634 34.6703C152.318 34.9855 152.068 35.3601 151.898 35.7726C151.728 36.185 151.641 36.6272 151.642 37.0736V37.0736Z" fill="white"/>
<path d="M55.6342 12.8782C56.2072 12.8369 56.7823 12.9237 57.3178 13.1323C57.8533 13.341 58.336 13.6662 58.731 14.0845C59.1261 14.5029 59.4236 15.0039 59.6022 15.5515C59.7807 16.0992 59.8358 16.6797 59.7636 17.2513C59.7636 20.063 58.2483 21.6792 55.6342 21.6792H52.4643V12.8782H55.6342ZM53.8273 20.4346H55.4819C55.8914 20.4591 56.3012 20.3918 56.6815 20.2375C57.0617 20.0832 57.4029 19.8458 57.6801 19.5426C57.9573 19.2394 58.1637 18.878 58.2841 18.4847C58.4045 18.0915 58.4359 17.6762 58.3761 17.2692C58.4316 16.8638 58.3969 16.4512 58.2747 16.0608C58.1524 15.6704 57.9456 15.312 57.669 15.0112C57.3924 14.7104 57.0529 14.4747 56.6748 14.3209C56.2967 14.1672 55.8893 14.0992 55.4819 14.1219H53.8273V20.4346Z" fill="white"/>
<path d="M61.3037 18.3556C61.2621 17.9191 61.3119 17.4787 61.4499 17.0627C61.5879 16.6466 61.8111 16.2641 62.1052 15.9396C62.3992 15.6151 62.7577 15.3559 63.1575 15.1785C63.5574 15.0011 63.9898 14.9094 64.427 14.9094C64.8642 14.9094 65.2966 15.0011 65.6964 15.1785C66.0963 15.3559 66.4547 15.6151 66.7488 15.9396C67.0428 16.2641 67.266 16.6466 67.4041 17.0627C67.5421 17.4787 67.5919 17.9191 67.5502 18.3556C67.5927 18.7925 67.5435 19.2335 67.4058 19.6502C67.2682 20.067 67.0451 20.4502 66.7509 20.7753C66.4568 21.1004 66.0981 21.3602 65.6978 21.538C65.2976 21.7158 64.8647 21.8076 64.427 21.8076C63.9892 21.8076 63.5563 21.7158 63.1561 21.538C62.7559 21.3602 62.3972 21.1004 62.103 20.7753C61.8089 20.4502 61.5858 20.067 61.4481 19.6502C61.3105 19.2335 61.2613 18.7925 61.3037 18.3556ZM66.2058 18.3556C66.2058 16.9159 65.5609 16.0739 64.4291 16.0739C63.293 16.0739 62.6539 16.9159 62.6539 18.3556C62.6539 19.8068 63.293 20.6423 64.4291 20.6423C65.561 20.6423 66.2058 19.8011 66.2058 18.3556H66.2058Z" fill="white"/>
<path d="M75.8532 21.6792H74.4973L73.1285 16.7875H73.0251L71.662 21.6792H70.3191L68.4935 15.0374H69.8192L71.0056 20.1055H71.1033L72.4649 15.0374H73.7188L75.0804 20.1055H75.1838L76.3645 15.0374H77.6715L75.8532 21.6792Z" fill="white"/>
<path d="M79.207 15.0373H80.4652V16.0924H80.5629C80.7286 15.7135 81.008 15.3958 81.3623 15.1837C81.7166 14.9716 82.128 14.8756 82.5393 14.9091C82.8615 14.8848 83.1851 14.9336 83.486 15.0517C83.7869 15.1698 84.0575 15.3544 84.2776 15.5916C84.4978 15.8289 84.6619 16.1127 84.7578 16.4222C84.8537 16.7317 84.8789 17.0589 84.8316 17.3795V21.6791H83.5246V17.7086C83.5246 16.6413 83.0621 16.1105 82.0954 16.1105C81.8766 16.1002 81.6582 16.1376 81.4552 16.2199C81.2521 16.3023 81.0692 16.4277 80.919 16.5876C80.7688 16.7474 80.6549 16.938 80.585 17.1461C80.5151 17.3543 80.4909 17.5752 80.514 17.7936V21.6792H79.207L79.207 15.0373Z" fill="white"/>
<path d="M86.9143 12.4446H88.2214V21.6792H86.9143V12.4446Z" fill="white"/>
<path d="M90.0386 18.3555C89.997 17.919 90.0468 17.4785 90.1848 17.0625C90.3229 16.6464 90.5461 16.2639 90.8402 15.9394C91.1343 15.6149 91.4928 15.3556 91.8927 15.1782C92.2925 15.0008 92.725 14.9092 93.1622 14.9092C93.5994 14.9092 94.0319 15.0008 94.4317 15.1782C94.8316 15.3556 95.1901 15.6149 95.4842 15.9394C95.7783 16.2639 96.0015 16.6464 96.1395 17.0625C96.2776 17.4785 96.3274 17.919 96.2858 18.3555C96.3282 18.7924 96.2789 19.2334 96.1413 19.6501C96.0036 20.0669 95.7804 20.4501 95.4863 20.7752C95.1921 21.1003 94.8334 21.3601 94.4331 21.5378C94.0329 21.7156 93.6 21.8075 93.1622 21.8075C92.7244 21.8075 92.2915 21.7156 91.8913 21.5378C91.491 21.3601 91.1323 21.1003 90.8381 20.7752C90.5439 20.4501 90.3208 20.0669 90.1831 19.6501C90.0454 19.2334 89.9962 18.7924 90.0386 18.3555ZM94.9407 18.3555C94.9407 16.9158 94.2958 16.0738 93.164 16.0738C92.0279 16.0738 91.3888 16.9158 91.3888 18.3555C91.3888 19.8067 92.0279 20.6422 93.164 20.6422C94.2958 20.6421 94.9407 19.8009 94.9407 18.3555H94.9407Z" fill="white"/>
<path d="M97.6607 19.8009C97.6607 18.6053 98.5483 17.9161 100.124 17.8181L101.918 17.7144V17.1411C101.918 16.4396 101.455 16.0435 100.562 16.0435C99.8324 16.0435 99.3268 16.3122 99.1818 16.7817H97.9164C98.0499 15.6409 99.12 14.9092 100.622 14.9092C102.283 14.9092 103.219 15.7381 103.219 17.1411V21.6792H101.961V20.7458H101.858C101.648 21.0806 101.353 21.3536 101.003 21.5368C100.654 21.72 100.262 21.8069 99.8683 21.7886C99.5903 21.8176 99.3093 21.7879 99.0434 21.7013C98.7776 21.6147 98.5327 21.4732 98.3248 21.2859C98.1168 21.0987 97.9502 20.8698 97.8358 20.614C97.7215 20.3582 97.6618 20.0812 97.6607 19.8009ZM101.918 19.2333V18.6781L100.301 18.7818C99.3886 18.843 98.9749 19.1541 98.9749 19.7396C98.9749 20.3374 99.492 20.6853 100.203 20.6853C100.411 20.7064 100.622 20.6853 100.822 20.6233C101.022 20.5612 101.207 20.4594 101.367 20.3239C101.527 20.1884 101.659 20.0221 101.753 19.8347C101.848 19.6474 101.904 19.4428 101.918 19.2333Z" fill="white"/>
<path d="M104.937 18.3554C104.937 16.2567 106.013 14.9272 107.686 14.9272C108.1 14.9081 108.511 15.0075 108.871 15.2138C109.23 15.4202 109.524 15.7249 109.717 16.0924H109.815V12.4446H111.122V21.6792H109.869V20.6298H109.766C109.558 20.9949 109.254 21.2958 108.887 21.5001C108.521 21.7043 108.105 21.8041 107.686 21.7886C106.001 21.7887 104.937 20.4592 104.937 18.3554ZM106.287 18.3554C106.287 19.7641 106.949 20.6118 108.057 20.6118C109.158 20.6118 109.839 19.7519 109.839 18.3612C109.839 16.9769 109.151 16.1047 108.057 16.1047C106.957 16.1047 106.287 16.9582 106.287 18.3554H106.287Z" fill="white"/>
<path d="M116.53 18.3556C116.488 17.9191 116.538 17.4787 116.676 17.0627C116.814 16.6466 117.037 16.2641 117.331 15.9396C117.625 15.6151 117.984 15.3559 118.384 15.1785C118.784 15.0011 119.216 14.9094 119.653 14.9094C120.09 14.9094 120.523 15.0011 120.923 15.1785C121.322 15.3559 121.681 15.6151 121.975 15.9396C122.269 16.2641 122.492 16.6466 122.63 17.0627C122.768 17.4787 122.818 17.9191 122.776 18.3556C122.819 18.7925 122.77 19.2335 122.632 19.6502C122.494 20.067 122.271 20.4502 121.977 20.7753C121.683 21.1004 121.324 21.3602 120.924 21.538C120.524 21.7158 120.091 21.8076 119.653 21.8076C119.215 21.8076 118.783 21.7158 118.382 21.538C117.982 21.3602 117.623 21.1004 117.329 20.7753C117.035 20.4502 116.812 20.067 116.674 19.6502C116.537 19.2335 116.487 18.7925 116.53 18.3556ZM121.432 18.3556C121.432 16.9159 120.787 16.0739 119.655 16.0739C118.519 16.0739 117.88 16.9159 117.88 18.3556C117.88 19.8068 118.519 20.6423 119.655 20.6423C120.787 20.6423 121.432 19.8011 121.432 18.3556Z" fill="white"/>
<path d="M124.53 15.0373H125.788V16.0924H125.886C126.051 15.7135 126.331 15.3958 126.685 15.1837C127.039 14.9716 127.451 14.8756 127.862 14.9091C128.184 14.8848 128.508 14.9336 128.809 15.0517C129.11 15.1698 129.38 15.3544 129.6 15.5916C129.821 15.8289 129.985 16.1127 130.081 16.4222C130.176 16.7317 130.202 17.0589 130.154 17.3795V21.6791H128.847V17.7086C128.847 16.6413 128.385 16.1105 127.418 16.1105C127.199 16.1002 126.981 16.1376 126.778 16.2199C126.575 16.3023 126.392 16.4277 126.242 16.5876C126.092 16.7474 125.978 16.938 125.908 17.1461C125.838 17.3543 125.814 17.5752 125.837 17.7936V21.6792H124.53V15.0373Z" fill="white"/>
<path d="M137.54 13.3838V15.0676H138.975V16.1717H137.54V19.587C137.54 20.2827 137.826 20.5874 138.476 20.5874C138.643 20.5868 138.809 20.5767 138.975 20.5571V21.649C138.74 21.6911 138.502 21.7135 138.264 21.7159C136.81 21.7159 136.231 21.2031 136.231 19.9226V16.1717H135.18V15.0676H136.231V13.3838H137.54Z" fill="white"/>
<path d="M140.762 12.4446H142.057V16.1047H142.161C142.334 15.7222 142.621 15.4027 142.983 15.1898C143.344 14.9769 143.762 14.8809 144.18 14.9149C144.501 14.8974 144.821 14.9511 145.119 15.0721C145.416 15.1931 145.683 15.3785 145.901 15.615C146.119 15.8515 146.282 16.1333 146.379 16.4403C146.476 16.7473 146.504 17.0719 146.461 17.391V21.6792H145.153V17.7144C145.153 16.6535 144.66 16.1162 143.736 16.1162C143.512 16.0977 143.286 16.1287 143.074 16.207C142.863 16.2852 142.671 16.4089 142.512 16.5693C142.353 16.7296 142.231 16.9229 142.155 17.1355C142.078 17.3481 142.049 17.5749 142.069 17.8001V21.6792H140.762L140.762 12.4446Z" fill="white"/>
<path d="M154.081 19.8857C153.904 20.4927 153.519 21.0178 152.994 21.3691C152.47 21.7204 151.839 21.8755 151.212 21.8073C150.775 21.8188 150.342 21.735 149.941 21.5616C149.54 21.3883 149.182 21.1295 148.891 20.8034C148.6 20.4772 148.383 20.0914 148.255 19.6727C148.128 19.2541 148.093 18.8127 148.152 18.379C148.094 17.9441 148.13 17.5017 148.257 17.0818C148.384 16.6619 148.6 16.2743 148.89 15.9453C149.179 15.6163 149.536 15.3535 149.935 15.1747C150.335 14.9959 150.768 14.9053 151.206 14.909C153.049 14.909 154.16 16.1716 154.16 18.2573V18.7147H149.484V18.7881C149.463 19.0319 149.494 19.2772 149.573 19.5084C149.653 19.7396 149.78 19.9516 149.946 20.1307C150.112 20.3099 150.314 20.4523 150.538 20.5487C150.762 20.6452 151.004 20.6936 151.248 20.6909C151.56 20.7285 151.877 20.6721 152.158 20.5287C152.438 20.3853 152.67 20.1615 152.823 19.8857L154.081 19.8857ZM149.484 17.7452H152.829C152.845 17.5223 152.815 17.2984 152.74 17.0879C152.665 16.8774 152.547 16.685 152.394 16.5229C152.24 16.3609 152.055 16.2328 151.849 16.147C151.643 16.0612 151.422 16.0195 151.199 16.0247C150.973 16.0218 150.748 16.0644 150.539 16.1498C150.33 16.2353 150.139 16.362 149.979 16.5223C149.82 16.6827 149.693 16.8735 149.608 17.0835C149.523 17.2935 149.481 17.5185 149.484 17.7452H149.484Z" fill="white"/>
</svg>
