<svg width="246" height="90" viewBox="0 0 246 90" fill="none" xmlns="http://www.w3.org/2000/svg">
<path d="M244 45.2058L94.5 45.2058" stroke="white" stroke-width="4" stroke-linecap="round" stroke-linejoin="round"/>
<ellipse cx="131.5" cy="45.2091" rx="42.7909" ry="18.5" transform="rotate(-90 131.5 45.2091)" stroke="white" stroke-width="4"/>
<ellipse cx="94.5" cy="45.2091" rx="42.7909" ry="18.5" transform="rotate(-90 94.5 45.2091)" stroke="white" stroke-width="4"/>
<ellipse cx="57.5" cy="45.2091" rx="42.7909" ry="18.5" transform="rotate(-90 57.5 45.2091)" stroke="white" stroke-width="4"/>
<path fill-rule="evenodd" clip-rule="evenodd" d="M148 45.2058C148 45.2069 148 45.208 148 45.2091C148 57.2319 150.103 68.2116 153.583 76.2605C155.321 80.2816 157.443 83.6626 159.9 86.0669C162.367 88.48 165.276 90 168.5 90C171.724 90 174.633 88.48 177.1 86.0669C179.557 83.6626 181.679 80.2816 183.417 76.2605C186.897 68.2116 189 57.2319 189 45.2091C189 45.208 189 45.2069 189 45.2058L185 45.2058C185 45.2069 185 45.208 185 45.2091C185 56.8191 182.962 67.2348 179.746 74.6732C178.136 78.3957 176.271 81.2813 174.302 83.2077C172.342 85.1252 170.384 86 168.5 86C166.616 86 164.658 85.1252 162.698 83.2077C160.729 81.2813 158.864 78.3957 157.254 74.6732C154.038 67.2348 152 56.8191 152 45.2091C152 45.208 152 45.2069 152 45.2058L148 45.2058Z" fill="white"/>
<path fill-rule="evenodd" clip-rule="evenodd" d="M5.87334e-07 45.2058C5.87321e-07 45.2069 5.34139e-07 45.208 5.34126e-07 45.2091C3.90756e-07 57.2319 2.10294 68.2116 5.58275 76.2605C7.32122 80.2816 9.44278 83.6626 11.9003 86.0669C14.3669 88.48 17.2756 90 20.5 90C23.7244 90 26.6331 88.48 29.0997 86.0669C31.5572 83.6626 33.6788 80.2816 35.4173 76.2605C38.8971 68.2116 41 57.2319 41 45.2091C41 45.208 41 45.2069 41 45.2058L37 45.2058C37 45.2069 37 45.208 37 45.2091C37 56.8191 34.9616 67.2348 31.7457 74.6732C30.1363 78.3957 28.2715 81.2813 26.3024 83.2077C24.3424 85.1252 22.3842 86 20.5 86C18.6158 86 16.6576 85.1252 14.6976 83.2077C12.7285 81.2813 10.8637 78.3957 9.2543 74.6732C6.03843 67.2348 4 56.8191 4 45.2091C4 45.208 4 45.2069 4 45.2058L5.87334e-07 45.2058Z" fill="white"/>
</svg>
