<svg width="160" height="160" viewBox="0 0 160 160" fill="none" xmlns="http://www.w3.org/2000/svg">
<path d="M70.5334 5.05868C70.5334 4.33601 70.5334 3.75788 70.8225 3.17974C71.1116 2.60161 71.4007 2.02348 71.6897 1.58987C72.1233 1.15627 72.5569 0.722668 73.1351 0.4336C73.7132 0.144533 74.4359 0 75.014 0C75.7367 0 76.4593 3.30596e-06 77.0375 0.144537C77.6156 0.289071 78.1937 0.578136 78.7719 1.01174L77.4711 2.89068C77.182 2.60161 76.7484 2.45708 76.4593 2.31254C76.1703 2.16801 75.7367 2.16801 75.3031 2.16801C74.5804 2.16801 74.1468 2.45708 73.7132 3.03521C73.2796 3.61335 73.1351 4.19148 73.1351 4.76961C73.1351 5.49228 73.4241 6.07042 74.0023 6.50402C74.5804 6.93762 75.1585 7.22669 75.8812 7.08216C76.4593 7.08216 76.8929 6.93762 77.3265 6.64856L77.182 5.49228L75.4476 5.63682L75.3031 3.75788L79.4945 3.46881L79.7836 7.51576C78.7719 8.52749 77.4711 9.10563 75.8812 9.10563C75.014 9.10563 74.1468 8.96109 73.2796 8.67203C72.5569 8.38296 71.8342 7.80483 71.4006 7.08216C70.8225 6.79309 70.5334 5.92588 70.5334 5.05868Z" fill="#F9A42A"/>
<path d="M80.9385 9.10563L81.5166 0L88.8878 0.4336L88.7433 2.60161L83.9737 2.31254L83.8292 3.75788L88.1652 4.04694L88.0206 6.07042L83.6846 5.78135L83.5401 7.22669L88.4542 7.51576L88.3097 9.68376L80.9385 9.10563Z" fill="#F9A42A"/>
<path d="M90.1853 2.89115L90.6189 0.723145L98.4237 2.16848L97.9901 4.33649L95.244 3.90289L93.9432 10.696L91.4861 10.2624L92.7869 3.46929L90.1853 2.89115Z" fill="#F9A42A"/>
<path d="M100.885 10.8394L102.764 9.68312C103.342 10.6949 104.21 11.4175 105.221 11.7066C105.51 11.8511 105.799 11.8511 105.944 11.8511C106.088 11.8511 106.233 11.7066 106.378 11.4175C106.378 11.273 106.378 10.9839 106.233 10.8394C106.088 10.6949 105.799 10.4058 105.221 10.1167C104.932 9.97218 104.788 9.82765 104.499 9.68312C104.354 9.53858 104.065 9.39405 103.92 9.24952C103.776 9.10498 103.487 8.96045 103.342 8.81592C103.198 8.67138 103.053 8.52685 102.909 8.23778C102.764 7.94871 102.764 7.80417 102.62 7.65964C102.475 7.51511 102.62 7.22604 102.62 7.08151C102.62 6.79244 102.764 6.64791 102.764 6.35884C103.053 5.49164 103.631 5.05803 104.354 4.76897C105.077 4.4799 106.088 4.4799 107.1 4.9135C108.546 5.49164 109.557 6.21431 110.28 7.37058L108.546 8.67138C107.967 7.80418 107.245 7.22604 106.522 6.93697C106.233 6.79244 105.944 6.79244 105.799 6.79244C105.655 6.79244 105.51 6.93698 105.366 7.08151C105.366 7.22604 105.366 7.51511 105.51 7.65964C105.655 7.80417 105.944 8.09325 106.522 8.52685C106.956 8.81591 107.389 9.10498 107.678 9.39405C107.967 9.68312 108.256 9.97219 108.546 10.2613C108.835 10.5503 108.835 10.8394 108.979 11.273C109.124 11.7066 108.979 11.9957 108.835 12.4293C108.546 13.2965 107.967 13.8746 107.1 14.1637C106.233 14.4527 105.366 14.3082 104.354 14.0191C103.631 13.7301 102.909 13.2965 102.331 12.8629C101.752 11.9957 101.174 11.4175 100.885 10.8394Z" fill="#F9A42A"/>
<path d="M111.438 8.81522L112.45 6.79175L119.676 10.4051L118.665 12.4286L116.208 11.1278L113.028 17.3427L110.715 16.1864L113.895 9.97149L111.438 8.81522Z" fill="#F9A42A"/>
<path d="M115.627 18.6439L124.01 13.2961L126.034 14.5969L124.01 24.4252L121.842 22.8354L122.276 21.101L119.385 19.0775L117.94 20.0892L115.627 18.6439ZM121.119 17.9212L122.854 19.0775L123.432 16.3313L121.119 17.9212Z" fill="#F9A42A"/>
<path d="M124.586 24.8595L130.656 18.0664L133.836 20.9571C134.848 21.8243 135.281 22.6915 135.426 23.7032C135.426 24.4259 135.137 25.1486 134.559 25.8712C134.125 26.3048 133.547 26.7384 133.113 26.7384C132.535 26.883 131.957 26.883 131.379 26.5939L130.801 30.3518L128.633 28.4728L129.066 25.1486L128.199 24.4259L126.32 26.4494L124.586 24.8595ZM129.645 22.9806L130.945 24.1368C131.234 24.4259 131.524 24.5704 131.813 24.5704C132.102 24.5704 132.391 24.4259 132.68 24.2814C132.969 23.9923 132.969 23.7032 132.969 23.4142C132.969 23.1251 132.68 22.836 132.391 22.547L131.234 21.3907L129.645 22.9806Z" fill="#F9A42A"/>
<path d="M136.147 26.1591L137.881 24.7137L143.084 30.7842L141.35 32.2295L139.616 30.206L134.412 34.6866L132.823 32.8076L138.026 28.3271L136.147 26.1591Z" fill="#F9A42A"/>
<path d="M136.731 37.4349L144.247 32.3762L148.294 38.4466L146.56 39.6029L143.813 35.556L142.802 36.4232L145.259 40.0365L143.669 41.1928L141.212 37.5794L140.055 38.4466L142.802 42.4936L141.067 43.6499L136.731 37.4349Z" fill="#F9A42A"/>
<path d="M141.357 44.5167L149.451 40.4697L151.041 43.6495C151.33 44.3721 151.619 45.0948 151.763 45.6729C151.908 46.3956 151.763 46.9737 151.619 47.5519C151.474 48.13 151.185 48.5636 150.752 49.1418C150.318 49.5754 149.884 50.0089 149.306 50.298C148.728 50.5871 148.15 50.7316 147.572 50.7316C146.994 50.7316 146.416 50.7316 145.837 50.4425C145.259 50.298 144.681 49.8644 144.248 49.4308C143.814 48.9972 143.38 48.4191 142.947 47.6964L141.357 44.5167ZM144.537 45.6729L144.97 46.5401C145.259 47.2628 145.837 47.6964 146.271 47.8409C146.705 47.9855 147.427 47.9855 148.15 47.6964C148.728 47.4073 149.162 46.9737 149.306 46.2511C149.451 45.6729 149.451 44.9503 149.017 44.3721L148.584 43.5049L144.537 45.6729Z" fill="#F9A42A"/>
<path d="M154.795 69.6641C155.517 69.6641 156.095 69.6641 156.673 69.9531C157.252 70.0977 157.83 70.3867 158.263 70.8203C158.697 71.2539 159.131 71.6875 159.42 72.2657C159.709 72.8438 159.853 73.4219 159.998 74.1446C159.998 74.8673 159.998 75.5899 159.853 76.1681C159.709 76.7462 159.42 77.3243 158.986 77.9025L157.107 76.6017C157.396 76.3126 157.541 75.879 157.685 75.5899C157.83 75.3009 157.83 74.8673 157.83 74.4337C157.83 73.711 157.541 73.2774 156.963 72.8438C156.384 72.4102 155.806 72.2657 155.084 72.2657C154.361 72.2657 153.783 72.5547 153.349 73.1329C152.916 73.5665 152.771 74.2891 152.771 75.0118C152.771 75.5899 152.916 76.0235 153.205 76.4571L154.361 76.3126L154.216 74.5782L156.095 74.4337L156.384 78.6252L152.337 78.9142C151.326 77.9025 150.748 76.6017 150.603 75.1563C150.603 74.2891 150.603 73.4219 151.037 72.5547C151.326 71.8321 151.904 71.1094 152.627 70.6758C153.06 70.0977 153.927 69.8086 154.795 69.6641Z" fill="#F9A42A"/>
<path d="M150.895 80.2163L160.001 80.6499L159.567 88.0211L157.399 87.8766L157.688 83.107H156.243L155.954 87.443L153.93 87.2985L154.219 82.9624L152.774 82.8179L152.485 87.7321L150.317 87.5875L150.895 80.2163Z" fill="#F9A42A"/>
<path d="M157.254 89.3231L159.422 89.7567L158.121 97.5616L155.953 97.1279L156.387 94.3818L149.594 93.2255L150.027 90.7685L156.82 91.9247L157.254 89.3231Z" fill="#F9A42A"/>
<path d="M149.449 100.162L150.605 102.041C149.594 102.619 149.015 103.486 148.582 104.498C148.437 104.787 148.437 105.076 148.437 105.221C148.437 105.365 148.582 105.51 148.871 105.654C149.015 105.654 149.305 105.654 149.449 105.51C149.594 105.365 149.883 105.076 150.172 104.498C150.316 104.209 150.461 104.065 150.605 103.775C150.75 103.631 150.894 103.342 151.039 103.197C151.183 103.053 151.328 102.764 151.473 102.619C151.617 102.475 151.762 102.33 152.051 102.186C152.195 102.041 152.484 102.041 152.629 101.897C152.773 101.897 153.062 101.897 153.207 101.897C153.496 101.897 153.641 101.897 153.93 102.041C154.797 102.33 155.23 102.908 155.664 103.631C155.953 104.354 155.953 105.365 155.519 106.377C155.086 107.822 154.219 108.834 153.207 109.557L151.906 107.822C152.773 107.244 153.351 106.522 153.641 105.654C153.785 105.365 153.785 105.076 153.641 104.932C153.641 104.787 153.496 104.643 153.351 104.498C153.207 104.498 152.918 104.498 152.773 104.643C152.629 104.787 152.34 105.221 152.051 105.654C151.762 106.088 151.473 106.522 151.183 106.811C150.894 107.1 150.605 107.389 150.316 107.678C150.027 107.967 149.738 107.967 149.305 108.111C149.015 108.111 148.582 108.111 148.148 107.967C147.281 107.678 146.703 107.1 146.414 106.233C146.125 105.365 146.125 104.498 146.558 103.486C146.847 102.764 147.281 102.041 147.715 101.463C148.293 100.885 148.871 100.451 149.449 100.162Z" fill="#F9A42A"/>
<path d="M151.469 110.712L153.492 111.723L150.024 118.95L148 117.938L149.156 115.481L142.941 112.446L144.098 110.134L150.313 113.169L151.469 110.712Z" fill="#F9A42A"/>
<path d="M141.785 115.048L147.277 123.431L145.976 125.455L136.148 123.576L137.594 121.263L139.328 121.552L141.207 118.661L140.195 117.216L141.785 115.048ZM142.508 120.396L141.351 122.13L144.098 122.708L142.508 120.396Z" fill="#F9A42A"/>
<path d="M135.717 124.011L142.51 130.081L139.619 133.261C138.752 134.273 137.885 134.706 136.873 134.851C136.151 134.851 135.428 134.562 134.705 133.984C134.272 133.55 133.838 133.117 133.693 132.538C133.549 131.96 133.549 131.382 133.838 130.804L130.08 130.37L131.959 128.202L135.283 128.636L136.006 127.769L133.982 125.89L135.717 124.011ZM137.596 128.925L136.44 130.226C136.15 130.515 136.006 130.804 136.006 131.238C136.006 131.671 136.15 131.816 136.44 132.105C136.729 132.394 137.018 132.394 137.307 132.394C137.596 132.394 137.885 132.105 138.174 131.816L139.33 130.515L137.596 128.925Z" fill="#F9A42A"/>
<path d="M134.56 135.573L136.005 137.163L130.079 142.511L128.634 140.921L130.657 139.042L126.032 133.839L127.911 132.104L132.536 137.307L134.56 135.573Z" fill="#F9A42A"/>
<path d="M123.143 136.297L128.346 143.812L122.276 148.004L121.119 146.269L125.022 143.523L124.299 142.367L120.686 144.824L119.53 143.234L123.143 140.777L122.276 139.621L118.229 142.367L117.073 140.633L123.143 136.297Z" fill="#F9A42A"/>
<path d="M116.207 141.065L120.399 149.158L117.219 150.748C116.496 151.182 115.774 151.326 115.195 151.471C114.473 151.616 113.895 151.471 113.316 151.326C112.738 151.182 112.305 150.893 111.727 150.459C111.293 150.026 110.859 149.592 110.57 149.014C110.281 148.436 110.137 147.858 109.992 147.28C109.992 146.701 109.992 146.123 110.281 145.545C110.426 144.967 110.859 144.389 111.293 143.955C111.727 143.377 112.305 142.944 113.027 142.654L116.207 141.065ZM115.051 144.1L114.184 144.533C113.461 144.822 113.027 145.401 112.883 145.979C112.738 146.557 112.738 147.135 113.027 147.858C113.316 148.436 113.895 148.869 114.473 149.014C115.051 149.158 115.774 149.014 116.352 148.725L117.219 148.291L115.051 144.1Z" fill="#F9A42A"/>
<path d="M91.0553 154.797C91.0553 155.52 91.0553 156.098 90.9108 156.676C90.7663 157.254 90.4772 157.832 90.0436 158.266C89.61 158.699 89.1764 159.133 88.5983 159.422C88.0201 159.711 87.442 159.856 86.7193 160C85.9966 160 85.274 160 84.6959 159.856C84.1177 159.711 83.5396 159.422 82.9614 158.988L84.2622 157.109C84.6958 157.399 84.9849 157.543 85.274 157.688C85.563 157.832 85.9967 157.832 86.4303 157.832C87.1529 157.832 87.5865 157.543 88.0201 156.965C88.4537 156.387 88.5983 155.809 88.5983 155.086C88.5983 154.363 88.3092 153.785 87.7311 153.352C87.2975 152.918 86.5748 152.773 85.8521 152.773C85.274 152.773 84.8404 153.063 84.4068 153.352L84.5513 154.508L86.2857 154.363L86.4303 156.242L82.2388 156.676L81.9497 152.629C82.9614 151.617 84.2622 151.039 85.7076 150.895C86.5748 150.75 87.442 150.895 88.3092 151.328C89.1764 151.762 89.7545 152.195 90.1881 152.918C90.7663 153.063 91.0553 153.785 91.0553 154.797Z" fill="#F9A42A"/>
<path d="M80.6503 150.893L80.3612 159.998L72.99 159.709L73.1345 157.541L77.9041 157.686V156.24L73.5681 156.096L73.7127 154.072L78.0487 154.217V152.772L73.1345 152.627L73.2791 150.459L80.6503 150.893Z" fill="#F9A42A"/>
<path d="M71.5455 157.397L71.2565 159.565L63.3071 158.264L63.5962 156.096L66.3423 156.53L67.4986 149.736L69.9557 150.17L68.7994 156.963L71.5455 157.397Z" fill="#F9A42A"/>
<path d="M60.7055 149.738L58.8266 150.894C58.2484 149.882 57.3812 149.304 56.3695 148.87C56.0804 148.726 55.7913 148.726 55.6468 148.726C55.5023 148.726 55.3577 148.87 55.2132 149.16C55.2132 149.304 55.2132 149.593 55.3577 149.738C55.5023 149.882 55.7913 150.171 56.3695 150.46C56.6585 150.605 56.8031 150.749 57.0921 150.894C57.2367 151.038 57.5257 151.183 57.6703 151.328C57.8148 151.472 58.1039 151.617 58.2484 151.761C58.3929 151.906 58.5375 152.05 58.682 152.339C58.8266 152.484 58.8266 152.773 58.9711 152.917C58.9711 153.062 58.9711 153.351 58.9711 153.496C58.9711 153.785 58.9711 153.929 58.8266 154.218C58.5375 155.085 57.9594 155.664 57.2367 155.953C56.514 156.242 55.5023 156.242 54.4905 155.953C53.0452 155.519 52.0335 154.652 51.3108 153.64L53.0452 152.339C53.6233 153.206 54.346 153.785 55.2132 154.074C55.5023 154.218 55.7913 154.218 55.9359 154.074C56.0804 153.929 56.2249 153.929 56.3695 153.785C56.3695 153.64 56.3695 153.351 56.2249 153.206C56.0804 153.062 55.6468 152.773 55.2132 152.484C54.7796 152.195 54.346 151.906 54.0569 151.617C53.7679 151.328 53.4788 151.038 53.1897 150.749C52.9007 150.46 52.9007 150.171 52.7561 149.738C52.7561 149.449 52.7561 149.015 52.9007 148.581C53.1897 147.714 53.7679 147.136 54.4905 146.847C55.3577 146.558 56.2249 146.558 57.2367 146.992C57.9594 147.281 58.682 147.57 59.2601 148.148C59.8383 148.726 60.2719 149.015 60.7055 149.738Z" fill="#F9A42A"/>
<path d="M50.1535 151.904L49.1417 153.927L41.915 150.459L42.9268 148.435L45.3838 149.591L48.4191 143.376L50.7316 144.533L47.6964 150.748L50.1535 151.904Z" fill="#F9A42A"/>
<path d="M45.6725 142.221L37.4341 147.857L35.4106 146.557L37.1451 136.728L39.4576 138.174L39.1685 139.908L42.0592 141.787L43.5045 140.775L45.6725 142.221ZM40.3248 142.943L38.5904 141.787L38.0123 144.533L40.3248 142.943Z" fill="#F9A42A"/>
<path d="M36.7089 136.151L30.783 143.089L27.4588 140.343C26.447 139.476 25.8689 138.608 25.8689 137.597C25.8689 136.874 26.0134 136.151 26.7361 135.429C27.1697 134.995 27.6033 134.561 28.1814 134.417C28.7596 134.272 29.3377 134.272 29.9158 134.561L30.3494 130.659L32.5175 132.538L32.0839 135.862L32.9511 136.585L34.83 134.417L36.7089 136.151ZM31.6502 138.175L30.3494 137.019C30.0604 136.729 29.7713 136.585 29.3377 136.585C29.0486 136.585 28.7596 136.729 28.615 137.019C28.326 137.308 28.326 137.597 28.326 137.886C28.326 138.175 28.615 138.464 28.9041 138.753L30.2049 139.765L31.6502 138.175Z" fill="#F9A42A"/>
<path d="M25.004 135.139L23.4142 136.584L18.0664 130.658L19.6563 129.213L21.5352 131.236L26.5939 126.611L28.3283 128.49L23.2696 133.115L25.004 135.139Z" fill="#F9A42A"/>
<path d="M24.2812 123.867L16.91 129.07L12.7185 123.144L14.4529 121.844L17.199 125.746L18.3553 124.879L15.7537 121.265L17.3436 120.109L19.9452 123.723L21.1015 122.855L18.2108 118.808L19.9452 117.508L24.2812 123.867Z" fill="#F9A42A"/>
<path d="M19.3674 116.927L11.2735 121.263L9.68361 118.227C9.25001 117.505 9.10547 116.782 8.96094 116.204C8.81641 115.626 8.81641 114.903 8.96094 114.325C9.10547 113.747 9.39454 113.169 9.82814 112.735C10.2617 112.302 10.6953 111.868 11.2735 111.579C11.8516 111.29 12.4297 111.145 13.0079 111.001C13.586 110.856 14.1642 111.001 14.7423 111.145C15.3204 111.29 15.8986 111.723 16.3322 112.157C16.7658 112.591 17.3439 113.169 17.633 113.891L19.3674 116.927ZM16.1876 115.77L15.754 114.903C15.465 114.181 14.8868 113.747 14.3087 113.602C13.7305 113.458 13.1524 113.458 12.4297 113.747C11.8516 114.036 11.418 114.614 11.2735 115.192C11.1289 115.77 11.2735 116.493 11.5625 117.071L11.9961 117.938L16.1876 115.77Z" fill="#F9A42A"/>
<path d="M5.34658 91.922C4.62391 91.922 4.04577 91.922 3.46764 91.7775C2.8895 91.633 2.31137 91.3439 1.87777 90.9103C1.44417 90.4767 1.01057 90.0431 0.7215 89.465C0.432433 88.8868 0.287897 88.3087 0.143363 87.586C-0.0011705 86.8634 0.143367 86.1407 0.2879 85.5626C0.432434 84.9844 0.721499 84.4063 1.1551 83.8281L3.03404 85.1289C2.74497 85.5625 2.60044 85.8516 2.45591 86.2852C2.31137 86.5743 2.31137 87.0079 2.31137 87.4415C2.31137 88.1642 2.60044 88.5978 3.17858 89.0314C3.75671 89.465 4.33484 89.6095 5.05751 89.465C5.78018 89.3204 6.35832 89.0314 6.79192 88.5978C7.22552 88.0196 7.37005 87.4415 7.37005 86.7188C7.37005 86.1407 7.08099 85.7071 6.79192 85.2735L5.63564 85.418L5.78018 87.1524L3.90124 87.297L3.46764 83.1055L7.51459 82.6719C8.52632 83.6836 9.10445 84.9844 9.24899 86.4298C9.39352 87.297 9.24899 88.1642 8.95993 89.0314C8.67086 89.754 8.09272 90.4767 7.51459 90.9103C7.08099 91.633 6.35832 91.922 5.34658 91.922Z" fill="#F9A42A"/>
<path d="M9.10563 81.517L0 81.2279L0.144532 73.8567H2.31254L2.16801 78.6263H3.61334L3.75788 74.2903H5.78135L5.63681 78.6263H7.08215L7.22669 73.7122H9.39469L9.10563 81.517Z" fill="#F9A42A"/>
<path d="M2.60111 72.5558L0.433105 72.2667L1.58937 64.3174L3.75738 64.6064L3.32378 67.3526L10.1169 68.3643L9.68327 70.8214L2.89018 69.8097L2.60111 72.5558Z" fill="#F9A42A"/>
<path d="M10.119 61.4269L8.96274 59.548C9.97447 58.9698 10.5526 58.1026 10.9862 57.0909C11.1307 56.8018 11.1307 56.5128 11.1307 56.3682C11.1307 56.2237 10.9862 56.0792 10.6971 55.9346C10.5526 55.9346 10.2635 55.9346 10.119 56.0792C9.97447 56.2237 9.68541 56.5128 9.39634 57.0909C9.2518 57.38 9.10727 57.5245 8.96274 57.8136C8.8182 57.9581 8.67367 58.2472 8.52913 58.3917C8.3846 58.5362 8.24007 58.8253 8.09553 58.9698C7.951 59.1144 7.80647 59.2589 7.5174 59.4034C7.37287 59.548 7.0838 59.548 6.93926 59.6925C6.79473 59.6925 6.50566 59.6925 6.36113 59.6925C6.07206 59.6925 5.92752 59.6925 5.63846 59.548C4.77125 59.2589 4.19312 58.8253 3.90406 57.9581C3.61499 57.2354 3.61499 56.2237 3.90406 55.212C4.33766 53.7666 5.20486 52.7549 6.21659 52.0322L7.5174 53.7666C6.6502 54.3448 6.07206 55.0674 5.92753 55.9346C5.78299 56.2237 5.78299 56.5128 5.92753 56.6573C5.92753 56.8018 6.07206 56.9464 6.21659 56.9464C6.36113 56.9464 6.6502 56.9464 6.79473 56.8018C6.93927 56.6573 7.22833 56.2237 7.5174 55.7901C7.80647 55.3565 8.09553 54.9229 8.3846 54.6338C8.67367 54.3448 8.96273 54.0557 9.2518 53.7666C9.54087 53.4776 9.82994 53.333 10.2635 53.333C10.6971 53.333 10.9862 53.333 11.4198 53.4776C12.287 53.7666 12.8651 54.3448 13.1542 55.0674C13.4433 55.9346 13.4433 56.8018 13.0097 57.8136C12.7206 58.5362 12.4315 59.2589 11.8534 59.9816C11.2753 60.5597 10.6971 61.1379 10.119 61.4269Z" fill="#F9A42A"/>
<path d="M7.80472 51.0194L5.78125 50.1522L9.10553 42.9255L11.129 43.7927L9.97273 46.2498L16.1877 49.1405L15.1759 51.453L8.96099 48.5624L7.80472 51.0194Z" fill="#F9A42A"/>
<path d="M17.346 46.3953L11.7092 38.1569L13.01 36.1334L22.8383 37.8678L21.393 40.1804L19.6586 39.8913L17.7796 42.9265L18.7914 44.3718L17.346 46.3953ZM16.4788 41.1921L17.6351 39.4577L14.889 38.8796L16.4788 41.1921Z" fill="#F9A42A"/>
<path d="M23.2706 37.2908L16.333 31.365L19.0792 28.0407C19.9464 27.0289 20.8136 26.4508 21.6808 26.4508C22.4034 26.4508 23.1261 26.5953 23.8488 27.1735C24.4269 27.6071 24.716 28.0407 24.8605 28.6188C25.005 29.1969 25.005 29.7751 24.8605 30.3532L28.7629 30.7868L26.884 32.9548L23.5597 32.5212L22.837 33.6775L25.005 35.4119L23.2706 37.2908ZM21.3917 32.3767L22.4034 31.0759C22.6925 30.7868 22.837 30.4978 22.837 30.0641C22.837 29.7751 22.6925 29.486 22.4034 29.3415C22.1144 29.0524 21.8253 29.0524 21.5362 29.0524C21.2472 29.0524 20.9581 29.3415 20.669 29.6305L19.6573 30.9314L21.3917 32.3767Z" fill="#F9A42A"/>
<path d="M24.2827 25.7277L22.8374 24.1378L28.7633 18.6455L30.2086 20.2354L28.1852 22.1143L32.8102 27.173L30.9313 28.9074L26.3062 23.8487L24.2827 25.7277Z" fill="#F9A42A"/>
<path d="M35.5526 24.8593L30.2048 17.4881L36.1307 13.1521L37.4315 14.8865L33.5291 17.7772L34.3963 18.9334L37.8651 16.3318L39.0214 17.9217L35.5526 20.5233L36.4198 21.6796L40.3222 18.7889L41.623 20.5233L35.5526 24.8593Z" fill="#F9A42A"/>
<path d="M42.3482 19.8024L38.0122 11.8531L41.0474 10.1187C41.7701 9.68507 42.4928 9.54053 43.0709 9.396C43.7936 9.25146 44.3717 9.25146 44.9498 9.396C45.528 9.54053 46.1061 9.8296 46.5397 10.1187C46.9733 10.5523 47.4069 10.9859 47.696 11.564C47.985 12.1421 48.1296 12.7203 48.2741 13.2984C48.2741 13.8765 48.2741 14.4547 48.1296 15.0328C47.985 15.611 47.5514 16.1891 47.1178 16.6227C46.6842 17.2008 46.1061 17.6344 45.3834 17.9235L42.3482 19.8024ZM43.5045 16.6227L44.3717 16.1891C45.0944 15.7555 45.528 15.3219 45.6725 14.7437C45.817 14.1656 45.817 13.5875 45.3834 12.8648C45.0944 12.2867 44.5162 11.8531 43.9381 11.7085C43.36 11.564 42.6373 11.7085 42.0592 11.9976L41.192 12.4312L43.5045 16.6227Z" fill="#F9A42A"/>
</svg>
