<svg width="176" height="52" viewBox="0 0 176 52" fill="none" xmlns="http://www.w3.org/2000/svg">
<path d="M169.481 52H6.51852C2.86815 52 0 49.14 0 45.5V6.5C0 2.86 2.86815 0 6.51852 0H169.481C173.132 0 176 2.86 176 6.5V45.5C176 49.01 173.132 52 169.481 52Z" fill="black"/>
<path d="M169.481 1.04C172.48 1.04 174.957 3.51 174.957 6.5V45.5C174.957 48.49 172.48 50.96 169.481 50.96H6.51852C3.52 50.96 1.04296 48.49 1.04296 45.5V6.5C1.04296 3.51 3.52 1.04 6.51852 1.04H169.481ZM169.481 0H6.51852C2.86815 0 0 2.86 0 6.5V45.5C0 49.14 2.86815 52 6.51852 52H169.481C173.132 52 176 49.14 176 45.5V6.5C176 2.99 173.132 0 169.481 0Z" fill="#A6A6A6"/>
<path d="M61.796 13.26C61.796 14.3 61.5353 15.21 60.8834 15.86C60.1012 16.64 59.1886 17.03 58.0153 17.03C56.842 17.03 55.9294 16.64 55.1471 15.86C54.3649 15.08 53.9738 14.17 53.9738 13C53.9738 11.83 54.3649 10.92 55.1471 10.14C55.9294 9.35997 56.842 8.96997 58.0153 8.96997C58.5368 8.96997 59.0583 9.09997 59.5797 9.35997C60.1012 9.61997 60.4923 9.87997 60.7531 10.27L60.1012 10.92C59.5797 10.27 58.9279 10.01 58.0153 10.01C57.2331 10.01 56.4509 10.27 55.9294 10.92C55.2775 11.44 55.0168 12.22 55.0168 13.13C55.0168 14.04 55.2775 14.82 55.9294 15.34C56.5812 15.86 57.2331 16.25 58.0153 16.25C58.9279 16.25 59.5797 15.99 60.2316 15.34C60.6227 14.95 60.8834 14.43 60.8834 13.78H58.0153V12.87H61.796C61.796 12.87 61.796 13.13 61.796 13.26Z" fill="white" stroke="white" stroke-width="0.26" stroke-miterlimit="10"/>
<path d="M67.7928 10.0101H64.2728V12.4801H67.532V13.3901H64.2728V15.8601H67.7928V16.9001H63.2298V9.1001H67.7928V10.0101Z" fill="white" stroke="white" stroke-width="0.26" stroke-miterlimit="10"/>
<path d="M72.096 16.9001H71.0531V10.0101H68.8368V9.1001H74.3123V10.0101H72.096V16.9001Z" fill="white" stroke="white" stroke-width="0.26" stroke-miterlimit="10"/>
<path d="M78.0925 16.9001V9.1001H79.1355V16.9001H78.0925Z" fill="white" stroke="white" stroke-width="0.26" stroke-miterlimit="10"/>
<path d="M83.5683 16.9001H82.5254V10.0101H80.3091V9.1001H85.6543V10.0101H83.438V16.9001H83.5683Z" fill="white" stroke="white" stroke-width="0.26" stroke-miterlimit="10"/>
<path d="M95.9538 15.86C95.1716 16.64 94.259 17.03 93.0856 17.03C91.9123 17.03 90.9997 16.64 90.2175 15.86C89.4353 15.08 89.0442 14.17 89.0442 13C89.0442 11.83 89.4353 10.92 90.2175 10.14C90.9997 9.35997 91.9123 8.96997 93.0856 8.96997C94.259 8.96997 95.1716 9.35997 95.9538 10.14C96.736 10.92 97.1271 11.83 97.1271 13C97.1271 14.17 96.736 15.08 95.9538 15.86ZM90.9997 15.21C91.5212 15.73 92.3034 16.12 93.0856 16.12C93.8679 16.12 94.6501 15.86 95.1716 15.21C95.693 14.69 96.0842 13.91 96.0842 13C96.0842 12.09 95.8234 11.31 95.1716 10.79C94.6501 10.27 93.8679 9.87997 93.0856 9.87997C92.3034 9.87997 91.5212 10.14 90.9997 10.79C90.4782 11.31 90.0871 12.09 90.0871 13C90.0871 13.91 90.3479 14.69 90.9997 15.21Z" fill="white" stroke="white" stroke-width="0.26" stroke-miterlimit="10"/>
<path d="M98.5609 16.9001V9.1001H99.7343L103.515 15.2101V13.6501V9.1001H104.558V16.9001H103.515L99.4735 10.5301V12.0901V16.9001H98.5609Z" fill="white" stroke="white" stroke-width="0.26" stroke-miterlimit="10"/>
<path d="M88.7817 28.34C85.6528 28.34 83.1758 30.68 83.1758 33.93C83.1758 37.05 85.6528 39.52 88.7817 39.52C91.9106 39.52 94.3877 37.18 94.3877 33.93C94.3877 30.55 91.9106 28.34 88.7817 28.34ZM88.7817 37.18C87.0869 37.18 85.6528 35.75 85.6528 33.8C85.6528 31.85 87.0869 30.42 88.7817 30.42C90.4765 30.42 91.9106 31.72 91.9106 33.8C91.9106 35.75 90.4765 37.18 88.7817 37.18ZM76.6573 28.34C73.5284 28.34 71.0514 30.68 71.0514 33.93C71.0514 37.05 73.5284 39.52 76.6573 39.52C79.7862 39.52 82.2632 37.18 82.2632 33.93C82.2632 30.55 79.7862 28.34 76.6573 28.34ZM76.6573 37.18C74.9625 37.18 73.5284 35.75 73.5284 33.8C73.5284 31.85 74.9625 30.42 76.6573 30.42C78.3521 30.42 79.7862 31.72 79.7862 33.8C79.7862 35.75 78.3521 37.18 76.6573 37.18ZM62.1862 30.03V32.37H67.7921C67.6617 33.67 67.1402 34.71 66.4884 35.36C65.7062 36.14 64.4025 37.05 62.1862 37.05C58.6662 37.05 56.0588 34.32 56.0588 30.81C56.0588 27.3 58.7965 24.57 62.1862 24.57C64.0114 24.57 65.4454 25.35 66.4884 26.26L68.1832 24.57C66.7491 23.27 64.9239 22.23 62.3165 22.23C57.6232 22.23 53.5817 26.13 53.5817 30.81C53.5817 35.49 57.6232 39.39 62.3165 39.39C64.9239 39.39 66.7491 38.61 68.3136 36.92C69.878 35.36 70.3995 33.15 70.3995 31.46C70.3995 30.94 70.3995 30.42 70.2691 30.03H62.1862V30.03ZM121.374 31.85C120.853 30.55 119.549 28.34 116.681 28.34C113.813 28.34 111.466 30.55 111.466 33.93C111.466 37.05 113.813 39.52 116.942 39.52C119.419 39.52 120.983 37.96 121.505 37.05L119.68 35.75C119.028 36.66 118.245 37.31 116.942 37.31C115.638 37.31 114.856 36.79 114.204 35.62L121.635 32.5L121.374 31.85ZM113.813 33.67C113.813 31.59 115.508 30.42 116.681 30.42C117.594 30.42 118.506 30.94 118.767 31.59L113.813 33.67ZM107.685 39H110.162V22.75H107.685V39ZM103.774 29.51C103.122 28.86 102.08 28.21 100.776 28.21C98.038 28.21 95.4306 30.68 95.4306 33.8C95.4306 36.92 97.9077 39.26 100.776 39.26C102.08 39.26 103.122 38.61 103.644 37.96H103.774V38.74C103.774 40.82 102.601 41.99 100.776 41.99C99.3417 41.99 98.2988 40.95 98.038 40.04L95.9521 40.95C96.6039 42.38 98.1684 44.2 100.906 44.2C103.774 44.2 106.121 42.51 106.121 38.48V28.6H103.774V29.51V29.51ZM100.906 37.18C99.2114 37.18 97.7773 35.75 97.7773 33.8C97.7773 31.85 99.2114 30.42 100.906 30.42C102.601 30.42 103.905 31.85 103.905 33.8C103.905 35.75 102.601 37.18 100.906 37.18ZM132.717 22.75H126.85V39H129.327V32.89H132.717C135.454 32.89 138.062 30.94 138.062 27.82C138.062 24.7 135.454 22.75 132.717 22.75ZM132.847 30.55H129.327V24.96H132.847C134.672 24.96 135.715 26.52 135.715 27.69C135.585 29.12 134.542 30.55 132.847 30.55ZM147.84 28.21C146.014 28.21 144.189 28.99 143.537 30.68L145.754 31.59C146.275 30.68 147.057 30.42 147.97 30.42C149.274 30.42 150.447 31.2 150.577 32.5V32.63C150.186 32.37 149.143 31.98 148.1 31.98C145.754 31.98 143.407 33.28 143.407 35.62C143.407 37.83 145.362 39.26 147.448 39.26C149.143 39.26 149.925 38.48 150.577 37.7H150.708V39H153.054V32.76C152.794 29.9 150.577 28.21 147.84 28.21ZM147.579 37.18C146.797 37.18 145.623 36.79 145.623 35.75C145.623 34.45 147.057 34.06 148.231 34.06C149.274 34.06 149.795 34.32 150.447 34.58C150.186 36.14 148.882 37.18 147.579 37.18ZM161.268 28.6L158.53 35.62H158.4L155.531 28.6H152.924L157.226 38.48L154.749 43.94H157.226L163.875 28.6H161.268ZM139.365 39H141.842V22.75H139.365V39Z" fill="white"/>
<path d="M13.5594 9.75C13.1683 10.14 12.9076 10.79 12.9076 11.57V40.3C12.9076 41.08 13.1683 41.73 13.5594 42.12L13.6898 42.25L29.8557 26.13V26V25.87L13.5594 9.75Z" fill="url(#paint0_linear)"/>
<path d="M35.2009 31.59L29.8557 26.26V26V25.87L35.2009 20.54L35.3313 20.67L41.7194 24.31C43.5446 25.35 43.5446 27.04 41.7194 28.08L35.2009 31.59Z" fill="url(#paint1_linear)"/>
<path d="M35.3313 31.46L29.8557 26L13.5594 42.25C14.2113 42.9 15.1239 42.9 16.2972 42.38L35.3313 31.46Z" fill="url(#paint2_linear)"/>
<path d="M35.3313 20.5401L16.2972 9.7501C15.1239 9.1001 14.2113 9.2301 13.5594 9.8801L29.8557 26.0001L35.3313 20.5401Z" fill="url(#paint3_linear)"/>
<path opacity="0.2" d="M35.2009 31.3301L16.2972 41.9901C15.2542 42.6401 14.3416 42.5101 13.6898 41.9901L13.5594 42.1201L13.6898 42.2501C14.3416 42.7701 15.2542 42.9001 16.2972 42.2501L35.2009 31.3301Z" fill="black"/>
<path opacity="0.12" d="M13.5589 41.9902C13.1678 41.6002 13.0374 40.9502 13.0374 40.1702V40.3002C13.0374 41.0802 13.2982 41.7302 13.6893 42.1202V41.9902H13.5589Z" fill="black"/>
<path opacity="0.12" d="M41.7189 27.69L35.2004 31.33L35.3308 31.46L41.7189 27.82C42.6315 27.3 43.0226 26.65 43.0226 26C43.0226 26.65 42.5011 27.17 41.7189 27.69Z" fill="black"/>
<path opacity="0.25" d="M16.2967 9.87999L41.7189 24.31C42.5011 24.83 43.0226 25.35 43.0226 26C43.0226 25.35 42.6315 24.7 41.7189 24.18L16.2967 9.74999C14.4715 8.70999 13.0374 9.61999 13.0374 11.7V11.83C13.0374 9.74999 14.4715 8.83999 16.2967 9.87999Z" fill="white"/>
<defs>
<linearGradient id="paint0_linear" x1="28.4212" y1="11.3226" x2="6.60421" y2="33.2018" gradientUnits="userSpaceOnUse">
<stop stop-color="#00A0FF"/>
<stop offset="0.00657445" stop-color="#00A1FF"/>
<stop offset="0.2601" stop-color="#00BEFF"/>
<stop offset="0.5122" stop-color="#00D2FF"/>
<stop offset="0.7604" stop-color="#00DFFF"/>
<stop offset="1" stop-color="#00E3FF"/>
</linearGradient>
<linearGradient id="paint1_linear" x1="44.111" y1="26.0019" x2="12.5654" y2="26.0019" gradientUnits="userSpaceOnUse">
<stop stop-color="#FFE000"/>
<stop offset="0.4087" stop-color="#FFBD00"/>
<stop offset="0.7754" stop-color="#FFA500"/>
<stop offset="1" stop-color="#FF9C00"/>
</linearGradient>
<linearGradient id="paint2_linear" x1="32.368" y1="28.9849" x2="2.78228" y2="58.6549" gradientUnits="userSpaceOnUse">
<stop stop-color="#FF3A44"/>
<stop offset="1" stop-color="#C31162"/>
</linearGradient>
<linearGradient id="paint3_linear" x1="9.51442" y1="0.229157" x2="22.7257" y2="13.478" gradientUnits="userSpaceOnUse">
<stop stop-color="#32A071"/>
<stop offset="0.0685" stop-color="#2DA771"/>
<stop offset="0.4762" stop-color="#15CF74"/>
<stop offset="0.8009" stop-color="#06E775"/>
<stop offset="1" stop-color="#00F076"/>
</linearGradient>
</defs>
</svg>
