<svg width="235" height="110" viewBox="0 0 235 110" fill="none" xmlns="http://www.w3.org/2000/svg">
<path d="M0 30C0 13.4315 13.4315 0 30 0H205C221.569 0 235 13.4315 235 30V80C235 96.5685 221.569 110 205 110H30C13.4315 110 0 96.5685 0 80V30Z" fill="white" fill-opacity="0.7"/>
<path opacity="0.35" d="M29.98 83.144C31.552 83.144 32.512 82.568 33.388 81.656L32.44 80.696C31.72 81.368 31.06 81.788 30.028 81.788C28.42 81.788 27.256 80.444 27.256 78.8C27.256 77.132 28.42 75.812 30.028 75.812C30.988 75.812 31.708 76.232 32.38 76.856L33.328 75.764C32.524 74.996 31.588 74.456 30.04 74.456C27.496 74.456 25.708 76.412 25.708 78.8C25.708 81.236 27.532 83.144 29.98 83.144ZM37.6662 83.144C39.6222 83.144 41.0622 81.644 41.0622 79.844C41.0622 78.008 39.6342 76.532 37.6902 76.532C35.7462 76.532 34.3062 78.032 34.3062 79.844C34.3062 81.668 35.7342 83.144 37.6662 83.144ZM37.6902 81.884C36.5622 81.884 35.7582 80.948 35.7582 79.844C35.7582 78.716 36.5022 77.804 37.6662 77.804C38.8062 77.804 39.6102 78.728 39.6102 79.844C39.6102 80.96 38.8662 81.884 37.6902 81.884ZM42.5409 83H43.9929V79.436C43.9929 78.452 44.5449 77.852 45.3489 77.852C46.1529 77.852 46.6329 78.404 46.6329 79.388V83H48.0849V79.424C48.0849 78.404 48.6489 77.852 49.4409 77.852C50.2569 77.852 50.7249 78.392 50.7249 79.4V83H52.1769V78.956C52.1769 77.408 51.3369 76.532 49.9569 76.532C48.9969 76.532 48.3249 76.976 47.8089 77.648C47.4729 76.976 46.8369 76.532 45.9249 76.532C44.9529 76.532 44.4009 77.06 43.9929 77.624V76.664H42.5409V83ZM53.9433 84.92H55.3953V82.016C55.8393 82.604 56.4993 83.132 57.5433 83.132C59.0553 83.132 60.4953 81.944 60.4953 79.844C60.4953 77.72 59.0433 76.532 57.5433 76.532C56.5233 76.532 55.8633 77.06 55.3953 77.72V76.664H53.9433V84.92ZM57.2073 81.872C56.2233 81.872 55.3593 81.068 55.3593 79.844C55.3593 78.608 56.2233 77.792 57.2073 77.792C58.1913 77.792 59.0193 78.596 59.0193 79.82C59.0193 81.092 58.2033 81.872 57.2073 81.872ZM67.2983 83V79.244C67.2983 77.552 66.3863 76.568 64.5143 76.568C63.4823 76.568 62.7983 76.784 62.1023 77.096L62.4983 78.26C63.0743 78.02 63.6023 77.864 64.3103 77.864C65.3183 77.864 65.8703 78.344 65.8703 79.22V79.34C65.3783 79.184 64.8863 79.076 64.1183 79.076C62.6423 79.076 61.5503 79.748 61.5503 81.152C61.5503 82.448 62.6063 83.132 63.8063 83.132C64.7663 83.132 65.4263 82.736 65.8583 82.22V83H67.2983ZM65.8943 80.708C65.8943 81.5 65.1743 82.04 64.2143 82.04C63.5303 82.04 62.9903 81.704 62.9903 81.104C62.9903 80.468 63.5303 80.096 64.4423 80.096C65.0063 80.096 65.5223 80.204 65.8943 80.348V80.708ZM69.0253 83H70.4773V80.588C70.4773 78.908 71.3653 78.08 72.6373 78.08H72.7213V76.544C71.6053 76.496 70.8733 77.144 70.4773 78.092V76.664H69.0253V83ZM76.6754 83.144C77.8394 83.144 78.6674 82.676 79.2674 81.956L78.4154 81.2C77.9114 81.692 77.4074 81.956 76.6994 81.956C75.7634 81.956 75.0314 81.38 74.8754 80.348H79.5314C79.5434 80.276 79.5554 80.036 79.5554 79.94C79.5554 78.116 78.5354 76.532 76.5194 76.532C74.7074 76.532 73.4234 78.02 73.4234 79.832C73.4234 81.812 74.8394 83.144 76.6754 83.144ZM74.8634 79.388C74.9954 78.404 75.6194 77.72 76.5074 77.72C77.4674 77.72 78.0194 78.452 78.1154 79.388H74.8634ZM83.6296 83.132C84.6616 83.132 85.3216 82.604 85.7896 81.944V83H87.2416V74.24H85.7896V77.648C85.3336 77.06 84.6736 76.532 83.6296 76.532C82.1176 76.532 80.6896 77.72 80.6896 79.82C80.6896 81.944 82.1416 83.132 83.6296 83.132ZM83.9776 81.872C82.9936 81.872 82.1536 81.068 82.1536 79.844C82.1536 78.56 82.9816 77.792 83.9776 77.792C84.9496 77.792 85.8136 78.596 85.8136 79.82C85.8136 81.056 84.9496 81.872 83.9776 81.872ZM94.7743 83.108C95.3143 83.108 95.7223 82.988 96.0823 82.784V81.596C95.7943 81.74 95.5063 81.812 95.1823 81.812C94.6903 81.812 94.4023 81.584 94.4023 81.02V77.912H96.1063V76.664H94.4023V74.924H92.9503V76.664H92.1463V77.912H92.9503V81.248C92.9503 82.64 93.7063 83.108 94.7743 83.108ZM100.408 83.144C102.364 83.144 103.804 81.644 103.804 79.844C103.804 78.008 102.376 76.532 100.432 76.532C98.4884 76.532 97.0484 78.032 97.0484 79.844C97.0484 81.668 98.4764 83.144 100.408 83.144ZM100.432 81.884C99.3044 81.884 98.5004 80.948 98.5004 79.844C98.5004 78.716 99.2444 77.804 100.408 77.804C101.548 77.804 102.352 78.728 102.352 79.844C102.352 80.96 101.608 81.884 100.432 81.884ZM112.049 84.692L112.685 83.72C110.981 82.592 110.177 81.344 110.177 79.556C110.177 77.768 110.981 76.52 112.685 75.392L112.049 74.42C109.865 75.62 108.725 77.288 108.725 79.556C108.725 81.824 109.865 83.492 112.049 84.692ZM116.71 84.176H117.682V82.988C119.206 82.856 120.274 81.98 120.274 80.672C120.274 79.364 119.494 78.632 117.67 78.176V75.896C118.234 76.016 118.774 76.268 119.302 76.664L119.974 75.536C119.314 75.044 118.558 74.732 117.682 74.624V73.904H116.71V74.6C115.21 74.72 114.154 75.596 114.154 76.892C114.154 78.26 114.97 78.92 116.722 79.376V81.728C115.942 81.608 115.294 81.248 114.61 80.696L113.842 81.788C114.658 82.436 115.666 82.856 116.71 82.976V84.176ZM116.722 77.924C115.798 77.648 115.57 77.324 115.57 76.832C115.57 76.28 115.966 75.872 116.722 75.812V77.924ZM117.67 81.776V79.604C118.606 79.88 118.858 80.204 118.858 80.732C118.858 81.332 118.426 81.716 117.67 81.776ZM121.541 83H127.613V81.704H123.617L125.345 80.264C126.821 79.04 127.529 78.332 127.529 77.012C127.529 75.488 126.401 74.48 124.757 74.48C123.257 74.48 122.465 75.116 121.661 76.244L122.705 77.06C123.353 76.22 123.881 75.8 124.649 75.8C125.417 75.8 126.005 76.28 126.005 77.108C126.005 77.864 125.585 78.404 124.433 79.376L121.541 81.836V83ZM132.045 83.144C133.785 83.144 134.985 82.04 134.985 80.492C134.985 78.98 133.845 78.296 132.513 78.104L134.853 75.704V74.6H129.297V75.884H132.933L130.665 78.296L130.905 79.22H131.589C132.765 79.22 133.521 79.688 133.521 80.516C133.521 81.308 132.897 81.812 132.069 81.812C131.133 81.812 130.461 81.416 129.861 80.708L128.829 81.668C129.537 82.532 130.581 83.144 132.045 83.144ZM139.462 83.144C141.202 83.144 142.402 82.04 142.402 80.492C142.402 78.98 141.262 78.296 139.93 78.104L142.27 75.704V74.6H136.714V75.884H140.35L138.082 78.296L138.322 79.22H139.006C140.182 79.22 140.938 79.688 140.938 80.516C140.938 81.308 140.314 81.812 139.486 81.812C138.55 81.812 137.878 81.416 137.278 80.708L136.246 81.668C136.954 82.532 137.998 83.144 139.462 83.144ZM148.092 83H149.508V81.116H150.708V79.904H149.508V74.54H148.248L143.58 80.06L143.856 81.116H148.092V83ZM145.332 79.904L148.092 76.58V79.904H145.332ZM155.91 83H157.362V74.24H155.91V83ZM164.576 83V79.244C164.576 77.552 163.664 76.568 161.792 76.568C160.76 76.568 160.076 76.784 159.38 77.096L159.776 78.26C160.352 78.02 160.88 77.864 161.588 77.864C162.596 77.864 163.148 78.344 163.148 79.22V79.34C162.656 79.184 162.164 79.076 161.396 79.076C159.92 79.076 158.828 79.748 158.828 81.152C158.828 82.448 159.884 83.132 161.084 83.132C162.044 83.132 162.704 82.736 163.136 82.22V83H164.576ZM163.172 80.708C163.172 81.5 162.452 82.04 161.492 82.04C160.808 82.04 160.268 81.704 160.268 81.104C160.268 80.468 160.808 80.096 161.72 80.096C162.284 80.096 162.8 80.204 163.172 80.348V80.708ZM168.475 83.12C169.795 83.12 170.827 82.46 170.827 81.128C170.827 79.964 169.783 79.544 168.859 79.256C168.823 79.244 168.775 79.232 168.739 79.22C168.043 78.992 167.431 78.8 167.431 78.368C167.431 77.972 167.755 77.708 168.319 77.708C168.847 77.708 169.495 77.936 170.107 78.308L170.683 77.276C170.011 76.832 169.147 76.556 168.355 76.556C167.095 76.556 166.099 77.288 166.099 78.488C166.099 79.724 167.143 80.108 168.079 80.384C168.115 80.396 168.151 80.408 168.187 80.42C168.883 80.624 169.495 80.792 169.495 81.26C169.495 81.704 169.135 81.968 168.511 81.968C167.863 81.968 167.119 81.704 166.435 81.188L165.787 82.172C166.579 82.796 167.575 83.12 168.475 83.12ZM174.309 83.108C174.849 83.108 175.257 82.988 175.617 82.784V81.596C175.329 81.74 175.041 81.812 174.717 81.812C174.225 81.812 173.937 81.584 173.937 81.02V77.912H175.641V76.664H173.937V74.924H172.485V76.664H171.681V77.912H172.485V81.248C172.485 82.64 173.241 83.108 174.309 83.108ZM182.001 84.956C183.021 84.956 183.585 84.476 184.089 83.18L186.609 76.664H185.097L183.453 81.368L181.653 76.664H180.105L182.745 83C182.505 83.552 182.253 83.732 181.845 83.732C181.545 83.732 181.257 83.636 180.993 83.492L180.501 84.572C180.945 84.812 181.389 84.956 182.001 84.956ZM190.394 83.144C191.558 83.144 192.386 82.676 192.986 81.956L192.134 81.2C191.63 81.692 191.126 81.956 190.418 81.956C189.482 81.956 188.75 81.38 188.594 80.348H193.25C193.262 80.276 193.274 80.036 193.274 79.94C193.274 78.116 192.254 76.532 190.238 76.532C188.426 76.532 187.142 78.02 187.142 79.832C187.142 81.812 188.558 83.144 190.394 83.144ZM188.582 79.388C188.714 78.404 189.338 77.72 190.226 77.72C191.186 77.72 191.738 78.452 191.834 79.388H188.582ZM200.048 83V79.244C200.048 77.552 199.136 76.568 197.264 76.568C196.232 76.568 195.548 76.784 194.852 77.096L195.248 78.26C195.824 78.02 196.352 77.864 197.06 77.864C198.068 77.864 198.62 78.344 198.62 79.22V79.34C198.128 79.184 197.636 79.076 196.868 79.076C195.392 79.076 194.3 79.748 194.3 81.152C194.3 82.448 195.356 83.132 196.556 83.132C197.516 83.132 198.176 82.736 198.608 82.22V83H200.048ZM198.644 80.708C198.644 81.5 197.924 82.04 196.964 82.04C196.28 82.04 195.74 81.704 195.74 81.104C195.74 80.468 196.28 80.096 197.192 80.096C197.756 80.096 198.272 80.204 198.644 80.348V80.708ZM201.775 83H203.227V80.588C203.227 78.908 204.115 78.08 205.387 78.08H205.471V76.544C204.355 76.496 203.623 77.144 203.227 78.092V76.664H201.775V83ZM207.032 84.692C209.204 83.492 210.356 81.824 210.356 79.556C210.356 77.288 209.204 75.62 207.032 74.42L206.396 75.392C208.1 76.52 208.904 77.768 208.904 79.556C208.904 81.344 208.1 82.592 206.396 83.72L207.032 84.692Z" fill="#1A1B26"/>
<path d="M30.31 61.764H32.182V60C34.738 59.766 36.43 58.416 36.43 56.22C36.43 53.952 34.99 52.926 32.128 52.26V50.172C32.938 50.37 33.802 50.73 34.54 51.252L36.016 48.84C34.936 48.102 33.694 47.598 32.218 47.436V46.356H30.346V47.382C27.592 47.58 26.044 49.056 26.044 51.18C26.044 53.448 27.52 54.438 30.418 55.104V57.264C29.302 57.084 28.222 56.598 27.07 55.788L25.45 58.182C26.8 59.154 28.546 59.784 30.31 59.964V61.764ZM32.11 57.372V55.392C33.046 55.662 33.316 55.932 33.316 56.418C33.316 56.976 32.938 57.282 32.11 57.372ZM30.436 51.954C29.464 51.684 29.212 51.414 29.212 50.946C29.212 50.442 29.554 50.082 30.436 50.01V51.954ZM42.6763 60.252C45.4843 60.252 47.5363 58.614 47.5363 56.058C47.5363 53.88 46.0783 52.872 44.2783 52.476L47.2843 49.902V47.4H38.1763V50.226H43.0003L40.1023 52.836L40.6063 54.654H42.0823C43.3963 54.654 44.1343 55.14 44.1343 55.95C44.1343 56.76 43.5043 57.264 42.5143 57.264C41.3623 57.264 40.4083 56.742 39.5083 55.824L37.3123 58.02C38.5363 59.37 40.2463 60.252 42.6763 60.252ZM53.622 60.252C56.682 60.252 58.824 58.578 58.824 55.77C58.824 52.998 56.772 51.738 54.504 51.738C53.658 51.738 53.064 51.918 52.488 52.188L52.596 50.28H58.266V47.4H49.842L49.482 53.79L51.552 54.942C52.146 54.582 52.794 54.312 53.568 54.312C54.666 54.312 55.422 54.87 55.422 55.77C55.422 56.706 54.72 57.282 53.568 57.282C52.506 57.282 51.534 56.778 50.508 55.914L48.51 58.254C49.824 59.478 51.39 60.252 53.622 60.252ZM66.4179 60H69.8019V57.552H71.4039V54.942H69.8019V47.31H66.2739L59.7399 55.086L60.3159 57.552H66.4179V60ZM63.4119 54.96L66.4179 51.342V54.96H63.4119ZM77.604 60.252C80.412 60.252 82.464 58.614 82.464 56.058C82.464 53.88 81.006 52.872 79.206 52.476L82.212 49.902V47.4H73.104V50.226H77.928L75.03 52.836L75.534 54.654H77.01C78.324 54.654 79.062 55.14 79.062 55.95C79.062 56.76 78.432 57.264 77.442 57.264C76.29 57.264 75.336 56.742 74.436 55.824L72.24 58.02C73.464 59.37 75.174 60.252 77.604 60.252ZM83.6897 60H93.6617V57.156H88.4597L90.6197 55.644C92.5097 54.312 93.5357 53.25 93.5357 51.234C93.5357 48.822 91.6457 47.184 88.8917 47.184C86.4437 47.184 85.1117 48.138 83.7617 49.884L86.1197 51.846C87.1097 50.712 87.7757 50.226 88.6217 50.226C89.4677 50.226 90.0257 50.712 90.0257 51.504C90.0257 52.26 89.5937 52.872 88.4057 53.772L83.6897 57.372V60Z" fill="#1A1B26"/>
<path d="M156.241 32.516V29.842H153.553V28.302H156.241V25.628H157.837V28.302H160.525V29.842H157.837V32.516H156.241ZM164.006 34V25.88L162.242 26.37L161.878 24.97L164.51 24.13H165.714V34H164.006ZM167.75 34V32.642L171.124 29.772C171.815 29.1933 172.291 28.7173 172.552 28.344C172.823 27.9613 172.958 27.5553 172.958 27.126C172.958 26.6593 172.809 26.2907 172.51 26.02C172.212 25.74 171.834 25.6 171.376 25.6C170.947 25.6 170.56 25.7167 170.214 25.95C169.878 26.1833 169.51 26.5567 169.108 27.07L167.89 26.118C168.394 25.4087 168.912 24.8907 169.444 24.564C169.986 24.228 170.672 24.06 171.502 24.06C172.464 24.06 173.243 24.3307 173.84 24.872C174.438 25.4133 174.736 26.1273 174.736 27.014C174.736 27.3967 174.69 27.742 174.596 28.05C174.503 28.3487 174.335 28.6567 174.092 28.974C173.859 29.282 173.602 29.5667 173.322 29.828C173.052 30.08 172.674 30.4067 172.188 30.808L170.172 32.488H174.834V34H167.75ZM176.602 34V32.082H178.464V34H176.602ZM183.666 34.168C182.294 34.168 181.095 33.6687 180.068 32.67L181.132 31.424C181.972 32.208 182.812 32.6 183.652 32.6C184.24 32.6 184.711 32.446 185.066 32.138C185.421 31.8207 185.598 31.4007 185.598 30.878C185.598 30.3833 185.407 29.9913 185.024 29.702C184.651 29.4033 184.165 29.254 183.568 29.254C182.98 29.254 182.378 29.3987 181.762 29.688L180.726 29.002L181.006 24.2H186.858V25.726H182.49L182.336 28.022C182.849 27.8353 183.367 27.742 183.89 27.742C184.889 27.742 185.705 28.008 186.34 28.54C186.975 29.072 187.292 29.842 187.292 30.85C187.292 31.8487 186.956 32.6513 186.284 33.258C185.621 33.8647 184.749 34.168 183.666 34.168ZM191.087 29.1C190.415 29.1 189.864 28.8573 189.435 28.372C189.006 27.8867 188.791 27.294 188.791 26.594C188.791 25.9033 189.006 25.3153 189.435 24.83C189.874 24.3353 190.434 24.088 191.115 24.088C191.787 24.088 192.338 24.3307 192.767 24.816C193.196 25.3013 193.411 25.894 193.411 26.594C193.411 27.2847 193.192 27.8773 192.753 28.372C192.324 28.8573 191.768 29.1 191.087 29.1ZM189.785 34L196.953 24.2H198.339L191.171 34H189.785ZM197.009 34.112C196.337 34.112 195.786 33.8693 195.357 33.384C194.928 32.8987 194.713 32.306 194.713 31.606C194.713 30.9153 194.928 30.3273 195.357 29.842C195.796 29.3473 196.356 29.1 197.037 29.1C197.709 29.1 198.26 29.3427 198.689 29.828C199.118 30.3133 199.333 30.906 199.333 31.606C199.333 32.2967 199.114 32.8893 198.675 33.384C198.246 33.8693 197.69 34.112 197.009 34.112ZM191.115 28.022C191.432 28.022 191.684 27.8867 191.871 27.616C192.067 27.336 192.165 26.9953 192.165 26.594C192.165 26.1927 192.062 25.8567 191.857 25.586C191.652 25.306 191.395 25.166 191.087 25.166C190.77 25.166 190.513 25.306 190.317 25.586C190.13 25.8567 190.037 26.1927 190.037 26.594C190.037 26.9953 190.14 27.336 190.345 27.616C190.55 27.8867 190.807 28.022 191.115 28.022ZM197.037 33.034C197.354 33.034 197.606 32.8987 197.793 32.628C197.989 32.348 198.087 32.0073 198.087 31.606C198.087 31.2047 197.984 30.8687 197.779 30.598C197.574 30.318 197.317 30.178 197.009 30.178C196.692 30.178 196.435 30.318 196.239 30.598C196.052 30.8687 195.959 31.2047 195.959 31.606C195.959 32.0073 196.062 32.348 196.267 32.628C196.472 32.8987 196.729 33.034 197.037 33.034Z" fill="#009A0F"/>
<path d="M210.354 25.6464C210.158 25.4512 209.842 25.4512 209.646 25.6464L206.464 28.8284C206.269 29.0237 206.269 29.3403 206.464 29.5355C206.66 29.7308 206.976 29.7308 207.172 29.5355L210 26.7071L212.828 29.5355C213.024 29.7308 213.34 29.7308 213.536 29.5355C213.731 29.3403 213.731 29.0237 213.536 28.8284L210.354 25.6464ZM210.5 34V26H209.5V34H210.5Z" fill="#009A0F"/>
<path d="M29.746 34.14C28.2433 34.14 26.9087 33.6173 25.742 32.572L26.428 31.76C26.9507 32.236 27.4733 32.586 27.996 32.81C28.528 33.034 29.1253 33.146 29.788 33.146C30.4413 33.146 30.9687 32.992 31.37 32.684C31.7713 32.3667 31.972 31.956 31.972 31.452C31.972 30.976 31.7947 30.598 31.44 30.318C31.0853 30.038 30.4133 29.7953 29.424 29.59C28.2573 29.338 27.4173 28.9973 26.904 28.568C26.3907 28.1387 26.134 27.5273 26.134 26.734C26.134 25.9593 26.4373 25.32 27.044 24.816C27.6507 24.312 28.4207 24.06 29.354 24.06C30.6513 24.06 31.7993 24.4613 32.798 25.264L32.154 26.118C31.286 25.4087 30.3433 25.054 29.326 25.054C28.7007 25.054 28.1967 25.208 27.814 25.516C27.4313 25.8147 27.24 26.1973 27.24 26.664C27.24 27.1493 27.422 27.532 27.786 27.812C28.1593 28.092 28.864 28.344 29.9 28.568C31.0107 28.8107 31.818 29.1513 32.322 29.59C32.8353 30.0193 33.092 30.612 33.092 31.368C33.092 32.1987 32.7793 32.8707 32.154 33.384C31.5287 33.888 30.726 34.14 29.746 34.14ZM37.3151 34.154C36.5777 34.154 35.9431 33.9533 35.4111 33.552C34.8791 33.1507 34.6131 32.5907 34.6131 31.872C34.6131 31.116 34.8931 30.5327 35.4531 30.122C36.0131 29.7113 36.7644 29.506 37.7071 29.506C38.4537 29.506 39.1911 29.6087 39.9191 29.814V29.59C39.9191 28.9553 39.7324 28.47 39.3591 28.134C38.9857 27.798 38.4584 27.63 37.7771 27.63C37.0677 27.63 36.3351 27.8027 35.5791 28.148L35.2571 27.266C36.1531 26.8553 37.0304 26.65 37.8891 26.65C38.9157 26.65 39.6951 26.916 40.2271 27.448C40.7311 27.952 40.9831 28.6613 40.9831 29.576V34H39.9191V32.922C39.2751 33.7433 38.4071 34.154 37.3151 34.154ZM37.5251 33.286C38.1971 33.286 38.7664 33.104 39.2331 32.74C39.6997 32.376 39.9331 31.9093 39.9331 31.34V30.668C39.2237 30.4627 38.5191 30.36 37.8191 30.36C37.1564 30.36 36.6384 30.4953 36.2651 30.766C35.8917 31.0273 35.7051 31.3867 35.7051 31.844C35.7051 32.2827 35.8777 32.6327 36.2231 32.894C36.5777 33.1553 37.0117 33.286 37.5251 33.286ZM43.3645 34V23.78H44.4425V34H43.3645ZM47.5882 30.822C47.6629 31.5593 47.9382 32.1473 48.4142 32.586C48.8996 33.0153 49.4736 33.23 50.1362 33.23C51.0042 33.23 51.7649 32.8893 52.4182 32.208L53.0902 32.81C52.2782 33.7153 51.2842 34.168 50.1082 34.168C49.0909 34.168 48.2322 33.818 47.5322 33.118C46.8416 32.4087 46.4962 31.4987 46.4962 30.388C46.4962 29.3333 46.8276 28.442 47.4902 27.714C48.1529 26.9767 48.9789 26.608 49.9682 26.608C51.0042 26.608 51.8256 26.972 52.4322 27.7C53.0389 28.428 53.3422 29.3427 53.3422 30.444C53.3422 30.584 53.3376 30.71 53.3282 30.822H47.5882ZM47.5882 29.954H52.2502C52.1849 29.254 51.9516 28.6753 51.5502 28.218C51.1582 27.7513 50.6216 27.518 49.9402 27.518C49.3242 27.518 48.7969 27.7467 48.3582 28.204C47.9196 28.6613 47.6629 29.2447 47.5882 29.954ZM57.6234 34.14C57.1007 34.14 56.5687 34.0467 56.0274 33.86C55.4954 33.664 55.0287 33.4027 54.6274 33.076L55.1734 32.306C55.9947 32.922 56.8301 33.23 57.6794 33.23C58.1181 33.23 58.4774 33.1227 58.7574 32.908C59.0374 32.6933 59.1774 32.4087 59.1774 32.054C59.1774 31.7273 59.0234 31.4753 58.7154 31.298C58.4167 31.1207 57.9687 30.948 57.3714 30.78C57.0074 30.6773 56.7181 30.584 56.5034 30.5C56.2887 30.416 56.0461 30.2993 55.7754 30.15C55.5047 29.9913 55.3041 29.7953 55.1734 29.562C55.0427 29.3193 54.9774 29.0347 54.9774 28.708C54.9774 28.092 55.2061 27.5927 55.6634 27.21C56.1301 26.8273 56.7227 26.636 57.4414 26.636C58.3747 26.636 59.2427 26.902 60.0454 27.434L59.5554 28.246C58.8367 27.7793 58.1227 27.546 57.4134 27.546C56.9934 27.546 56.6527 27.6487 56.3914 27.854C56.1394 28.05 56.0134 28.3067 56.0134 28.624C56.0134 28.7547 56.0507 28.876 56.1254 28.988C56.2001 29.1 56.2841 29.1933 56.3774 29.268C56.4707 29.3427 56.6154 29.422 56.8114 29.506C57.0167 29.59 57.1801 29.6507 57.3014 29.688C57.4227 29.7253 57.6141 29.786 57.8754 29.87C58.2207 29.9727 58.5054 30.0707 58.7294 30.164C58.9534 30.2573 59.1914 30.3833 59.4434 30.542C59.6954 30.7007 59.8821 30.9013 60.0034 31.144C60.1341 31.3773 60.1994 31.6527 60.1994 31.97C60.1994 32.642 59.9567 33.174 59.4714 33.566C58.9861 33.9487 58.3701 34.14 57.6234 34.14Z" fill="#1A1B26"/>
</svg>
