<svg width="120" height="135" viewBox="0 0 120 135" fill="none" xmlns="http://www.w3.org/2000/svg">
<path d="M0 30C0 13.4315 13.4315 0 30 0H90C106.569 0 120 13.4315 120 30V105C120 121.569 106.569 135 90 135H30C13.4315 135 0 121.569 0 105V30Z" fill="white" fill-opacity="0.7"/>
<path opacity="0.35" d="M27.5493 104.12C26.2133 104.12 25.0453 103.672 24.0453 102.776L24.9333 101.72C25.7733 102.448 26.6573 102.812 27.5853 102.812C28.0413 102.812 28.4013 102.716 28.6653 102.524C28.9373 102.324 29.0733 102.06 29.0733 101.732C29.0733 101.42 28.9453 101.172 28.6893 100.988C28.4333 100.796 27.9293 100.612 27.1773 100.436C26.2013 100.204 25.4893 99.912 25.0413 99.56C24.6013 99.2 24.3813 98.652 24.3813 97.916C24.3813 97.196 24.6493 96.612 25.1853 96.164C25.7213 95.708 26.4093 95.48 27.2493 95.48C28.4013 95.48 29.4173 95.832 30.2973 96.536L29.5053 97.652C28.7293 97.076 27.9693 96.788 27.2253 96.788C26.8013 96.788 26.4653 96.884 26.2173 97.076C25.9773 97.268 25.8573 97.512 25.8573 97.808C25.8573 98.136 25.9893 98.392 26.2533 98.576C26.5253 98.752 27.0573 98.936 27.8493 99.128C28.7773 99.352 29.4573 99.652 29.8893 100.028C30.3293 100.404 30.5493 100.932 30.5493 101.612C30.5493 102.388 30.2733 103 29.7213 103.448C29.1693 103.896 28.4453 104.12 27.5493 104.12ZM37.4331 104H35.9931V103.22C35.4811 103.828 34.7971 104.132 33.9411 104.132C33.3091 104.132 32.7731 103.96 32.3331 103.616C31.9011 103.264 31.6851 102.776 31.6851 102.152C31.6851 101.472 31.9211 100.956 32.3931 100.604C32.8651 100.252 33.4851 100.076 34.2531 100.076C34.8691 100.076 35.4531 100.164 36.0051 100.34V100.22C36.0051 99.78 35.8691 99.444 35.5971 99.212C35.3331 98.98 34.9491 98.864 34.4451 98.864C33.8691 98.864 33.2651 98.996 32.6331 99.26L32.2371 98.096C33.0211 97.744 33.8251 97.568 34.6491 97.568C35.5691 97.568 36.2611 97.8 36.7251 98.264C37.1971 98.728 37.4331 99.388 37.4331 100.244V104ZM36.0291 101.708V101.348C35.5971 101.18 35.1131 101.096 34.5771 101.096C34.1211 101.096 33.7651 101.184 33.5091 101.36C33.2531 101.536 33.1251 101.784 33.1251 102.104C33.1251 102.392 33.2411 102.62 33.4731 102.788C33.7051 102.956 33.9971 103.04 34.3491 103.04C34.8371 103.04 35.2371 102.916 35.5491 102.668C35.8691 102.42 36.0291 102.1 36.0291 101.708ZM39.244 104V95.24H40.696V104H39.244ZM45.4976 104.144C44.5696 104.144 43.7936 103.836 43.1696 103.22C42.5536 102.604 42.2456 101.808 42.2456 100.832C42.2456 99.912 42.5376 99.132 43.1216 98.492C43.7056 97.852 44.4456 97.532 45.3416 97.532C46.3016 97.532 47.0456 97.86 47.5736 98.516C48.1096 99.164 48.3776 99.972 48.3776 100.94C48.3776 101.116 48.3696 101.252 48.3536 101.348H43.6976C43.7776 101.852 43.9816 102.248 44.3096 102.536C44.6376 102.816 45.0416 102.956 45.5216 102.956C46.1456 102.956 46.7176 102.704 47.2376 102.2L48.0896 102.956C47.4336 103.748 46.5696 104.144 45.4976 104.144ZM43.6856 100.388H46.9376C46.8896 99.9 46.7256 99.5 46.4456 99.188C46.1656 98.876 45.7936 98.72 45.3296 98.72C44.8896 98.72 44.5216 98.876 44.2256 99.188C43.9296 99.492 43.7496 99.892 43.6856 100.388ZM52.0078 104.12C51.0158 104.12 50.1198 103.804 49.3198 103.172L49.9678 102.188C50.6558 102.708 51.3478 102.968 52.0438 102.968C52.3558 102.968 52.5958 102.908 52.7638 102.788C52.9398 102.66 53.0278 102.484 53.0278 102.26C53.0278 102.148 52.9958 102.052 52.9318 101.972C52.8758 101.884 52.7718 101.804 52.6198 101.732C52.4678 101.66 52.3398 101.608 52.2358 101.576C52.1318 101.544 51.9598 101.492 51.7198 101.42L51.6118 101.384C51.3878 101.32 51.1958 101.26 51.0358 101.204C50.8838 101.14 50.7118 101.056 50.5198 100.952C50.3278 100.848 50.1718 100.736 50.0518 100.616C49.9318 100.488 49.8318 100.328 49.7518 100.136C49.6718 99.944 49.6318 99.728 49.6318 99.488C49.6318 98.904 49.8438 98.436 50.2678 98.084C50.6998 97.732 51.2398 97.556 51.8878 97.556C52.7118 97.556 53.4878 97.796 54.2158 98.276L53.6398 99.308C52.9838 98.908 52.3878 98.708 51.8518 98.708C51.5718 98.708 51.3518 98.768 51.1918 98.888C51.0398 99.008 50.9638 99.168 50.9638 99.368C50.9638 99.504 51.0318 99.628 51.1678 99.74C51.3118 99.852 51.4518 99.936 51.5878 99.992C51.7318 100.04 51.9598 100.116 52.2718 100.22C52.2878 100.228 52.3078 100.236 52.3318 100.244C52.3558 100.252 52.3758 100.256 52.3918 100.256C52.6718 100.344 52.9078 100.432 53.0998 100.52C53.2918 100.6 53.4918 100.712 53.6998 100.856C53.9158 101 54.0798 101.18 54.1918 101.396C54.3038 101.604 54.3598 101.848 54.3598 102.128C54.3598 102.768 54.1398 103.26 53.6998 103.604C53.2598 103.948 52.6958 104.12 52.0078 104.12ZM61.5575 104.108C60.3415 104.108 59.7335 103.488 59.7335 102.248V98.912H58.9295V97.664H59.7335V95.924H61.1855V97.664H62.8895V98.912H61.1855V102.02C61.1855 102.548 61.4455 102.812 61.9655 102.812C62.2775 102.812 62.5775 102.74 62.8655 102.596V103.784C62.4815 104 62.0455 104.108 61.5575 104.108ZM69.6714 104H68.2314V103.22C67.7194 103.828 67.0354 104.132 66.1794 104.132C65.5474 104.132 65.0114 103.96 64.5714 103.616C64.1394 103.264 63.9234 102.776 63.9234 102.152C63.9234 101.472 64.1594 100.956 64.6314 100.604C65.1034 100.252 65.7234 100.076 66.4914 100.076C67.1074 100.076 67.6914 100.164 68.2434 100.34V100.22C68.2434 99.78 68.1074 99.444 67.8354 99.212C67.5714 98.98 67.1874 98.864 66.6834 98.864C66.1074 98.864 65.5034 98.996 64.8714 99.26L64.4754 98.096C65.2594 97.744 66.0634 97.568 66.8874 97.568C67.8074 97.568 68.4994 97.8 68.9634 98.264C69.4354 98.728 69.6714 99.388 69.6714 100.244V104ZM68.2674 101.708V101.348C67.8354 101.18 67.3514 101.096 66.8154 101.096C66.3594 101.096 66.0034 101.184 65.7474 101.36C65.4914 101.536 65.3634 101.784 65.3634 102.104C65.3634 102.392 65.4794 102.62 65.7114 102.788C65.9434 102.956 66.2354 103.04 66.5874 103.04C67.0754 103.04 67.4754 102.916 67.7874 102.668C68.1074 102.42 68.2674 102.1 68.2674 101.708ZM71.3983 104V97.664H72.8503V99.092C73.2983 98.012 74.0463 97.496 75.0943 97.544V99.08H75.0103C74.3543 99.08 73.8303 99.296 73.4383 99.728C73.0463 100.152 72.8503 100.772 72.8503 101.588V104H71.3983ZM78.9996 105.944C77.9436 105.944 76.9996 105.692 76.1676 105.188L76.7076 104.096C77.4276 104.544 78.1796 104.768 78.9636 104.768C79.6116 104.768 80.1076 104.6 80.4516 104.264C80.7956 103.936 80.9676 103.456 80.9676 102.824V102.332C80.3676 103.108 79.6236 103.496 78.7356 103.496C77.9516 103.496 77.2756 103.224 76.7076 102.68C76.1396 102.136 75.8556 101.412 75.8556 100.508C75.8556 99.612 76.1396 98.892 76.7076 98.348C77.2836 97.804 77.9596 97.532 78.7356 97.532C79.6156 97.532 80.3556 97.892 80.9556 98.612V97.664H82.4076V102.704C82.4076 103.76 82.1396 104.556 81.6036 105.092C81.0356 105.66 80.1676 105.944 78.9996 105.944ZM79.1196 102.272C79.6316 102.272 80.0676 102.108 80.4276 101.78C80.7956 101.444 80.9796 101.02 80.9796 100.508C80.9796 99.996 80.7956 99.576 80.4276 99.248C80.0676 98.92 79.6316 98.756 79.1196 98.756C78.6076 98.756 78.1796 98.92 77.8356 99.248C77.4916 99.568 77.3196 99.992 77.3196 100.52C77.3196 101.032 77.4916 101.452 77.8356 101.78C78.1876 102.108 78.6156 102.272 79.1196 102.272ZM87.1226 104.144C86.1946 104.144 85.4186 103.836 84.7946 103.22C84.1786 102.604 83.8706 101.808 83.8706 100.832C83.8706 99.912 84.1626 99.132 84.7466 98.492C85.3306 97.852 86.0706 97.532 86.9666 97.532C87.9266 97.532 88.6706 97.86 89.1986 98.516C89.7346 99.164 90.0026 99.972 90.0026 100.94C90.0026 101.116 89.9946 101.252 89.9786 101.348H85.3226C85.4026 101.852 85.6066 102.248 85.9346 102.536C86.2626 102.816 86.6666 102.956 87.1466 102.956C87.7706 102.956 88.3426 102.704 88.8626 102.2L89.7146 102.956C89.0586 103.748 88.1946 104.144 87.1226 104.144ZM85.3106 100.388H88.5626C88.5146 99.9 88.3506 99.5 88.0706 99.188C87.7906 98.876 87.4186 98.72 86.9546 98.72C86.5146 98.72 86.1466 98.876 85.8506 99.188C85.5546 99.492 85.3746 99.892 85.3106 100.388ZM93.5848 104.108C92.3688 104.108 91.7608 103.488 91.7608 102.248V98.912H90.9568V97.664H91.7608V95.924H93.2128V97.664H94.9168V98.912H93.2128V102.02C93.2128 102.548 93.4728 102.812 93.9928 102.812C94.3048 102.812 94.6048 102.74 94.8928 102.596V103.784C94.5088 104 94.0728 104.108 93.5848 104.108Z" fill="#1A1B26"/>
<path d="M48.5581 85.208C47.5981 85.88 46.3561 86.216 44.8321 86.216C43.3081 86.216 42.0601 85.874 41.0881 85.19C40.1281 84.494 39.6481 83.594 39.6481 82.49C39.6481 81.086 40.3681 80.078 41.8081 79.466C40.6561 78.83 40.0801 77.906 40.0801 76.694C40.0801 75.674 40.5181 74.834 41.3941 74.174C42.2821 73.514 43.4281 73.184 44.8321 73.184C46.2361 73.184 47.3761 73.52 48.2521 74.192C49.1401 74.852 49.5841 75.698 49.5841 76.73C49.5841 77.918 49.0081 78.83 47.8561 79.466C48.5521 79.79 49.0861 80.192 49.4581 80.672C49.8301 81.14 50.0161 81.752 50.0161 82.508C50.0161 83.624 49.5301 84.524 48.5581 85.208ZM43.5001 83.192C43.8241 83.468 44.2681 83.606 44.8321 83.606C45.3961 83.606 45.8401 83.468 46.1641 83.192C46.4881 82.904 46.6501 82.556 46.6501 82.148C46.6501 81.74 46.4761 81.41 46.1281 81.158C45.7921 80.906 45.3601 80.78 44.8321 80.78C44.2921 80.78 43.8541 80.912 43.5181 81.176C43.1821 81.428 43.0141 81.764 43.0141 82.184C43.0141 82.58 43.1761 82.916 43.5001 83.192ZM43.6981 78.116C43.9861 78.38 44.3641 78.512 44.8321 78.512C45.3001 78.512 45.6721 78.386 45.9481 78.134C46.2361 77.87 46.3801 77.528 46.3801 77.108C46.3801 76.748 46.2361 76.436 45.9481 76.172C45.6601 75.908 45.2881 75.776 44.8321 75.776C44.3641 75.776 43.9861 75.908 43.6981 76.172C43.4221 76.424 43.2841 76.742 43.2841 77.126C43.2841 77.522 43.4221 77.852 43.6981 78.116ZM61.282 84.362C60.214 85.622 58.804 86.252 57.052 86.252C55.3 86.252 53.89 85.628 52.822 84.38C51.766 83.12 51.238 81.56 51.238 79.7C51.238 77.864 51.778 76.316 52.858 75.056C53.938 73.784 55.348 73.148 57.088 73.148C58.84 73.148 60.244 73.778 61.3 75.038C62.368 76.298 62.902 77.852 62.902 79.7C62.902 81.536 62.362 83.09 61.282 84.362ZM55.396 82.202C55.828 82.838 56.392 83.156 57.088 83.156C57.784 83.156 58.342 82.838 58.762 82.202C59.182 81.554 59.392 80.72 59.392 79.7C59.392 78.692 59.17 77.864 58.726 77.216C58.294 76.568 57.736 76.244 57.052 76.244C56.356 76.244 55.798 76.562 55.378 77.198C54.958 77.834 54.748 78.668 54.748 79.7C54.748 80.72 54.964 81.554 55.396 82.202ZM65.6644 86L75.3844 73.4H77.8144L68.0944 86H65.6644ZM78.2824 85.19C77.6704 85.85 76.8904 86.18 75.9424 86.18C74.9944 86.18 74.2144 85.856 73.6024 85.208C73.0024 84.548 72.7024 83.738 72.7024 82.778C72.7024 81.83 73.0024 81.032 73.6024 80.384C74.2024 79.724 74.9884 79.394 75.9604 79.394C76.9204 79.394 77.7004 79.724 78.3004 80.384C78.9004 81.032 79.2004 81.836 79.2004 82.796C79.2004 83.732 78.8944 84.53 78.2824 85.19ZM75.2044 83.804C75.4084 84.068 75.6604 84.2 75.9604 84.2C76.2604 84.2 76.5064 84.068 76.6984 83.804C76.9024 83.54 77.0044 83.198 77.0044 82.778C77.0044 82.37 76.9024 82.034 76.6984 81.77C76.5064 81.506 76.2544 81.374 75.9424 81.374C75.6184 81.374 75.3604 81.506 75.1684 81.77C74.9884 82.022 74.8984 82.364 74.8984 82.796C74.8984 83.192 75.0004 83.528 75.2044 83.804ZM67.5184 80.006C66.5584 80.006 65.7784 79.682 65.1784 79.034C64.5784 78.374 64.2784 77.564 64.2784 76.604C64.2784 75.656 64.5784 74.858 65.1784 74.21C65.7784 73.55 66.5644 73.22 67.5364 73.22C68.4964 73.22 69.2764 73.55 69.8764 74.21C70.4764 74.858 70.7764 75.662 70.7764 76.622C70.7764 77.57 70.4704 78.374 69.8584 79.034C69.2464 79.682 68.4664 80.006 67.5184 80.006ZM66.7804 77.63C66.9844 77.894 67.2364 78.026 67.5364 78.026C67.8364 78.026 68.0824 77.894 68.2744 77.63C68.4784 77.366 68.5804 77.024 68.5804 76.604C68.5804 76.208 68.4784 75.878 68.2744 75.614C68.0704 75.338 67.8184 75.2 67.5184 75.2C67.2064 75.2 66.9544 75.332 66.7624 75.596C66.5704 75.86 66.4744 76.202 66.4744 76.622C66.4744 77.03 66.5764 77.366 66.7804 77.63Z" fill="#1A1B26"/>
<path d="M59.5 38.125C59.5 39.5057 60.6193 40.625 62 40.625H72.6152C72.3517 47.3094 66.8294 52.625 60.0625 52.625C53.1364 52.625 47.5 46.9886 47.5 40.0625C47.5 33.2956 52.8156 27.7733 59.5 27.5098V38.125Z" stroke="#3246D3" stroke-width="3" stroke-linecap="round" stroke-linejoin="round"/>
<path d="M65.5 34.625V27.7006C66.9369 27.9585 68.5399 28.8643 69.9003 30.2247C71.2607 31.5851 72.1665 33.1881 72.4244 34.625H65.5Z" stroke="#FFA720" stroke-width="3" stroke-linecap="round" stroke-linejoin="round"/>
</svg>
