<svg width="41" height="37" viewBox="0 0 41 37" fill="none" xmlns="http://www.w3.org/2000/svg">
<path d="M6 9.5L22.7008 2.22015C24.0219 1.64429 25.5 2.6124 25.5 4.05354V9" stroke="#3246D3" stroke-width="3"/>
<path d="M34.5 15V14.5C34.5 11.7386 32.2614 9.49999 29.5 9.49999L6.5 9.5C3.73858 9.5 1.5 11.7386 1.5 14.5V30.5C1.5 33.2614 3.73858 35.5 6.5 35.5L29.5 35.5C32.2614 35.5 34.5 33.2614 34.5 30.5V29.75" stroke="#3246D3" stroke-width="3" stroke-linecap="round"/>
<rect x="30.5" y="19.5" width="9" height="6" rx="3" fill="white" stroke="#3246D3" stroke-width="3"/>
<path d="M16.5 17.5C16.5 15.8431 17.8431 14.5 19.5 14.5C21.1569 14.5 22.5 15.8431 22.5 17.5C22.5 19.1569 21.1569 20.5 19.5 20.5C17.8431 20.5 16.5 19.1569 16.5 17.5Z" stroke="#FFA720" stroke-width="3"/>
<path d="M6.5 26.5C6.5 24.8431 7.84315 23.5 9.5 23.5C11.1569 23.5 12.5 24.8431 12.5 26.5C12.5 28.1569 11.1569 29.5 9.5 29.5C7.84315 29.5 6.5 28.1569 6.5 26.5Z" stroke="#FFA720" stroke-width="3"/>
<path d="M9.5 24.5L9.5 19.5C9.5 18.3954 10.3954 17.5 11.5 17.5L16.5 17.5" stroke="#FFA720" stroke-width="3"/>
<circle cx="25.5" cy="30.5" r="1.5" fill="#3246D3"/>
</svg>
