<svg width="51" height="52" viewBox="0 0 51 52" fill="none" xmlns="http://www.w3.org/2000/svg">
<path d="M3.81755 16.5268C3.40092 16.5268 2.98429 16.3549 2.68295 16.0192C2.12677 15.3922 2.1834 14.4335 2.81036 13.8774C7.96564 9.29242 14.8319 7.40141 21.6659 8.68366C22.489 8.83939 23.031 9.6322 22.8773 10.4553C22.7216 11.2785 21.9308 11.8185 21.1056 11.6668C15.2081 10.5544 9.27014 12.1906 4.82474 16.1466C4.53755 16.4014 4.17755 16.5268 3.81755 16.5268Z" fill="#3246D3"/>
<path d="M1.77396 25.2482C1.47868 25.2482 1.17935 25.1613 0.916433 24.9813C0.224748 24.506 0.0508153 23.5615 0.526096 22.8718C5.36385 15.8478 14.0221 12.4622 22.0634 14.4523C22.8764 14.6525 23.3719 15.4757 23.1737 16.2887C22.9715 17.1037 22.1544 17.6073 21.3373 17.397C14.5034 15.7042 7.14767 18.6024 3.02789 24.5909C2.73261 25.0177 2.25935 25.2482 1.77396 25.2482Z" fill="#3246D3"/>
<path d="M13.3791 49.8105C12.9949 49.8105 12.6086 49.6649 12.3153 49.3737C12.0463 49.1108 6.0332 42.7737 6.0332 36.686C6.0332 30.3334 11.1581 25.166 17.4581 25.166C23.7581 25.166 29.6155 29.2339 29.6155 35.5865C29.6155 36.4238 28.936 37.1033 28.0987 37.1033C27.2614 37.1033 26.5818 36.4238 26.5818 35.5865C26.5818 30.9085 22.0856 28.1997 17.4581 28.1997C12.8307 28.1997 9.06691 32.006 9.06691 36.686C9.06691 41.5015 14.3904 47.1611 14.447 47.2157C15.0416 47.8063 15.0477 48.7649 14.4591 49.3615C14.1618 49.6588 13.7715 49.8105 13.3791 49.8105Z" fill="#3246D3"/>
<path d="M5.90847 46.5443C5.46757 46.5443 5.03072 46.3521 4.73139 45.984C2.34083 43.0413 1.07679 39.4959 1.45408 35.6772C1.45408 31.2095 3.3188 26.8996 6.56689 23.8538C9.82307 20.8039 14.0561 19.2911 18.5197 19.5722C20.793 19.7219 22.953 20.361 24.9451 21.4713C25.6772 21.8799 25.9381 22.8021 25.5316 23.5343C25.1251 24.2623 24.2028 24.5334 23.4667 24.1208C21.8709 23.2309 20.1397 22.7192 18.3195 22.5999C14.6952 22.3551 11.2772 23.5969 8.63992 26.0664C6.0006 28.5399 4.48577 32.0428 4.48577 35.6751C4.48577 38.7392 5.13791 41.6741 7.08353 44.0708C7.61342 44.72 7.51229 45.6746 6.86308 46.2045C6.58398 46.431 6.24622 46.5443 5.90847 46.5443Z" fill="#3246D3"/>
<path d="M22.0314 51.2607C19.0442 51.2607 12.3676 45.2126 11.6961 39.042C11.4595 36.8153 12.1491 34.6209 13.5851 33.0171C14.8572 31.5953 16.5844 30.8065 18.4512 30.7944C20.2006 30.7276 21.9541 31.4497 23.1878 32.6753C24.1646 33.644 25.3296 35.436 25.3296 38.4656C25.3296 40.1766 26.6988 41.5701 28.3815 41.5701C29.9085 41.5701 31.4536 40.4153 31.4536 38.2108C31.4536 35.8 30.8327 33.4297 29.6597 31.3465C29.4858 31.1018 29.3847 30.8025 29.3847 30.4829C29.3847 29.6456 30.0541 28.9661 30.8914 28.9661H30.9116C31.4557 28.9661 31.9552 29.2553 32.2242 29.7245C33.7026 32.293 34.4853 35.2256 34.4853 38.2088C34.4853 42.3609 31.3384 44.6018 28.3795 44.6018C25.0242 44.6018 22.2939 41.8492 22.2939 38.4636C22.2939 36.8921 21.8631 35.6342 21.05 34.8252C20.2107 33.9919 19.1793 33.8584 18.4694 33.8261C17.1891 33.8321 16.3357 34.4894 15.8462 35.0375C14.9927 35.9901 14.568 37.3654 14.7116 38.7164C15.2395 43.5663 20.7815 48.2269 22.0314 48.2269C22.8687 48.2269 23.5482 48.9065 23.5482 49.7438C23.5482 50.5811 22.8687 51.2607 22.0314 51.2607Z" fill="#3246D3"/>
<path d="M26.7629 48.4475C22.277 48.4475 16.8608 43.3084 16.8608 36.9275C16.8608 36.0902 17.5404 35.4106 18.3777 35.4106C19.215 35.4106 19.8945 36.0902 19.8945 36.9275C19.8945 41.6115 24.0507 45.4138 26.7629 45.4138C27.6002 45.4138 28.2797 46.0933 28.2797 46.9306C28.2797 47.7679 27.6002 48.4475 26.7629 48.4475Z" fill="#3246D3"/>
<path d="M38.7169 28.5068C38.5146 28.5068 38.3144 28.4663 38.1243 28.3854C37.653 28.1852 26.582 23.3657 26.582 13.4475V5.32116C26.582 4.67195 26.9946 4.09554 27.6115 3.88521L38.2294 0.273072C38.545 0.163859 38.8888 0.163859 39.2043 0.273072L49.8223 3.88521C50.4391 4.09352 50.8517 4.66993 50.8517 5.32116V13.4475C50.8517 23.3657 39.7807 28.1872 39.3094 28.3875C39.1193 28.4663 38.9191 28.5068 38.7169 28.5068ZM29.6157 6.40723V13.4475C29.6157 20.2187 36.6034 24.2495 38.7148 25.3113C40.8223 24.2434 47.818 20.1924 47.818 13.4475V6.40723L38.7169 3.31083L29.6157 6.40723Z" fill="#FFA720"/>
<path d="M38.2107 19.4082C37.8103 19.4082 37.4219 19.2484 37.1388 18.9632L33.0939 14.9183C32.5013 14.3257 32.5013 13.365 33.0939 12.7725C33.6864 12.1799 34.6471 12.1799 35.2397 12.7725L38.0489 15.5817L43.0646 8.89134C43.5622 8.22392 44.5148 8.08437 45.1882 8.58797C45.8577 9.09156 45.9932 10.0421 45.4896 10.7116L39.4222 18.8014C39.1592 19.1534 38.7568 19.3738 38.3159 19.4041C38.2815 19.4082 38.2471 19.4082 38.2107 19.4082Z" fill="#FFA720"/>
</svg>
