<svg width="92" height="146" viewBox="0 0 92 146" fill="none" xmlns="http://www.w3.org/2000/svg">
<ellipse cx="-2.5" cy="73" rx="71" ry="18.5" transform="rotate(90 -2.5 73)" stroke="#EEF1FC" stroke-width="4"/>
<ellipse cx="34.5" cy="73" rx="71" ry="18.5" transform="rotate(90 34.5 73)" stroke="#EEF1FC" stroke-width="4"/>
<path fill-rule="evenodd" clip-rule="evenodd" d="M51 73C51 92.7255 53.0812 110.653 56.4831 123.709C58.1802 130.222 60.2346 135.636 62.5961 139.469C64.889 143.191 67.8425 146 71.5 146C75.1575 146 78.111 143.191 80.4038 139.469C82.7654 135.636 84.8198 130.222 86.5169 123.709C89.9188 110.653 92 92.7255 92 73L88 73C88 92.4868 85.9399 110.059 82.6461 122.7C80.9953 129.036 79.0633 134.019 76.9982 137.371C74.8645 140.835 72.9511 142 71.5 142C70.0489 142 68.1355 140.835 66.0018 137.371C63.9367 134.019 62.0047 129.036 60.3539 122.7C57.0601 110.059 55 92.4868 55 73L51 73Z" fill="#EEF1FC"/>
</svg>
