<svg width="40" height="25" viewBox="0 0 40 25" fill="none" xmlns="http://www.w3.org/2000/svg">
<rect x="1.5" y="1.5" width="37" height="22" rx="3.5" stroke="#3246D3" stroke-width="3"/>
<path d="M12.3761 6.64465H8.56124C7.52424 6.64465 6.68359 7.4853 6.68359 8.5223C6.68359 9.5593 7.52424 10.3999 8.56124 10.3999H12.3762C13.4132 10.3999 14.2538 9.5593 14.2538 8.5223C14.2538 7.4853 13.4132 6.64465 12.3761 6.64465Z" fill="#FFA720"/>
<path d="M21.9133 6.64465H18.0983C17.0614 6.64465 16.2207 7.4853 16.2207 8.5223C16.2207 9.5593 17.0614 10.3999 18.0983 10.3999H21.9133C22.9503 10.3999 23.7909 9.5593 23.7909 8.5223C23.7909 7.4853 22.9504 6.64465 21.9133 6.64465Z" fill="#FFA720"/>
<path d="M31.4504 6.64465H27.6355C26.5985 6.64465 25.7578 7.4853 25.7578 8.5223C25.7578 9.5593 26.5985 10.3999 27.6355 10.3999H31.4504C32.4874 10.3999 33.328 9.5593 33.328 8.5223C33.328 7.4853 32.4874 6.64465 31.4504 6.64465Z" fill="#FFA720"/>
</svg>
