<svg width="45" height="45" viewBox="0 0 45 45" fill="none" xmlns="http://www.w3.org/2000/svg">
<path d="M7.5 13.5L24.2008 6.22015C25.5219 5.64429 27 6.6124 27 8.05354V13" stroke="#3246D3" stroke-width="3"/>
<path d="M36 19V18.5C36 15.7386 33.7614 13.5 31 13.5L8 13.5C5.23858 13.5 3 15.7386 3 18.5V34.5C3 37.2614 5.23858 39.5 8 39.5L31 39.5C33.7614 39.5 36 37.2614 36 34.5V33.75" stroke="#3246D3" stroke-width="3" stroke-linecap="round"/>
<rect x="32" y="23.5" width="9" height="6" rx="3" fill="white" stroke="#3246D3" stroke-width="3"/>
<path d="M18 21.5C18 19.8431 19.3431 18.5 21 18.5C22.6569 18.5 24 19.8431 24 21.5C24 23.1569 22.6569 24.5 21 24.5C19.3431 24.5 18 23.1569 18 21.5Z" stroke="#FFA720" stroke-width="3"/>
<path d="M8 30.5C8 28.8431 9.34315 27.5 11 27.5C12.6569 27.5 14 28.8431 14 30.5C14 32.1569 12.6569 33.5 11 33.5C9.34315 33.5 8 32.1569 8 30.5Z" stroke="#FFA720" stroke-width="3"/>
<path d="M11 28.5L11 23.5C11 22.3954 11.8954 21.5 13 21.5L18 21.5" stroke="#FFA720" stroke-width="3"/>
<circle cx="27" cy="34.5" r="1.5" fill="#3246D3"/>
</svg>
