<svg width="40" height="40" viewBox="0 0 40 40" fill="none" xmlns="http://www.w3.org/2000/svg">
<g clip-path="url(#clip0)">
<path d="M34.6024 6.67542H5.39765C2.42135 6.67542 0 9.09677 0 12.0731V27.927C0 30.9033 2.42135 33.3246 5.39765 33.3246H34.6024C37.5786 33.3246 40 30.9033 40 27.927V12.0731C40 9.09677 37.5786 6.67542 34.6024 6.67542ZM5.39765 9.96094H34.6024C35.767 9.96094 36.7145 10.9084 36.7145 12.0731V13.3507H3.28552V12.0731C3.28552 10.9084 4.23301 9.96094 5.39765 9.96094ZM34.6024 30.0391H5.39765C4.23301 30.0391 3.28552 29.0916 3.28552 27.927V16.6363H36.7145V27.927C36.7145 29.0916 35.767 30.0391 34.6024 30.0391Z" fill="#3246D3"/>
<path d="M9.98684 20.8605H7.48358C6.57631 20.8605 5.84082 21.596 5.84082 22.5032C5.84082 23.4105 6.57631 24.146 7.48358 24.146H9.98684C10.8941 24.146 11.6296 23.4105 11.6296 22.5032C11.6296 21.596 10.8941 20.8605 9.98684 20.8605Z" fill="#FFA720"/>
</g>
<defs>
<clipPath id="clip0">
<rect width="40" height="40" fill="white"/>
</clipPath>
</defs>
</svg>
