<svg width="40" height="40" viewBox="0 0 40 40" fill="none" xmlns="http://www.w3.org/2000/svg">
<path fill-rule="evenodd" clip-rule="evenodd" d="M28.8976 20.4788L20.5964 15.6109C19.8413 15.1681 19.5588 14.2157 19.9502 13.4327C20.3805 12.5722 21.449 12.2552 22.2788 12.7419L30.3883 17.4974C32.2913 18.4489 33.2051 20.655 32.5323 22.6735C31.7095 25.1418 28.8913 26.3091 26.5642 25.1455L22.5879 23.1574C21.7646 22.7457 21.4309 21.7446 21.8426 20.9213C22.2542 20.098 23.2553 19.7643 24.0786 20.1759L28.0549 22.1641C28.5677 22.4205 29.1887 22.1633 29.37 21.6194C29.5182 21.1746 29.3169 20.6885 28.8976 20.4788Z" fill="#FFA720"/>
<path fill-rule="evenodd" clip-rule="evenodd" d="M14.3184 13.3333L10.6062 29.4196C10.4648 30.0322 10.6802 30.6722 11.1632 31.0747L15.5997 34.7718C16.2178 35.2869 17.1156 35.2869 17.7336 34.7718L22.1702 31.0747C22.6531 30.6722 22.8685 30.0322 22.7272 29.4196L19.015 13.3333H14.3184ZM21.9648 11.2919C21.7903 10.5357 21.1169 10 20.3408 10H12.9925C12.2164 10 11.543 10.5357 11.3685 11.2919L7.35819 28.6701C6.93407 30.5079 7.58025 32.428 9.02922 33.6355L13.4657 37.3326C15.32 38.8778 18.0134 38.8778 19.8676 37.3326L24.3041 33.6355C25.7531 32.428 26.3993 30.5079 25.9751 28.6701L21.9648 11.2919Z" fill="#3246D3"/>
<path fill-rule="evenodd" clip-rule="evenodd" d="M20.6574 3.33333H12.6759C12.1186 3.33333 11.5982 3.61184 11.2891 4.0755L11.1953 4.21626C10.838 4.75217 10.8215 5.44596 11.1529 5.99826L13.0684 9.19083C13.3696 9.69284 13.9121 10 14.4976 10H18.8357C19.4211 10 19.9636 9.69284 20.2648 9.19083L22.1804 5.99826C22.5117 5.44596 22.4952 4.75217 22.138 4.21626L22.0441 4.0755C21.735 3.61184 21.2146 3.33333 20.6574 3.33333ZM12.6759 0C11.0041 0 9.44295 0.835505 8.51562 2.2265L8.42178 2.36726C7.34997 3.97498 7.30044 6.05637 8.29457 7.71324L10.2101 10.9058C11.1137 12.4118 12.7413 13.3333 14.4976 13.3333H18.8357C20.592 13.3333 22.2195 12.4118 23.1231 10.9058L25.0387 7.71324C26.0328 6.05636 25.9833 3.97498 24.9115 2.36726L24.8176 2.2265C23.8903 0.835505 22.3291 0 20.6574 0H12.6759Z" fill="#3246D3"/>
</svg>
