<svg width="90" height="90" viewBox="0 0 90 90" fill="none" xmlns="http://www.w3.org/2000/svg">
<rect width="90" height="90" rx="28" fill="white"/>
<path d="M44 32H31C26.0294 32 22 36.0294 22 41V55C22 59.9706 26.0294 64 31 64H59C63.9706 64 68 59.9706 68 55V49" stroke="#3246D3" stroke-width="3" stroke-linecap="round"/>
<path d="M28 42.5C28 41.6716 28.6716 41 29.5 41H48.1972C48.6988 41 49.1671 41.2507 49.4453 41.6679C50.1099 42.6648 49.3953 44 48.1972 44H29.5C28.6716 44 28 43.3284 28 42.5Z" fill="#3246D3"/>
<rect x="54" y="52" width="8" height="3" rx="1.5" fill="#3246D3"/>
<circle cx="30.5" cy="53.5" r="2.5" fill="#3246D3"/>
<circle cx="33.5" cy="53.5" r="2.5" fill="#3246D3"/>
<circle cx="62" cy="32" r="12.5" fill="white" stroke="#FFA720" stroke-width="3"/>
<path d="M61.6287 37.1233C61.2282 37.1233 60.8399 36.9635 60.5568 36.6783L56.5118 32.6334C55.9192 32.0408 55.9192 31.0801 56.5118 30.4875C57.1044 29.895 58.0651 29.895 58.6577 30.4875L61.4669 33.2968L65.4826 27.6064C65.9801 26.939 66.9327 26.7995 67.6062 27.3031C68.2756 27.8066 68.4111 28.7572 67.9076 29.4266L62.8401 36.5165C62.5772 36.8684 62.1747 37.0889 61.7338 37.1192C61.6995 37.1233 61.6651 37.1233 61.6287 37.1233Z" fill="#FFA720"/>
</svg>
