<svg width="90" height="90" viewBox="0 0 90 90" fill="none" xmlns="http://www.w3.org/2000/svg">
<rect width="90" height="90" rx="28" fill="white" fill-opacity="0.5"/>
<path d="M26.8175 32.1494C26.4008 32.1494 25.9842 31.9775 25.6829 31.6418C25.1267 31.0148 25.1833 30.0562 25.8103 29.5C30.9656 24.9151 37.8318 23.024 44.6658 24.3063C45.4889 24.462 46.0309 25.2548 45.8772 26.078C45.7215 26.9011 44.9307 27.4411 44.1056 27.2894C38.208 26.1771 32.27 27.8133 27.8247 31.7692C27.5375 32.024 27.1775 32.1494 26.8175 32.1494Z" fill="#3246D3"/>
<path d="M24.7739 41.796C24.4786 41.796 24.1793 41.709 23.9163 41.529C23.2247 41.0537 23.0507 40.1092 23.526 39.4195C28.3638 32.3955 37.022 29.0099 45.0633 31C45.8763 31.2002 46.3718 32.0234 46.1736 32.8364C45.9714 33.6515 45.1543 34.1551 44.3372 33.9447C37.5033 32.2519 30.1476 35.1501 26.0278 41.1386C25.7325 41.5654 25.2593 41.796 24.7739 41.796Z" fill="#3246D3"/>
<path d="M35.3791 66.8104C34.9948 66.8104 34.6085 66.6648 34.3153 66.3736C34.0463 66.1106 29.0332 59.7735 29.0332 53.6859C29.0332 47.3333 34.1581 42.1659 40.4581 42.1659C46.7581 42.1659 51.6155 46.5 51.6155 51.5864C51.6155 52.4237 50.936 53.1032 50.0987 53.1032C49.2614 53.1032 48.5818 52.4237 48.5818 51.5864C48.5818 48.5 45.0855 45.1996 40.4581 45.1996C35.8307 45.1996 32.0669 49.0059 32.0669 53.6859C32.0669 58.5014 36.3903 64.161 36.447 64.2156C37.0416 64.8061 37.0476 65.7648 36.4591 66.3614C36.1618 66.6587 35.7715 66.8104 35.3791 66.8104Z" fill="#3246D3"/>
<path d="M27.9081 63.5441C27.4672 63.5441 27.0303 63.3519 26.731 62.9839C24.3404 60.0412 23.0764 56.4958 23.4537 52.677C23.4537 48.2093 26.3184 43.8995 29.5665 40.8536C32.8227 37.8037 37.0557 36.2909 41.5193 36.572C43.7926 36.7217 45.9526 37.3608 47.9447 38.4711C48.6768 38.8797 48.9377 39.8019 48.5312 40.5341C48.1247 41.2622 47.2025 41.5332 46.4663 41.1206C44.8706 40.2307 43.1393 39.719 41.3191 39.5997C37.6948 39.355 34.2768 40.5968 31.6395 43.0662C29.0002 45.5397 26.4854 49.0426 26.4854 52.675C26.4854 55.739 27.1375 58.674 29.0831 61.0706C29.613 61.7198 29.5119 62.6744 28.8627 63.2043C28.5836 63.4308 28.2458 63.5441 27.9081 63.5441Z" fill="#3246D3"/>
<path d="M45.0003 65.5337C42.0131 65.5337 35.6561 62.4962 34.9847 56.3256C34.748 54.0989 34.8199 51.8265 36.2558 50.2227C37.528 48.8009 39.1149 48.0058 40.9816 47.9936C42.7311 47.9269 43.7975 48.2744 45.0312 49.5C46.0081 50.4688 47.1069 52.4732 47.0356 55.502C47.0003 57 49.6987 58.5699 51.3814 58.5699C52.9084 58.5699 54.4535 57.4151 54.4535 55.2106C54.4535 52.7998 54.4484 50.9403 53.2754 48.8572C53.1014 48.6125 53.0003 48.3132 53.0003 47.9936C53.0003 47.1563 53.6697 46.4768 54.507 46.4768H54.5273C55.0713 46.4768 55.5709 46.766 55.8399 47.2352C57.3183 49.8037 57.4852 52.2255 57.4852 55.2086C57.4852 59.3607 54.3382 61.6016 51.3794 61.6016C48.0241 61.6016 43.9998 58.8856 43.9998 55.5C43.9998 53.9286 43.7065 52.4589 42.8935 51.6499C42.0542 50.8166 41.7097 51.0577 40.9998 51.0253C39.7196 51.0314 39.0064 51.6951 38.517 52.2432C37.6635 53.1958 37.8566 54.649 38.0002 56C38.528 60.8499 43.7504 62.5 45.0003 62.5C45.8376 62.5 46.5172 63.1796 46.5172 64.0169C46.5172 64.8542 45.8376 65.5337 45.0003 65.5337Z" fill="#3246D3"/>
<path d="M61.7166 45.5067C61.5144 45.5067 61.3142 45.4663 61.1241 45.3854C60.6528 45.1851 49.5818 40.3656 49.5818 30.4474V22.3211C49.5818 21.6719 49.9944 21.0955 50.6113 20.8851L61.2292 17.273C61.5447 17.1638 61.8886 17.1638 62.2041 17.273L72.822 20.8851C73.4389 21.0935 73.8515 21.6699 73.8515 22.3211V30.4474C73.8515 40.3656 62.7805 45.1872 62.3092 45.3874C62.1191 45.4663 61.9189 45.5067 61.7166 45.5067ZM52.6155 23.4072V30.4474C52.6155 37.2186 59.6032 41.2494 61.7146 42.3112C63.822 41.2433 70.8178 37.1923 70.8178 30.4474V23.4072L61.7166 20.3108L52.6155 23.4072Z" fill="#FFA720"/>
<path d="M61.2105 36.4082C60.8101 36.4082 60.4218 36.2484 60.1386 35.9632L56.0937 31.9183C55.5011 31.3257 55.5011 30.365 56.0937 29.7725C56.6863 29.1799 57.6469 29.1799 58.2395 29.7725L61.0487 32.5817L66.0645 25.8913C66.562 25.2239 67.5146 25.0844 68.1881 25.588C68.8575 26.0916 68.993 27.0421 68.4894 27.7116L62.422 35.8014C62.1591 36.1534 61.7566 36.3738 61.3157 36.4041C61.2813 36.4082 61.2469 36.4082 61.2105 36.4082Z" fill="#FFA720"/>
</svg>
