<svg width="90" height="90" viewBox="0 0 90 90" fill="none" xmlns="http://www.w3.org/2000/svg">
<rect width="90" height="90" rx="28" fill="white" fill-opacity="0.5"/>
<path d="M24 37.5C24 36.6716 24.6716 36 25.5 36H43.5C44.3284 36 45 36.6716 45 37.5C45 38.3284 44.3284 39 43.5 39H25.5C24.6716 39 24 38.3284 24 37.5Z" fill="#3246D3"/>
<rect x="24" y="47" width="40" height="3" rx="1.5" fill="#3246D3"/>
<rect x="24" y="58" width="40" height="3" rx="1.5" fill="#3246D3"/>
<g filter="url(#filter0_b)">
<circle cx="32.5" cy="37.5" r="3.5" fill="white" fill-opacity="0.9"/>
<circle cx="32.5" cy="37.5" r="3.5" stroke="#3246D3" stroke-width="3"/>
</g>
<g filter="url(#filter1_b)">
<circle cx="53.5" cy="48.5" r="3.5" fill="white" fill-opacity="0.9"/>
<circle cx="53.5" cy="48.5" r="3.5" stroke="#3246D3" stroke-width="3"/>
</g>
<g filter="url(#filter2_b)">
<circle cx="39.5" cy="59.5" r="3.5" fill="white" fill-opacity="0.9"/>
<circle cx="39.5" cy="59.5" r="3.5" stroke="#3246D3" stroke-width="3"/>
</g>
<path d="M49 31V31C54.0603 21.301 67.9397 21.301 73 31V31" stroke="#FFA720" stroke-width="3" stroke-linecap="round" stroke-linejoin="round"/>
<path d="M73 31V31C67.9397 40.699 54.0603 40.699 49 31V31" stroke="#FFA720" stroke-width="3" stroke-linecap="round" stroke-linejoin="round"/>
<circle cx="61" cy="31" r="4" stroke="#FFA720" stroke-width="3"/>
<defs>
<filter id="filter0_b" x="-72.5" y="-67.5" width="210" height="210" filterUnits="userSpaceOnUse" color-interpolation-filters="sRGB">
<feFlood flood-opacity="0" result="BackgroundImageFix"/>
<feGaussianBlur in="BackgroundImage" stdDeviation="50"/>
<feComposite in2="SourceAlpha" operator="in" result="effect1_backgroundBlur"/>
<feBlend mode="normal" in="SourceGraphic" in2="effect1_backgroundBlur" result="shape"/>
</filter>
<filter id="filter1_b" x="-51.5" y="-56.5" width="210" height="210" filterUnits="userSpaceOnUse" color-interpolation-filters="sRGB">
<feFlood flood-opacity="0" result="BackgroundImageFix"/>
<feGaussianBlur in="BackgroundImage" stdDeviation="50"/>
<feComposite in2="SourceAlpha" operator="in" result="effect1_backgroundBlur"/>
<feBlend mode="normal" in="SourceGraphic" in2="effect1_backgroundBlur" result="shape"/>
</filter>
<filter id="filter2_b" x="-65.5" y="-45.5" width="210" height="210" filterUnits="userSpaceOnUse" color-interpolation-filters="sRGB">
<feFlood flood-opacity="0" result="BackgroundImageFix"/>
<feGaussianBlur in="BackgroundImage" stdDeviation="50"/>
<feComposite in2="SourceAlpha" operator="in" result="effect1_backgroundBlur"/>
<feBlend mode="normal" in="SourceGraphic" in2="effect1_backgroundBlur" result="shape"/>
</filter>
</defs>
</svg>
