<svg width="20" height="20" viewBox="0 0 20 20" fill="none" xmlns="http://www.w3.org/2000/svg">
<path d="M0.649456 19.1346H3.24949C3.60819 19.1346 3.89895 18.8438 3.89895 18.4851V7.1204C3.89895 6.76167 3.60819 6.47095 3.24949 6.47095H0.649456C0.290718 6.47095 0 6.76167 0 7.1204V18.4851C0 18.8438 0.290718 19.1346 0.649456 19.1346Z" fill="#6F717C"/>
<path d="M0.649456 4.47299H3.24949C3.60819 4.47299 3.89895 4.18224 3.89895 3.82353V1.51469C3.89895 1.15599 3.60819 0.865234 3.24949 0.865234H0.649456C0.290718 0.865234 0 1.15599 0 1.51469V3.82353C0 4.18224 0.290718 4.47299 0.649456 4.47299Z" fill="#6F717C"/>
<path d="M19.0218 7.78915C18.6565 7.30823 18.1177 6.91273 17.4054 6.60273C16.693 6.29294 15.9067 6.13794 15.0465 6.13794C13.3 6.13794 11.8202 6.80444 10.607 8.13769C10.3656 8.40297 10.1901 8.34497 10.1901 7.98623V7.12045C10.1901 6.76171 9.89932 6.47099 9.54062 6.47099H7.21806C6.85932 6.47099 6.5686 6.76171 6.5686 7.12045V18.4851C6.5686 18.8438 6.85936 19.1346 7.21806 19.1346H9.81809C10.1768 19.1346 10.4675 18.8438 10.4675 18.4851V14.5328C10.4675 12.8862 10.567 11.7576 10.7658 11.1471C10.9646 10.5367 11.3324 10.0464 11.8689 9.67641C12.4055 9.30638 13.0113 9.12128 13.6867 9.12128C14.2139 9.12128 14.6649 9.25081 15.0396 9.5099C15.4143 9.76896 15.6849 10.1319 15.8514 10.5991C16.018 11.0663 16.1012 12.0954 16.1012 13.6865V18.4851C16.1012 18.8438 16.3919 19.1346 16.7506 19.1346H19.3506C19.7093 19.1346 20 18.8438 20 18.4851V12.0491C20 10.9114 19.9283 10.0371 19.7851 9.42665C19.6419 8.81616 19.3874 8.27033 19.0218 7.78915Z" fill="#6F717C"/>
</svg>
