<svg width="27" height="27" viewBox="0 0 27 27" fill="none" xmlns="http://www.w3.org/2000/svg">
<circle opacity="0.1" cx="13.5" cy="13.5" r="13.5" fill="#FF4040"/>
<path fill-rule="evenodd" clip-rule="evenodd" d="M9.43957 15.8033C8.85378 16.3891 8.85378 17.3388 9.43957 17.9246C10.0254 18.5104 10.9751 18.5104 11.5609 17.9246L13.6816 15.8039L15.8033 17.9255C16.3891 18.5113 17.3388 18.5113 17.9246 17.9255C18.5104 17.3397 18.5104 16.39 17.9246 15.8042L15.803 13.6825L17.9248 11.5607C18.5106 10.9749 18.5106 10.0251 17.9248 9.43934C17.3391 8.85355 16.3893 8.85355 15.8035 9.43934L13.6816 11.5612L11.5607 9.44025C10.9749 8.85446 10.0251 8.85446 9.43934 9.44025C8.85355 10.026 8.85355 10.9758 9.43934 11.5616L11.5603 13.6825L9.43957 15.8033Z" fill="#FF4040"/>
</svg>
