<?xml version="1.0" encoding="UTF-8"?>
<svg xmlns="http://www.w3.org/2000/svg" xmlns:xlink="http://www.w3.org/1999/xlink" width="595pt" height="323.7pt" viewBox="0 0 595 323.7" version="1.1">
<g id="surface1">
<path style=" stroke:none;fill-rule:evenodd;fill:rgb(5.883789%,74.804688%,56.443787%);fill-opacity:1;" d="M -137.871094 17.964844 C -98.132813 0.355469 -50.941406 0.453125 -11.300781 18.324219 C 12.636719 28.984375 33.738281 45.855469 49.546875 66.746094 C 47.617188 69.675781 45.628906 72.566406 43.65625 75.464844 C 28.039063 98.925781 19.457031 126.804688 18.328125 154.914063 C 17.109375 187.714844 26.257813 221.015625 44.859375 248.136719 C 46.449219 250.425781 48.027344 252.703125 49.589844 255.003906 C 31.476563 279.066406 6.257813 297.703125 -22.101563 307.84375 C -51.921875 318.59375 -85.042969 319.90625 -115.652344 311.683594 C -148.050781 303.074219 -177.382813 283.542969 -197.972656 257.113281 C -216.832031 233.125 -228.402344 203.476563 -230.613281 173.042969 C -233.132813 142.035156 -226.050781 110.304688 -210.511719 83.335938 C -194.074219 54.566406 -168.242188 31.246094 -137.871094 17.964844 Z M 630.117188 9.496094 C 668.046875 -0.015625 709.566406 5.074219 743.757813 24.195313 C 768.457031 37.773438 789.289063 58.234375 803.429688 82.605469 C 817.066406 106.246094 824.769531 133.554688 824.136719 160.914063 C 824.738281 185.042969 818.71875 209.136719 808.027344 230.703125 C 794.148438 258.566406 771.667969 282.035156 744.507813 297.234375 C 715.769531 313.433594 681.796875 319.882813 649.089844 315.84375 C 607.707031 310.925781 568.539063 288.503906 543.828125 254.886719 C 553.589844 241.394531 561.796875 226.703125 566.976563 210.835938 C 579.117188 174.835938 577.597656 134.445313 562.566406 99.535156 C 557.859375 87.785156 550.929688 77.144531 543.796875 66.746094 C 564.949219 38.585938 595.949219 18.003906 630.117188 9.496094 Z M 121.886719 13.753906 C 150.027344 3.734375 181.066406 2.195313 210.136719 8.953125 C 244.066406 16.90625 275.117188 36.675781 296.617188 64.105469 C 318.457031 36.476563 349.796875 16.484375 384.1875 8.734375 C 420.328125 0.484375 459.398438 5.375 492.148438 22.855469 C 512.238281 33.566406 530.109375 48.585938 543.71875 66.863281 C 525.816406 90.894531 514.617188 120.023438 512.816406 149.996094 C 509.828125 187.234375 521.398438 225.15625 543.746094 255.015625 C 523.816406 281.445313 495.308594 301.292969 463.527344 310.613281 C 420.199219 323.605469 371.296875 316.605469 333.609375 291.503906 C 319.546875 282.375 307.136719 270.804688 296.667969 257.746094 C 275.917969 284.023438 246.558594 303.375 214.15625 311.875 C 188.769531 318.566406 161.6875 318.683594 136.207031 312.382813 C 101.949219 303.835938 70.6875 283.304688 49.65625 254.914063 C 72.4375 224.574219 83.847656 185.804688 80.335938 147.976563 C 78.238281 118.703125 67.109375 90.34375 49.628906 66.855469 C 67.71875 42.503906 93.335938 23.925781 121.886719 13.753906 Z M 121.886719 13.753906 "/>
<path style=" stroke:none;fill-rule:evenodd;fill:rgb(0.392151%,56.054688%,40.380859%);fill-opacity:1;" d="M 288.246094 76.046875 C 290.847656 72.023438 293.488281 67.984375 296.816406 64.515625 C 316.726563 89.613281 328.359375 121.003906 329.9375 152.976563 C 331.929688 190.214844 320.089844 228.164063 296.757813 257.335938 C 290.4375 250.09375 285.507813 241.703125 280.9375 233.285156 C 263.996094 201.253906 258.996094 163.203125 266.726563 127.855469 C 270.617188 109.453125 277.976563 91.792969 288.246094 76.046875 Z M 49.546875 66.746094 L 49.628906 66.855469 C 67.109375 90.34375 78.238281 118.703125 80.335938 147.976563 C 83.847656 185.804688 72.4375 224.574219 49.65625 254.914063 L 49.589844 255.003906 C 48.027344 252.703125 46.449219 250.425781 44.859375 248.136719 C 26.257813 221.015625 17.109375 187.714844 18.328125 154.914063 C 19.457031 126.804688 28.039063 98.925781 43.65625 75.464844 C 45.628906 72.566406 47.617188 69.675781 49.546875 66.746094 Z M 543.71875 66.863281 L 543.796875 66.746094 C 550.929688 77.144531 557.859375 87.785156 562.566406 99.535156 C 577.597656 134.445313 579.117188 174.835938 566.976563 210.835938 C 561.796875 226.703125 553.589844 241.394531 543.828125 254.886719 L 543.746094 255.015625 C 521.398438 225.15625 509.828125 187.234375 512.816406 149.996094 C 514.617188 120.023438 525.816406 90.894531 543.71875 66.863281 Z M 543.71875 66.863281 "/>
<path style=" stroke:none;fill-rule:evenodd;fill:rgb(99.609375%,99.609375%,99.609375%);fill-opacity:1;" d="M 599.648438 85.984375 C 614.277344 86.035156 628.917969 85.792969 643.558594 86.105469 C 663.957031 120.976563 684.648438 155.683594 705.386719 190.363281 C 705.417969 155.574219 705.429688 120.796875 705.386719 86.015625 C 716.148438 85.894531 726.898438 86.015625 737.65625 85.964844 C 737.539063 136.066406 737.769531 186.164063 737.539063 236.265625 C 723.507813 236.074219 709.46875 236.285156 695.4375 236.15625 C 674.296875 200.542969 653.167969 164.933594 631.929688 129.386719 C 631.738281 165.003906 631.957031 200.613281 631.816406 236.234375 C 621.097656 236.132813 610.378906 236.203125 599.65625 236.195313 C 599.65625 186.125 599.6875 136.054688 599.648438 85.984375 Z M 417.40625 130.144531 C 411.808594 145.566406 405.738281 160.824219 400.058594 176.226563 C 411.726563 176.214844 423.398438 176.175781 435.078125 176.234375 C 429.277344 160.835938 423.347656 145.484375 417.40625 130.144531 Z M 405.027344 85.984375 C 413.957031 85.964844 422.886719 85.90625 431.816406 86.035156 C 452.816406 136.136719 474.039063 186.136719 495.117188 236.195313 C 482.917969 236.125 470.71875 236.304688 458.519531 236.113281 C 454.507813 225.523438 450.21875 215.046875 446.15625 204.464844 C 427.398438 204.414063 408.628906 204.433594 389.859375 204.453125 C 385.835938 215.015625 381.71875 225.542969 377.839844 236.15625 C 365.917969 236.246094 353.996094 236.15625 342.089844 236.195313 C 363.046875 186.113281 384.089844 136.074219 405.027344 85.984375 Z M 152.15625 174.203125 C 152.097656 185.476563 152.066406 196.734375 152.167969 208.003906 C 161.828125 207.914063 171.496094 207.984375 181.167969 207.976563 C 186.546875 207.984375 192.148438 206.664063 196.40625 203.265625 C 202.988281 198.015625 204.277344 186.914063 198.367188 180.714844 C 193.308594 175.765625 185.898438 174.574219 179.117188 174.234375 C 170.128906 174.125 161.136719 174.214844 152.15625 174.203125 Z M 152.078125 114.234375 C 152.179688 124.796875 152.039063 135.363281 152.15625 145.925781 C 159.808594 145.996094 167.46875 145.953125 175.128906 145.976563 C 180.058594 145.996094 185.199219 145.015625 189.308594 142.136719 C 196.828125 137.023438 197.578125 124.34375 190.257813 118.726563 C 185.726563 115.195313 179.757813 114.304688 174.167969 114.195313 C 166.808594 114.183594 159.4375 114.164063 152.078125 114.234375 Z M 119.859375 86.003906 C 134.269531 85.90625 148.6875 85.996094 163.109375 85.964844 C 176.039063 86.003906 189.238281 85.605469 201.777344 89.304688 C 209.429688 91.59375 216.957031 95.664063 221.558594 102.394531 C 226.527344 109.453125 227.996094 118.394531 227.546875 126.863281 C 227.046875 134.734375 223.957031 142.515625 218.308594 148.085938 C 213.917969 152.574219 208.226563 155.484375 202.378906 157.585938 C 213.339844 158.894531 223.746094 165.113281 229.339844 174.734375 C 237.816406 189.703125 235.839844 210.804688 222.777344 222.585938 C 212.046875 232.246094 197.179688 235.585938 183.117188 236.175781 C 162.046875 236.234375 140.96875 236.144531 119.898438 236.214844 C 119.859375 186.144531 119.9375 136.074219 119.859375 86.003906 Z M -91.371094 85.984375 C -80.292969 85.945313 -69.210938 85.964844 -58.132813 85.976563 C -58.160156 136.054688 -58.09375 186.136719 -58.160156 236.203125 C -69.222656 236.175781 -80.28125 236.183594 -91.34375 236.203125 C -91.402344 186.136719 -91.332031 136.054688 -91.371094 85.984375 Z M -91.371094 85.984375 "/>
</g>
</svg>
