<?xml version="1.0" encoding="UTF-8"?>
<svg width="60px" height="60px" viewBox="0 0 60 60" version="1.1" xmlns="http://www.w3.org/2000/svg" xmlns:xlink="http://www.w3.org/1999/xlink">
    <!-- Generator: Sketch 50.2 (55047) - http://www.bohemiancoding.com/sketch -->
    <title>analytics</title>
    <desc>Created with Sketch.</desc>
    <defs></defs>
    <g id="Symbols" stroke="none" stroke-width="1" fill="none" fill-rule="evenodd">
        <g id="analytics" fill="#EA1A3C" fill-rule="nonzero">
            <g>
                <polygon id="Rectangle-path" points="27.0967742 45.483871 29.0322581 45.483871 29.0322581 50.3870968 27.0967742 50.3870968"></polygon>
                <path d="M55.1612903,0 L31.9354839,0 C29.2674194,0 27.0967742,2.17064516 27.0967742,4.83870968 L27.0967742,34.8387097 L29.0322581,34.8387097 L29.0322581,7.74193548 L58.0645161,7.74193548 L58.0645161,50.3870968 L60,50.3870968 L60,4.83870968 C60,2.17064516 57.8293548,0 55.1612903,0 Z M58.0645161,5.80645161 L29.0322581,5.80645161 L29.0322581,4.83870968 C29.0322581,3.23806452 30.3348387,1.93548387 31.9354839,1.93548387 L55.1612903,1.93548387 C56.7619355,1.93548387 58.0645161,3.23806452 58.0645161,4.83870968 L58.0645161,5.80645161 Z" id="Shape"></path>
                <path d="M27.0967742,55.1612903 C27.0967742,57.8293548 29.2674194,60 31.9354839,60 L55.1612903,60 C57.8293548,60 60,57.8293548 60,55.1612903 L60,50.3225806 L27.0967742,50.3225806 L27.0967742,55.1612903 Z M29.0322581,52.2580645 L58.0645161,52.2580645 L58.0645161,55.1612903 C58.0645161,56.7619355 56.7619355,58.0645161 55.1612903,58.0645161 L31.9354839,58.0645161 C30.3348387,58.0645161 29.0322581,56.7619355 29.0322581,55.1612903 L29.0322581,52.2580645 Z" id="Shape"></path>
                <rect id="Rectangle-path" x="38.7096774" y="54.1935484" width="9.67741935" height="1.93548387"></rect>
                <path d="M29.0322581,40.6451613 C29.0322581,40.1835484 28.9374194,39.746129 28.7883871,39.3358065 L33.7519355,35.94 C36.06,38.8045161 39.5912903,40.6451613 43.5483871,40.6451613 C50.4851613,40.6451613 56.1290323,35.0012903 56.1290323,28.0645161 C56.1290323,21.1277419 50.4851613,15.483871 43.5483871,15.483871 C36.6116129,15.483871 30.9677419,21.1277419 30.9677419,28.0645161 C30.9677419,30.3512903 31.5909677,32.4909677 32.6612903,34.3412903 L27.6929032,37.7409677 C27.0125806,37.1467742 26.133871,36.7741935 25.1612903,36.7741935 C24.3193548,36.7741935 23.546129,37.0509677 22.9103226,37.5087097 L17.0370968,32.6148387 C17.2751613,32.1135484 17.4193548,31.5590323 17.4193548,30.9677419 C17.4193548,28.8329032 15.6832258,27.0967742 13.5483871,27.0967742 C11.4135484,27.0967742 9.67741935,28.8329032 9.67741935,30.9677419 C9.67741935,32.1009677 10.1748387,33.1112903 10.953871,33.8206452 L4.75645161,45.5951613 C4.47096774,45.5283871 4.17677419,45.483871 3.87096774,45.483871 C1.73612903,45.483871 0,47.22 0,49.3548387 C0,51.4896774 1.73612903,53.2258065 3.87096774,53.2258065 C6.00580645,53.2258065 7.74193548,51.4896774 7.74193548,49.3548387 C7.74193548,48.2216129 7.24451613,47.2112903 6.46548387,46.5019355 L12.6629032,34.7264516 C12.9483871,34.7941935 13.2425806,34.8387097 13.5483871,34.8387097 C14.3903226,34.8387097 15.1635484,34.5619355 15.7993548,34.1041935 L21.6716129,38.9980645 C21.4345161,39.4993548 21.2903226,40.053871 21.2903226,40.6451613 C21.2903226,42.78 23.0264516,44.516129 25.1612903,44.516129 C27.296129,44.516129 29.0322581,42.78 29.0322581,40.6451613 Z M46.4690323,38.2925806 C47.0429032,37.6393548 47.6448387,36.84 48.2041935,35.8906452 C48.8109677,36.1780645 49.3064516,36.48 49.6906452,36.7432258 C48.7229032,37.4303226 47.6370968,37.9577419 46.4690323,38.2925806 Z M51.2051613,35.4425806 C50.7145161,35.0719355 50.0051613,34.5977419 49.0819355,34.1564516 C49.706129,32.7029032 50.1619355,30.9958065 50.2790323,29.0332258 L54.1451613,29.0332258 C53.9196774,31.5116129 52.8406452,33.7451613 51.2051613,35.4425806 Z M54.1441935,27.0967742 L50.2780645,27.0967742 C50.1609677,25.1341935 49.7051613,23.4270968 49.0809677,21.9735484 C50.0041935,21.5322581 50.7145161,21.0580645 51.2041935,20.6874194 C52.8406452,22.383871 53.9196774,24.6174194 54.1441935,27.0967742 Z M49.6906452,19.3858065 C49.3054839,19.6490323 48.81,19.9509677 48.2041935,20.2383871 C47.6448387,19.2890323 47.0429032,18.4896774 46.4690323,17.8364516 C47.6380645,18.1712903 48.7229032,18.6987097 49.6906452,19.3858065 Z M44.516129,18.5825806 C45.0832258,19.1680645 45.7325806,19.946129 46.3412903,20.9196774 C45.78,21.0696774 45.1703226,21.183871 44.516129,21.2429032 L44.516129,18.5825806 Z M44.516129,23.1890323 C45.5264516,23.1135484 46.4419355,22.9219355 47.2645161,22.6722581 C47.8151613,23.9293548 48.2245161,25.4041935 48.3425806,27.0958065 L44.516129,27.0958065 L44.516129,23.1890323 Z M44.516129,29.0322581 L48.3435484,29.0322581 C48.2274194,30.7296774 47.823871,32.2054839 47.2780645,33.4606452 C46.4516129,33.2090323 45.5322581,33.0154839 44.516129,32.94 L44.516129,29.0322581 Z M44.516129,34.8870968 C45.1770968,34.946129 45.7935484,35.0612903 46.3596774,35.2141935 C45.746129,36.1974194 45.0890323,36.9783871 44.516129,37.563871 L44.516129,34.8870968 Z M32.9525806,29.0322581 L36.8187097,29.0322581 C36.9358065,30.9948387 37.3916129,32.7019355 38.0158065,34.1554839 C37.0925806,34.5967742 36.3822581,35.0709677 35.8925806,35.4416129 C34.256129,33.7451613 33.1770968,31.5116129 32.9525806,29.0322581 Z M37.406129,36.7432258 C37.7912903,36.48 38.2867742,36.1780645 38.8925806,35.8906452 C39.4519355,36.84 40.053871,37.6393548 40.6277419,38.2925806 C39.4587097,37.9577419 38.373871,37.4303226 37.406129,36.7432258 Z M42.5806452,37.5464516 C42.0135484,36.9609677 41.3641935,36.1829032 40.7554839,35.2093548 C41.3167742,35.0593548 41.9264516,34.9451613 42.5806452,34.886129 L42.5806452,37.5464516 Z M42.5806452,32.94 C41.5703226,33.0154839 40.6548387,33.2070968 39.8322581,33.4567742 C39.2816129,32.1996774 38.8722581,30.7248387 38.7541935,29.0332258 L42.5806452,29.0332258 L42.5806452,32.94 Z M42.5806452,27.0967742 L38.7532258,27.0967742 C38.8693548,25.3993548 39.2729032,23.9235484 39.8187097,22.6683871 C40.6451613,22.92 41.5645161,23.1135484 42.5806452,23.1890323 L42.5806452,27.0967742 Z M42.5806452,18.5651613 L42.5806452,21.2419355 C41.9196774,21.1829032 41.3032258,21.0667742 40.7370968,20.9148387 C41.3506452,19.9316129 42.0077419,19.1506452 42.5806452,18.5651613 Z M40.6277419,17.8364516 C40.053871,18.4896774 39.4519355,19.2890323 38.8925806,20.2383871 C38.2858065,19.9509677 37.7903226,19.6490323 37.406129,19.3858065 C38.373871,18.6987097 39.4596774,18.1712903 40.6277419,17.8364516 Z M35.8916129,20.6864516 C36.3812903,21.0570968 37.0916129,21.5312903 38.0148387,21.9725806 C37.3906452,23.426129 36.9348387,25.1332258 36.8177419,27.0958065 L32.9516129,27.0958065 C33.1770968,24.6174194 34.256129,22.383871 35.8916129,20.6864516 Z M3.87096774,51.2903226 C2.80354839,51.2903226 1.93548387,50.4222581 1.93548387,49.3548387 C1.93548387,48.2874194 2.80354839,47.4193548 3.87096774,47.4193548 C4.9383871,47.4193548 5.80645161,48.2874194 5.80645161,49.3548387 C5.80645161,50.4222581 4.9383871,51.2903226 3.87096774,51.2903226 Z M13.5483871,32.9032258 C12.4809677,32.9032258 11.6129032,32.0351613 11.6129032,30.9677419 C11.6129032,29.9003226 12.4809677,29.0322581 13.5483871,29.0322581 C14.6158065,29.0322581 15.483871,29.9003226 15.483871,30.9677419 C15.483871,32.0351613 14.6158065,32.9032258 13.5483871,32.9032258 Z M25.1612903,42.5806452 C24.093871,42.5806452 23.2258065,41.7125806 23.2258065,40.6451613 C23.2258065,39.5777419 24.093871,38.7096774 25.1612903,38.7096774 C26.2287097,38.7096774 27.0967742,39.5777419 27.0967742,40.6451613 C27.0967742,41.7125806 26.2287097,42.5806452 25.1612903,42.5806452 Z" id="Shape"></path>
            </g>
        </g>
    </g>
</svg>