<?xml version="1.0" encoding="UTF-8"?>
<svg width="60px" height="60px" viewBox="0 0 60 60" version="1.1" xmlns="http://www.w3.org/2000/svg" xmlns:xlink="http://www.w3.org/1999/xlink">
    <!-- Generator: Sketch 50.2 (55047) - http://www.bohemiancoding.com/sketch -->
    <title>cloud</title>
    <desc>Created with Sketch.</desc>
    <defs></defs>
    <g id="Page-1" stroke="none" stroke-width="1" fill="none" fill-rule="evenodd">
        <g id="Desktop" transform="translate(-673.000000, -841.000000)" fill="#EA1A3C" fill-rule="nonzero">
            <g id="Benefits" transform="translate(0.000000, 669.000000)">
                <g id="flexible-api" transform="translate(673.000000, 172.000000)">
                    <g id="cloud">
                        <path d="M17.4676023,41.1729825 L12.4773099,41.1729825 C10.4102924,41.1729825 8.73461988,42.848655 8.73461988,44.9156725 L8.73461988,47.4107602 C8.73461988,48.0997661 9.29321637,48.6583626 9.98222222,48.6583626 L19.9626901,48.6583626 C20.6516959,48.6583626 21.2102924,48.0997661 21.2102924,47.4107602 L21.2102924,44.9156725 C21.2102924,42.848655 19.5346199,41.1729825 17.4676023,41.1729825 Z M18.7152047,46.1632749 L11.2298246,46.1632749 L11.2298246,44.9156725 C11.2298246,44.2266667 11.7884211,43.6680702 12.4774269,43.6680702 L17.4677193,43.6680702 C18.1567251,43.6680702 18.7153216,44.2266667 18.7153216,44.9156725 L18.7153216,46.1632749 L18.7152047,46.1632749 Z" id="Shape"></path>
                        <rect id="Rectangle-path" x="8.73461988" y="49.9059649" width="12.4756725" height="2.49508772"></rect>
                        <rect id="Rectangle-path" x="8.73461988" y="53.648655" width="12.4756725" height="2.49508772"></rect>
                        <rect id="Rectangle-path" x="8.73461988" y="57.391345" width="12.4756725" height="2.49508772"></rect>
                        <path d="M32.4383626,41.1729825 L27.4480702,41.1729825 C25.3810526,41.1729825 23.7053801,42.848655 23.7053801,44.9156725 L23.7053801,54.8961404 C23.7053801,55.5851462 24.2639766,56.1437427 24.9529825,56.1437427 L34.9334503,56.1437427 C35.6224561,56.1437427 36.1810526,55.5851462 36.1810526,54.8961404 L36.1810526,44.9156725 C36.1810526,42.848655 34.5053801,41.1729825 32.4383626,41.1729825 Z M33.6859649,53.648655 L26.2005848,53.648655 L26.2005848,44.9156725 C26.2005848,44.2266667 26.7591813,43.6680702 27.4481871,43.6680702 L32.4384795,43.6680702 C33.1274854,43.6680702 33.6860819,44.2266667 33.6860819,44.9156725 L33.6860819,53.648655 L33.6859649,53.648655 Z" id="Shape"></path>
                        <rect id="Rectangle-path" x="23.7053801" y="57.391345" width="12.4756725" height="2.49508772"></rect>
                        <path d="M47.4091228,41.1729825 L42.4188304,41.1729825 C40.3518129,41.1729825 38.6761404,42.848655 38.6761404,44.9156725 L38.6761404,51.1534503 C38.6761404,51.8424561 39.2347368,52.4010526 39.9237427,52.4010526 L49.9042105,52.4010526 C50.5932164,52.4010526 51.1518129,51.8424561 51.1518129,51.1534503 L51.1518129,44.9156725 C51.1518129,42.848655 49.4761404,41.1729825 47.4091228,41.1729825 Z M48.6567251,49.9059649 L41.171345,49.9059649 L41.171345,44.9156725 C41.171345,44.2266667 41.7299415,43.6680702 42.4189474,43.6680702 L47.4092398,43.6680702 C48.0982456,43.6680702 48.6568421,44.2266667 48.6568421,44.9156725 L48.6568421,49.9059649 L48.6567251,49.9059649 Z" id="Shape"></path>
                        <rect id="Rectangle-path" x="38.6761404" y="53.648655" width="12.4756725" height="2.49508772"></rect>
                        <rect id="Rectangle-path" x="38.6761404" y="57.391345" width="12.4756725" height="2.49508772"></rect>
                        <path d="M44.9140351,36.182807 L14.9725146,36.182807 C14.2835088,36.182807 13.7249123,36.7414035 13.7249123,37.4304094 L13.7249123,42.4207018 L16.22,42.4207018 L16.22,38.6780117 L43.6664327,38.6780117 L43.6664327,42.4207018 L46.1615205,42.4207018 L46.1615205,37.4304094 C46.1615205,36.7412865 45.6030409,36.182807 44.9140351,36.182807 Z" id="Shape"></path>
                        <rect id="Rectangle-path" x="28.6956725" y="31.1925146" width="2.49508772" height="11.2280702"></rect>
                        <path d="M42.4188304,17.4693567 L17.4676023,17.4693567 C16.7785965,17.4693567 16.22,18.0279532 16.22,18.7169591 L16.22,28.6974269 C16.22,29.3864327 16.7785965,29.9450292 17.4676023,29.9450292 L42.4188304,29.9450292 C43.1078363,29.9450292 43.6664327,29.3864327 43.6664327,28.6974269 L43.6664327,18.7169591 C43.6664327,18.0278363 43.1078363,17.4693567 42.4188304,17.4693567 Z M41.171345,27.4498246 L18.7152047,27.4498246 L18.7152047,19.9644444 L41.171345,19.9644444 L41.171345,27.4498246 Z" id="Shape"></path>
                        <path d="M36.1810526,11.231462 L23.7053801,11.231462 C23.0163743,11.231462 22.4577778,11.7900585 22.4577778,12.4790643 L22.4577778,16.2217544 L24.9528655,16.2217544 L24.9528655,13.7266667 L34.9333333,13.7266667 L34.9333333,16.2217544 L37.4284211,16.2217544 L37.4284211,12.4790643 C37.428655,11.7900585 36.8700585,11.231462 36.1810526,11.231462 Z" id="Shape"></path>
                        <path d="M47.4091228,11.231462 C46.7444444,11.2327485 46.0810526,11.288655 45.4254971,11.3985965 C43.8418713,6.30631579 39.8545029,2.31894737 34.7622222,0.735321637 C26.2150877,-1.9225731 17.131462,2.85146199 14.4734503,11.3987135 C13.8138012,11.2880702 13.1461988,11.2321637 12.4773099,11.2315789 C5.58725146,11.2315789 0.0016374269,16.817076 0.0016374269,23.7072515 C0.0016374269,30.5973099 5.5871345,36.182924 12.4773099,36.182924 L12.4773099,33.6878363 C11.5825731,33.6915789 10.691462,33.5749708 9.82783626,33.3411696 C4.50725146,31.9009357 1.36163743,26.420117 2.8019883,21.0995322 C4.24222222,15.7789474 9.72304094,12.6333333 15.0436257,14.0735673 C15.057193,14.077193 15.0707602,14.0805848 15.0844444,14.0836257 C15.7560234,14.2376608 16.4252632,13.8181287 16.5794152,13.1465497 C17.754269,8.02280702 21.7552047,4.02187135 26.8789474,2.84701754 C34.2596491,1.15461988 41.6147368,5.76596491 43.3071345,13.1465497 C43.3825731,13.4763743 43.5888889,13.7614035 43.8784795,13.9362573 C44.1684211,14.1098246 44.5160234,14.1592982 44.842807,14.0734503 C45.7064327,13.8396491 46.5975439,13.7230409 47.4922807,13.7267836 C53.0043275,13.7498246 57.4540351,18.2368421 57.4311111,23.7487719 C57.4080702,29.2608187 52.9210526,33.7105263 47.4091228,33.6876023 L47.4091228,36.1826901 C54.2991813,36.1826901 59.8847953,30.597193 59.8847953,23.7070175 C59.8847953,16.817076 54.2991813,11.231462 47.4091228,11.231462 Z" id="Shape"></path>
                        <rect id="Rectangle-path" x="11.2298246" y="19.9644444" width="2.49508772" height="7.48538012"></rect>
                        <rect id="Rectangle-path" x="46.1615205" y="19.9644444" width="2.49508772" height="6.23777778"></rect>
                        <rect id="Rectangle-path" x="21.2102924" y="22.4595322" width="2.49508772" height="2.49508772"></rect>
                        <rect id="Rectangle-path" x="26.2005848" y="22.4595322" width="2.49508772" height="2.49508772"></rect>
                        <rect id="Rectangle-path" x="31.1907602" y="22.4595322" width="2.49508772" height="2.49508772"></rect>
                        <rect id="Rectangle-path" x="36.1810526" y="22.4595322" width="2.49508772" height="2.49508772"></rect>
                    </g>
                </g>
            </g>
        </g>
    </g>
</svg>