<?xml version="1.0" encoding="UTF-8"?>
<svg width="43px" height="60px" viewBox="0 0 43 60" version="1.1" xmlns="http://www.w3.org/2000/svg" xmlns:xlink="http://www.w3.org/1999/xlink">
    <!-- Generator: Sketch 50.2 (55047) - http://www.bohemiancoding.com/sketch -->
    <title>card</title>
    <desc>Created with Sketch.</desc>
    <defs></defs>
    <g id="Symbols" stroke="none" stroke-width="1" fill="none" fill-rule="evenodd">
        <g id="card" fill="#2096C9" fill-rule="nonzero">
            <g>
                <path d="M25.0937109,0 L5.09378906,0 C2.33671875,0 0.09375,2.24296875 0.09375,5.00003906 L0.09375,41.0000391 C0.09375,43.7569922 2.33671875,46.0000781 5.09378906,46.0000781 L23.0937891,46.0000781 L23.0937891,44.0000391 L5.09378906,44.0000391 C3.43980469,44.0000391 2.09378906,42.6540234 2.09378906,41.0000391 L2.09378906,5.00003906 C2.09378906,3.34605469 3.43980469,2.00003906 5.09378906,2.00003906 L25.0938281,2.00003906 C26.7478125,2.00003906 28.0938281,3.34605469 28.0938281,5.00003906 L28.0938281,34.0000781 L30.09375,34.0000781 L30.09375,5.00003906 C30.09375,2.24296875 27.8507813,0 25.0937109,0 Z" id="Shape"></path>
                <path d="M39.6847266,26.6360156 L29.8747266,14.3759766 L28.3116797,15.6260156 L38.1216797,27.885 C39.3946875,29.475 40.0946484,31.4730469 40.0937109,33.51 L40.0937109,57.9999609 L25.4637891,57.9999609 C20.2978125,57.9999609 16.0938281,53.7969141 16.0938281,48.63 L16.0938281,45 L14.0937891,45 L14.0937891,48.63 C14.0937891,54.8989453 19.1948438,60 25.4637891,60 L41.0937891,60 C41.6467969,60 42.09375,59.5530469 42.09375,59.0000391 L42.09375,33.5110547 C42.0948047,31.0230469 41.2398047,28.5809766 39.6847266,26.6360156 Z" id="Shape"></path>
                <path d="M17.0898047,23.5830469 C17.7917578,23.6030859 18.4448438,23.895 18.9257813,24.405 L32.3648438,38.685 L33.8218359,37.3140234 L20.3807813,23.0329688 C19.5317578,22.1339063 18.3827344,21.6189844 17.1467578,21.5839453 C15.8977734,21.5419922 14.7348047,21.9969141 13.8467578,22.8359766 C13.8357422,22.8469922 13.7557031,22.9229297 13.7457422,22.9339453 C12.0367969,24.6479297 11.9217188,27.3379688 13.4807813,29.1959766 L22.0938281,39.3659766 L22.0938281,42.4599609 C22.0927734,47.9859375 25.5678516,52.9989844 30.7428516,54.9369141 L31.4448047,53.0639062 C27.0467578,51.4169531 24.0928125,47.1558984 24.09375,42.4599609 L24.09375,39 C24.09375,38.7639844 24.0097266,38.5339453 23.8567969,38.3530078 L15.0098438,27.9059766 C14.1248438,26.8519922 14.1898828,25.3209375 15.2098828,24.3 C15.7197656,23.8180078 16.3857422,23.5789453 17.0898047,23.5830469 Z" id="Shape"></path>
                <rect id="Rectangle-path" x="22.0937109" y="2.00003906" width="2.00003906" height="24.9999609"></rect>
                <rect id="Rectangle-path" x="17.0937891" y="33" width="2.00003906" height="12"></rect>
                <rect id="Rectangle-path" x="17.0937891" y="0.999960938" width="2.00003906" height="21.9999609"></rect>
                <rect id="Rectangle-path" x="5.09378906" y="5.00003906" width="2.00003906" height="12.9999609"></rect>
                <rect id="Rectangle-path" x="10.0937109" y="5.00003906" width="2.00003906" height="8.00003906"></rect>
                <path d="M12.09375,33 L6.09375,33 C5.54179688,33 5.09378906,33.4469531 5.09378906,33.9999609 L5.09378906,39.9999609 C5.09378906,40.5529688 5.54179688,40.9999219 6.09375,40.9999219 L12.09375,40.9999219 C12.6457031,40.9999219 13.0937109,40.5529688 13.0937109,39.9999609 L13.0937109,33.9999609 C13.0937109,33.4469531 12.6457031,33 12.09375,33 Z M11.0937891,39 L7.09382812,39 L7.09382812,35.0000391 L11.0937891,35.0000391 L11.0937891,39 Z" id="Shape"></path>
            </g>
        </g>
    </g>
</svg>