<?xml version="1.0" encoding="UTF-8"?>
<svg width="120px" height="120px" viewBox="0 0 120 120" version="1.1" xmlns="http://www.w3.org/2000/svg" xmlns:xlink="http://www.w3.org/1999/xlink">
    <!-- Generator: Sketch 50 (54983) - http://www.bohemiancoding.com/sketch -->
    <title>card program</title>
    <desc>Created with Sketch.</desc>
    <defs></defs>
    <g id="Page-1" stroke="none" stroke-width="1" fill="none" fill-rule="evenodd">
        <g id="Desktop-Copy" transform="translate(-1108.000000, -1496.000000)">
            <g id="what-we-do" transform="translate(203.000000, 1427.000000)">
                <g id="card-program" transform="translate(905.000000, 69.000000)">
                    <g id="Group">
                        <circle id="Oval-Copy-10" stroke="#F3F3F1" stroke-width="2" cx="60" cy="60" r="59"></circle>
                        <g id="card-program" transform="translate(30.000000, 30.000000)">
                            <g id="report">
                                <rect id="Rectangle-path" fill="#2096C9" fill-rule="nonzero" x="44" y="31" width="2" height="3"></rect>
                                <path d="M2,14 L13,14 C13.6,14 14,13.6 14,13 L14,2 L44,2 L44,4 C44,4.55228475 44.4477153,5 45,5 L45,5 C45.5522847,5 46,4.55228475 46,4 L46,1 C46,0.4 45.6,0 45,0 L13,0 C12.9,0 12.8,0 12.7,0.1 C12.5,0.2 12.4,0.2 12.3,0.3 L0.3,12.3 C0.2,12.4 0.2,12.5 0.1,12.6 C0.1,12.8 0,12.9 0,13 L0,59 C0,59.6 0.4,60 1,60 L36,60 C36.5522847,60 37,59.5522847 37,59 L37,59 C37,58.4477153 36.5522847,58 36,58 L2,58 L2,14 Z M3.4,12 L7.7,7.7 L12,3.4 L12,12 L3.4,12 Z" id="Shape" fill="#2096C9" fill-rule="nonzero"></path>
                                <circle id="Oval" fill="#2096C9" opacity="0.100000001" cx="49" cy="18" r="10"></circle>
                                <path d="M49,29 C55.1,29 60,24.1 60,18 C60,11.9 55.1,7 49,7 C42.9,7 38,11.9 38,18 C38,24.1 42.9,29 49,29 Z M49,9 C54,9 58,13 58,18 C58,23 54,27 49,27 C44,27 40,23 40,18 C40,13 44,9 49,9 Z" id="Shape" fill="#2096C9" fill-rule="nonzero"></path>
                                <path d="M47,23 L48,23 L48,24 C48,24.5522847 48.4477153,25 49,25 L49,25 C49.5522847,25 50,24.5522847 50,24 L50,23 L51,23 C52.2,23 53,22.2 53,21 L53,19 C53,17.8 52.2,17 51,17 L47,17 L47,15 L51,15 L51,15 C51,15.5522847 51.4477153,16 52,16 L52,16 C52.5522847,16 53,15.5522847 53,15 C53,13.8 52.2,13 51,13 L50,13 L50,12 C50,11.4477153 49.5522847,11 49,11 L49,11 C48.4477153,11 48,11.4477153 48,12 L48,13 L47,13 C45.8,13 45,13.8 45,15 L45,17 C45,18.2 45.8,19 47,19 L51,19 L51,21 L47,21 L47,21 C47,20.4477153 46.5522847,20 46,20 L46,20 C45.4477153,20 45,20.4477153 45,21 C45,22.2 45.8,23 47,23 Z" id="Shape" fill="#2096C9" fill-rule="nonzero"></path>
                                <rect id="Rectangle" fill="#D2EAF4" opacity="0.100000001" x="41" y="37" width="18" height="5"></rect>
                                <path d="M59,36 L41,36 C40.4,36 40,36.4 40,37 L40,59 C40,59.6 40.4,60 41,60 L59,60 C59.6,60 60,59.6 60,59 L60,37 C60,36.4 59.6,36 59,36 Z M58,38 L58,42 L42,42 L42,38 L58,38 Z M42,58 L42,44 L58,44 L58,58 L42,58 Z" id="Shape" fill="#2096C9" fill-rule="nonzero"></path>
                                <rect id="Rectangle-path" fill="#2096C9" fill-rule="nonzero" x="45" y="46" width="2" height="2"></rect>
                                <rect id="Rectangle-path" fill="#2096C9" fill-rule="nonzero" x="49" y="46" width="2" height="2"></rect>
                                <rect id="Rectangle-path" fill="#2096C9" fill-rule="nonzero" x="53" y="46" width="2" height="2"></rect>
                                <rect id="Rectangle-path" fill="#2096C9" fill-rule="nonzero" x="45" y="50" width="2" height="2"></rect>
                                <rect id="Rectangle-path" fill="#2096C9" fill-rule="nonzero" x="49" y="50" width="2" height="2"></rect>
                                <rect id="Rectangle-path" fill="#2096C9" fill-rule="nonzero" x="53" y="50" width="2" height="2"></rect>
                                <rect id="Rectangle-path" fill="#2096C9" fill-rule="nonzero" x="45" y="54" width="2" height="2"></rect>
                                <rect id="Rectangle-path" fill="#2096C9" fill-rule="nonzero" x="49" y="54" width="2" height="2"></rect>
                                <rect id="Rectangle-path" fill="#2096C9" fill-rule="nonzero" x="53" y="54" width="2" height="2"></rect>
                                <rect id="Rectangle-path" fill="#2096C9" fill-rule="nonzero" x="43" y="39" width="2" height="2"></rect>
                                <rect id="Rectangle-path" fill="#2096C9" fill-rule="nonzero" x="46" y="39" width="2" height="2"></rect>
                                <rect id="Rectangle-path" fill="#2096C9" fill-rule="nonzero" x="49" y="39" width="2" height="2"></rect>
                                <rect id="Rectangle-path" fill="#2096C9" fill-rule="nonzero" x="52" y="39" width="2" height="2"></rect>
                                <rect id="Rectangle-path" fill="#2096C9" fill-rule="nonzero" x="55" y="39" width="2" height="2"></rect>
                                <rect id="Rectangle-path" fill="#2096C9" fill-rule="nonzero" x="19" y="5" width="6" height="2"></rect>
                                <rect id="Rectangle-path" fill="#2096C9" fill-rule="nonzero" x="19" y="10" width="15" height="2"></rect>
                                <path d="M9.3,18.3 L7,20.6 C6.61340068,20.9865993 6.61340068,21.6134007 7,22 L7,22 C7.38659932,22.3865993 8.01340068,22.3865993 8.4,22 L9,21.4 L9,34 C9,34.5522847 9.44771525,35 10,35 L10,35 C10.5522847,35 11,34.5522847 11,34 L11,21.4 L11.6,22 C11.9865993,22.3865993 12.6134007,22.3865993 13,22 L13,22 C13.3865993,21.6134007 13.3865993,20.9865993 13,20.6 L10.7,18.3 C10.3,17.9 9.7,17.9 9.3,18.3 Z" id="Shape" fill="#2096C9" fill-rule="nonzero"></path>
                                <path d="M12.3,15.3 L10,17.6 C9.61340068,17.9865993 9.61340068,18.6134007 10,19 L10,19 C10.3865993,19.3865993 11.0134007,19.3865993 11.4,19 L12,18.4 L12,31 C12,31.5522847 12.4477153,32 13,32 L13,32 C13.5522847,32 14,31.5522847 14,31 L14,18.4 L14.6,19 C14.9865993,19.3865993 15.6134007,19.3865993 16,19 L16,19 C16.3865993,18.6134007 16.3865993,17.9865993 16,17.6 L13.7,15.3 C13.3,14.9 12.7,14.9 12.3,15.3 Z" id="Shape-Copy-3" fill="#2096C9" fill-rule="nonzero" opacity="0.100000001"></path>
                                <path d="M18.4,26 L19,25.4 L19,34 C19,34.5522847 19.4477153,35 20,35 L20,35 C20.5522847,35 21,34.5522847 21,34 L21,25.4 L21.6,26 C21.9865993,26.3865993 22.6134007,26.3865993 23,26 L23,26 C23.3865993,25.6134007 23.3865993,24.9865993 23,24.6 L20.7,22.3 C20.3,21.9 19.7,21.9 19.3,22.3 L17,24.6 C16.6134007,24.9865993 16.6134007,25.6134007 17,26 L17,26 C17.3865993,26.3865993 18.0134007,26.3865993 18.4,26 Z" id="Shape" fill="#2096C9" fill-rule="nonzero"></path>
                                <path d="M21.4,23 L22,22.4 L22,31 C22,31.5522847 22.4477153,32 23,32 L23,32 C23.5522847,32 24,31.5522847 24,31 L24,22.4 L24.6,23 C24.9865993,23.3865993 25.6134007,23.3865993 26,23 L26,23 C26.3865993,22.6134007 26.3865993,21.9865993 26,21.6 L23.7,19.3 C23.3,18.9 22.7,18.9 22.3,19.3 L20,21.6 C19.6134007,21.9865993 19.6134007,22.6134007 20,23 L20,23 C20.3865993,23.3865993 21.0134007,23.3865993 21.4,23 Z" id="Shape-Copy-2" fill="#2096C9" fill-rule="nonzero" opacity="0.100000001"></path>
                                <path d="M33,20 L33,20 C33.3865993,19.6134007 33.3865993,18.9865993 33,18.6 L30.7,16.3 C30.3,15.9 29.7,15.9 29.3,16.3 L27,18.6 C26.6134007,18.9865993 26.6134007,19.6134007 27,20 L27,20 C27.3865993,20.3865993 28.0134007,20.3865993 28.4,20 L29,19.4 L29,34 C29,34.5522847 29.4477153,35 30,35 L30,35 C30.5522847,35 31,34.5522847 31,34 L31,19.4 L31.6,20 C31.9865993,20.3865993 32.6134007,20.3865993 33,20 Z" id="Shape" fill="#2096C9" fill-rule="nonzero"></path>
                                <path d="M36,17 L36,17 C36.3865993,16.6134007 36.3865993,15.9865993 36,15.6 L33.7,13.3 C33.3,12.9 32.7,12.9 32.3,13.3 L30,15.6 C29.6134007,15.9865993 29.6134007,16.6134007 30,17 L30,17 C30.3865993,17.3865993 31.0134007,17.3865993 31.4,17 L32,16.4 L32,31 C32,31.5522847 32.4477153,32 33,32 L33,32 C33.5522847,32 34,31.5522847 34,31 L34,16.4 L34.6,17 C34.9865993,17.3865993 35.6134007,17.3865993 36,17 Z" id="Shape-Copy" fill="#2096C9" fill-rule="nonzero" opacity="0.100000001"></path>
                                <rect id="Rectangle-path" fill="#2096C9" fill-rule="nonzero" x="9" y="40" width="15" height="2"></rect>
                                <rect id="Rectangle-path" fill="#2096C9" fill-rule="nonzero" x="9" y="45" width="26" height="2"></rect>
                                <rect id="Rectangle-path" fill="#2096C9" fill-rule="nonzero" x="9" y="50" width="26" height="2"></rect>
                                <rect id="Rectangle-path" fill="#2096C9" fill-rule="nonzero" x="26" y="40" width="4" height="2"></rect>
                            </g>
                        </g>
                    </g>
                </g>
            </g>
        </g>
    </g>
</svg>