<?xml version="1.0" encoding="UTF-8"?>
<svg width="44px" height="60px" viewBox="0 0 44 60" version="1.1" xmlns="http://www.w3.org/2000/svg" xmlns:xlink="http://www.w3.org/1999/xlink">
    <!-- Generator: Sketch 50.2 (55047) - http://www.bohemiancoding.com/sketch -->
    <title>cloud-computing</title>
    <desc>Created with Sketch.</desc>
    <defs></defs>
    <g id="Page-1" stroke="none" stroke-width="1" fill="none" fill-rule="evenodd">
        <g id="Desktop-Copy" transform="translate(-618.000000, -1526.000000)" fill="#2096C9">
            <g id="what-we-do" transform="translate(203.000000, 1427.000000)">
                <g id="Group-12" transform="translate(317.000000, 69.000000)">
                    <g id="cloud-computing" transform="translate(98.000000, 30.000000)">
                        <g id="Shape">
                            <path d="M33.4530612,32.3020408 C39.122449,31.8979592 43.555102,27.0489796 43.555102,21.244898 C43.555102,16.2 40.1265306,11.7306122 35.4367347,10.4938776 C34.4326531,4.45714286 29.2408163,0 23.0081633,0 C18.4897959,0 14.3020408,2.44897959 12.0734694,6.31836735 C11.644898,6.23265306 11.1918367,6.19591837 10.7510204,6.19591837 C6.94285714,6.19591837 3.84489796,9.29387755 3.84489796,13.1020408 C3.84489796,13.5918367 3.89387755,14.0693878 3.99183673,14.5346939 C1.53061224,16.322449 0.0367346939,19.2122449 0.0367346939,22.2734694 C0.0367346939,27.4408163 4.1877551,32.044898 9.09795918,32.3142857 C9.12244898,32.3142857 9.14693878,32.3142857 9.17142857,32.3142857 L33.3795918,32.3142857 C33.3918367,32.3142857 33.4285714,32.3142857 33.4530612,32.3020408 Z M9.19591837,29.8897959 C5.53469388,29.6693878 2.46122449,26.1918367 2.46122449,22.2734694 C2.46122449,19.7387755 3.82040816,17.3755102 6.0122449,16.1020408 C6.52653061,15.8081633 6.74693878,15.1836735 6.53877551,14.6326531 C6.35510204,14.155102 6.26938776,13.6408163 6.26938776,13.1020408 C6.26938776,10.6285714 8.27755102,8.62040816 10.7510204,8.62040816 C11.277551,8.62040816 11.7918367,8.70612245 12.2816327,8.88979592 C12.8693878,9.11020408 13.5306122,8.84081633 13.8,8.26530612 C15.4653061,4.71428571 19.0897959,2.4244898 23.0204082,2.4244898 C28.2979592,2.4244898 32.6571429,6.37959184 33.1591837,11.6204082 C33.2081633,12.1714286 33.6244898,12.6122449 34.1632653,12.6979592 C38.1428571,13.3836735 41.1428571,17.0571429 41.1428571,21.244898 C41.1428571,25.6897959 37.6408163,29.5591837 33.3306122,29.8897959 L9.19591837,29.8897959 Z" fill-rule="nonzero"></path>
                            <path d="M21.7959184,36.4040816 C21.122449,36.4040816 20.5836735,36.9428571 20.5836735,37.6163265 L20.5836735,51.8204082 C18.9061224,52.3346939 17.6571429,53.8897959 17.6204082,55.7142857 C17.5959184,56.8285714 18,57.8938776 18.7714286,58.7020408 C19.5428571,59.5102041 20.5836735,59.9755102 21.6979592,60 L21.7959184,60 C24.0489796,60 25.922449,58.1632653 25.9714286,55.922449 C25.9959184,54.8081633 25.5918367,53.7428571 24.8204082,52.9346939 C24.3183673,52.4081633 23.6938776,52.0285714 23.0081633,51.8204082 L23.0081633,37.6163265 C23.0081633,36.9428571 22.4693878,36.4040816 21.7959184,36.4040816 Z M23.0693878,54.6122449 C23.3877551,54.955102 23.5714286,55.3959184 23.5591837,55.8612245 C23.5346939,56.8040816 22.7510204,57.5755102 21.8081633,57.5755102 L21.7591837,57.5755102 C21.2938776,57.5632653 20.8530612,57.3673469 20.5346939,57.0367347 C20.2163265,56.6938776 20.0326531,56.2530612 20.044898,55.7877551 C20.0693878,54.844898 20.8530612,54.0734694 21.7959184,54.0734694 L21.844898,54.0734694 C22.3102041,54.0734694 22.7387755,54.2693878 23.0693878,54.6122449 Z" fill-rule="nonzero"></path>
                            <path d="M14.0081633,37.6163265 L14.0081633,44.4122449 C14.0081633,45.5877551 13.0530612,46.5306122 11.8897959,46.5306122 L8.31428571,46.5306122 C7.7877551,44.8163265 6.19591837,43.555102 4.31020408,43.555102 C2.00816327,43.555102 0.12244898,45.4285714 0.12244898,47.7428571 C0.12244898,50.0571429 1.99591837,51.9306122 4.31020408,51.9306122 C6.19591837,51.9306122 7.7877551,50.6816327 8.31428571,48.955102 L11.8897959,48.955102 C14.4,48.955102 16.4326531,46.9102041 16.4326531,44.4122449 L16.4326531,37.6163265 C16.4326531,36.9428571 15.8938776,36.4040816 15.2204082,36.4040816 C14.5591837,36.4040816 14.0081633,36.9428571 14.0081633,37.6163265 Z M4.31020408,49.5061224 C3.34285714,49.5061224 2.54693878,48.722449 2.54693878,47.7428571 C2.54693878,46.7632653 3.33061224,45.9795918 4.31020408,45.9795918 C5.27755102,45.9795918 6.07346939,46.7632653 6.07346939,47.7428571 C6.07346939,48.722449 5.28979592,49.5061224 4.31020408,49.5061224 Z" fill-rule="nonzero"></path>
                            <path d="M31.7020408,48.9673469 L35.277551,48.9673469 C35.8040816,50.6816327 37.3959184,51.9428571 39.2816327,51.9428571 C41.5836735,51.9428571 43.4693878,50.0693878 43.4693878,47.755102 C43.4693878,45.4408163 41.5959184,43.5673469 39.2816327,43.5673469 C37.3959184,43.5673469 35.8040816,44.8163265 35.277551,46.5428571 L31.7020408,46.5428571 C30.5265306,46.5428571 29.5836735,45.5877551 29.5836735,44.4244898 L29.5836735,37.6285714 C29.5836735,36.955102 29.044898,36.4163265 28.3714286,36.4163265 C27.6979592,36.4163265 27.1591837,36.955102 27.1591837,37.6285714 L27.1591837,44.4244898 C27.1591837,46.922449 29.1918367,48.9673469 31.7020408,48.9673469 Z M39.2816327,45.9918367 C40.2489796,45.9918367 41.044898,46.7755102 41.044898,47.755102 C41.044898,48.7346939 40.2612245,49.5183673 39.2816327,49.5183673 C38.3020408,49.5183673 37.5183673,48.7346939 37.5183673,47.755102 C37.5183673,46.7755102 38.3020408,45.9918367 39.2816327,45.9918367 Z" fill-rule="nonzero"></path>
                        </g>
                    </g>
                </g>
            </g>
        </g>
    </g>
</svg>