<?xml version="1.0" encoding="UTF-8"?>
<svg width="80px" height="80px" viewBox="0 0 80 80" version="1.1" xmlns="http://www.w3.org/2000/svg" xmlns:xlink="http://www.w3.org/1999/xlink">
    <!-- Generator: Sketch 50.2 (55047) - http://www.bohemiancoding.com/sketch -->
    <title>computer</title>
    <desc>Created with Sketch.</desc>
    <defs></defs>
    <g id="Page-1" stroke="none" stroke-width="1" fill="none" fill-rule="evenodd">
        <g id="Desktop" transform="translate(-261.000000, -2878.000000)" fill="#2096C9" fill-rule="nonzero">
            <g id="Group-30" transform="translate(220.000000, 2797.000000)">
                <g id="Group-18" transform="translate(0.000000, 80.000000)">
                    <g id="computer" transform="translate(41.000000, 1.000000)">
                        <path d="M61.6667188,0 L5,0 C2.23859375,0 0,2.23859375 0,5 L0,45 C0,47.7614063 2.23859375,50 5,50 L43.3332812,50 L43.3332812,46.6667188 L5,46.6667188 C4.07953125,46.6667188 3.33328125,45.9204688 3.33328125,45 L3.33328125,5 C3.33328125,4.07953125 4.07953125,3.33328125 5,3.33328125 L61.6667188,3.33328125 C62.5871875,3.33328125 63.3334375,4.07953125 63.3334375,5 L63.3334375,26.6667188 L66.6667187,26.6667188 L66.6667187,5 C66.6667188,2.23859375 64.428125,0 61.6667188,0 Z" id="Shape"></path>
                        <rect id="Rectangle-path" x="18.3332812" y="56.6667187" width="25" height="3.33328125"></rect>
                        <rect id="Rectangle-path" x="1.66671875" y="36.6667188" width="41.6667187" height="3.33328125"></rect>
                        <path d="M11.6667187,30 C10.74625,30 10,29.25375 10,28.3332812 L10,25 L6.66671875,25 L6.66671875,28.3332812 C6.66671875,31.0946875 8.9053125,33.3332812 11.6667187,33.3332812 L15,33.3332812 L15,30 L11.6667187,30 Z" id="Shape"></path>
                        <rect id="Rectangle-path" x="6.66671875" y="18.3332812" width="3.33328125" height="3.33328125"></rect>
                        <path d="M75,30 L51.6667187,30 C48.9053125,30 46.6667187,32.2385937 46.6667187,35 L46.6667187,75 C46.6667187,77.7614062 48.9053125,80 51.6667187,80 L75,80 C77.7614062,80 80,77.7614062 80,75 L80,35 C80,32.2385937 77.7614062,30 75,30 Z M76.6667187,75 C76.6667187,75.9204687 75.9204687,76.6667187 75,76.6667187 L51.6667187,76.6667187 C50.74625,76.6667187 50,75.9204687 50,75 L50,35 C50,34.0795313 50.74625,33.3332812 51.6667187,33.3332812 L75,33.3332812 C75.9204687,33.3332812 76.6667187,34.0795313 76.6667187,35 L76.6667187,75 Z" id="Shape"></path>
                        <rect id="Rectangle-path" x="21.6667188" y="48.3332813" width="3.33328125" height="10"></rect>
                        <rect id="Rectangle-path" x="48.3332813" y="38.3332812" width="30" height="3.33328125"></rect>
                        <rect id="Rectangle-path" x="61.6667187" y="70" width="3.33328125" height="3.33328125"></rect>
                        <rect id="Rectangle-path" x="53.3332812" y="45" width="3.33328125" height="3.33328125"></rect>
                        <rect id="Rectangle-path" x="60" y="45" width="3.33328125" height="3.33328125"></rect>
                        <rect id="Rectangle-path" x="53.3332812" y="51.6667187" width="3.33328125" height="3.33328125"></rect>
                    </g>
                </g>
            </g>
        </g>
    </g>
</svg>