<?xml version="1.0" encoding="UTF-8"?>
<svg width="80px" height="80px" viewBox="0 0 80 80" version="1.1" xmlns="http://www.w3.org/2000/svg" xmlns:xlink="http://www.w3.org/1999/xlink">
    <!-- Generator: Sketch 50.2 (55047) - http://www.bohemiancoding.com/sketch -->
    <title>connection</title>
    <desc>Created with Sketch.</desc>
    <defs></defs>
    <g id="Page-1" stroke="none" stroke-width="1" fill="none" fill-rule="evenodd">
        <g id="Desktop" transform="translate(-601.000000, -2877.000000)" fill="#2096C9" fill-rule="nonzero">
            <g id="Group-30" transform="translate(220.000000, 2797.000000)">
                <g id="Group-18" transform="translate(0.000000, 80.000000)">
                    <g id="Group-17" transform="translate(340.000000, 0.000000)">
                        <g id="connection" transform="translate(41.000000, 0.000000)">
                            <path d="M21.6667188,53.3332813 L5,53.3332813 C2.23859375,53.3332813 0,55.571875 0,58.3332813 L0,68.3332812 C0,71.0946875 2.23859375,73.3332812 5,73.3332812 L21.6667188,73.3332812 C24.428125,73.3332812 26.6667188,71.0946875 26.6667188,68.3332812 L26.6667188,58.3332813 C26.6667188,55.571875 24.428125,53.3332813 21.6667188,53.3332813 Z M23.3332812,68.3332813 C23.3332812,69.25375 22.5870312,70 21.6665625,70 L5,70 C4.07953125,70 3.33328125,69.25375 3.33328125,68.3332813 L3.33328125,58.3332813 C3.33328125,57.4128125 4.07953125,56.6665625 5,56.6665625 L21.6667188,56.6665625 C22.5871875,56.6665625 23.3334375,57.4128125 23.3334375,58.3332813 L23.3334375,68.3332813 L23.3332812,68.3332813 Z" id="Shape"></path>
                            <rect id="Rectangle-path" x="6.66671875" y="76.6667187" width="13.3332813" height="3.33328125"></rect>
                            <rect id="Rectangle-path" x="8.33328125" y="71.6667188" width="3.33328125" height="6.66671875"></rect>
                            <rect id="Rectangle-path" x="15" y="71.6667188" width="3.33328125" height="6.66671875"></rect>
                            <path d="M75,53.3332813 L58.3332813,53.3332813 C55.571875,53.3332813 53.3332813,55.571875 53.3332813,58.3332813 L53.3332813,68.3332812 C53.3332813,71.0946875 55.571875,73.3332812 58.3332813,73.3332812 L75,73.3332812 C77.7614063,73.3332812 80,71.0946875 80,68.3332812 L80,58.3332813 C80,55.571875 77.7614063,53.3332813 75,53.3332813 Z M76.6667188,68.3332813 C76.6667188,69.25375 75.9204687,70 75,70 L58.3332813,70 C57.4128125,70 56.6665625,69.25375 56.6665625,68.3332813 L56.6665625,58.3332813 C56.6665625,57.4128125 57.4128125,56.6665625 58.3332813,56.6665625 L75,56.6665625 C75.9204688,56.6665625 76.6667188,57.4128125 76.6667188,58.3332813 L76.6667188,68.3332813 Z" id="Shape"></path>
                            <rect id="Rectangle-path" x="60" y="76.6667187" width="13.3332813" height="3.33328125"></rect>
                            <rect id="Rectangle-path" x="61.6667187" y="71.6667188" width="3.33328125" height="6.66671875"></rect>
                            <rect id="Rectangle-path" x="68.3332812" y="71.6667188" width="3.33328125" height="6.66671875"></rect>
                            <rect id="Rectangle-path" x="18.3332812" y="13.3332813" width="43.3332812" height="3.33328125"></rect>
                            <path d="M40,0 C25.2723437,0 13.3332812,11.9390625 13.3332812,26.6667188 C13.3332812,41.394375 25.2723437,53.3332813 40,53.3332813 C54.7203125,53.3157813 66.6492187,41.3870313 66.6667187,26.6665625 C66.6667187,11.9390625 54.7276562,0 40,0 Z M40,50 C27.1132812,50 16.6667187,39.5532813 16.6667187,26.6667188 C16.6667187,13.7801562 27.1132812,3.33328125 40,3.33328125 C52.8809375,3.34703125 63.3195312,13.785625 63.3332812,26.6665625 C63.3332812,39.5532812 52.8867187,50 40,50 Z" id="Shape"></path>
                            <path d="M40,0 C32.5232812,0 26.6667188,11.7132813 26.6667188,26.6667188 C26.6667188,41.6201563 32.5232812,53.3332813 40,53.3332813 C47.4767187,53.3332813 53.3332812,41.62 53.3332812,26.6665625 C53.3332812,11.713125 47.4767187,0 40,0 Z M40,50 C35.27,50 30,40.4167188 30,26.6667188 C30,12.9167187 35.27,3.3334375 40,3.3334375 C44.73,3.3334375 50,12.9167188 50,26.6667188 C50,40.4167188 44.73,50 40,50 Z" id="Shape"></path>
                            <rect id="Rectangle-path" x="15" y="25" width="50" height="3.33328125"></rect>
                            <rect id="Rectangle-path" x="18.3332812" y="36.6667188" width="43.3332812" height="3.33328125"></rect>
                            <rect id="Rectangle-path" x="38.3332812" y="1.66671875" width="3.33328125" height="50"></rect>
                            <rect id="Rectangle-path" x="30" y="61.6667187" width="20" height="3.33328125"></rect>
                            <rect id="Rectangle-path" x="38.3332812" y="56.6667188" width="3.33328125" height="6.66671875"></rect>
                        </g>
                    </g>
                </g>
            </g>
        </g>
    </g>
</svg>