<?xml version="1.0" encoding="UTF-8"?>
<svg width="60px" height="44px" viewBox="0 0 60 44" version="1.1" xmlns="http://www.w3.org/2000/svg" xmlns:xlink="http://www.w3.org/1999/xlink">
    <!-- Generator: Sketch 50.2 (55047) - http://www.bohemiancoding.com/sketch -->
    <title>credit-card</title>
    <desc>Created with Sketch.</desc>
    <defs></defs>
    <g id="Symbols" stroke="none" stroke-width="1" fill="none" fill-rule="evenodd">
        <g id="credit-card1" fill="#EA1A3C" fill-rule="nonzero">
            <g id="credit-card">
                <path d="M55.783,0 L4.217,0 C1.892,0 0,1.892 0,4.217 L0,39.783 C0,42.108 1.892,44 4.217,44 L55.783,44 C58.108,44 60,42.108 60,39.783 L60,4.217 C60,1.892 58.108,0 55.783,0 Z M58,39.783 C58,41.005 57.006,42 55.783,42 L4.217,42 C2.994,42 2,41.005 2,39.783 L2,4.217 C2,2.995 2.994,2 4.217,2 L55.783,2 C57.006,2 58,2.995 58,4.217 L58,39.783 Z" id="Shape"></path>
                <path d="M5,37 L16,37 L16,29 L5,29 L5,37 Z M7,31 L14,31 L14,35 L7,35 L7,31 Z" id="Shape"></path>
                <path d="M18,37 L29,37 L29,29 L18,29 L18,37 Z M20,31 L27,31 L27,35 L20,35 L20,31 Z" id="Shape"></path>
                <path d="M31,37 L42,37 L42,29 L31,29 L31,37 Z M33,31 L40,31 L40,35 L33,35 L33,31 Z" id="Shape"></path>
                <path d="M44,37 L55,37 L55,29 L44,29 L44,37 Z M46,31 L53,31 L53,35 L46,35 L46,31 Z" id="Shape"></path>
                <path d="M7.255,20 L13.255,20 L14.745,20 L20.745,20 C21.988,20 23,18.988 23,17.745 L23,9.745 L23,8.255 C23,7.012 21.988,6 20.745,6 L13.255,6 L7.255,6 C6.012,6 5,7.012 5,8.255 L5,17.745 C5,18.988 6.012,20 7.255,20 Z M11,14 L7,14 L7,12 L11,12 L11,14 Z M7,17.745 L7,16 L11,16 L11,17.745 C11,17.832 11.016,17.915 11.026,18 L7.255,18 C7.114,18 7,17.886 7,17.745 Z M21,14 L17,14 L17,12.255 C17,12.114 17.114,12 17.255,12 L20.745,12 C20.832,12 20.915,11.984 21,11.974 L21,14 Z M20.745,18 L16.974,18 C16.984,17.915 17,17.832 17,17.745 L17,16 L21,16 L21,17.745 C21,17.886 20.886,18 20.745,18 Z M20.745,8 C20.886,8 21,8.114 21,8.255 L21,9.745 C21,9.886 20.886,10 20.745,10 L17.255,10 C16.012,10 15,11.012 15,12.255 L15,17.745 C15,17.886 14.886,18 14.745,18 L13.255,18 C13.114,18 13,17.886 13,17.745 L13,8.255 C13,8.114 13.114,8 13.255,8 L20.745,8 Z M7.255,8 L11.026,8 C11.016,8.085 11,8.168 11,8.255 L11,10 L7,10 L7,8.255 C7,8.114 7.114,8 7.255,8 Z" id="Shape"></path>
                <path d="M32,8 L41,8 C41.553,8 42,7.552 42,7 C42,6.448 41.553,6 41,6 L32,6 C31.447,6 31,6.448 31,7 C31,7.552 31.447,8 32,8 Z" id="Shape"></path>
                <path d="M54,6 L45,6 C44.447,6 44,6.448 44,7 C44,7.552 44.447,8 45,8 L54,8 C54.553,8 55,7.552 55,7 C55,6.448 54.553,6 54,6 Z" id="Shape"></path>
                <path d="M32,13 L33,13 C33.553,13 34,12.552 34,12 C34,11.448 33.553,11 33,11 L32,11 C31.447,11 31,11.448 31,12 C31,12.552 31.447,13 32,13 Z" id="Shape"></path>
                <path d="M37,11 C36.447,11 36,11.448 36,12 C36,12.552 36.447,13 37,13 L39,13 C39.553,13 40,12.552 40,12 C40,11.448 39.553,11 39,11 L37,11 Z" id="Shape"></path>
                <path d="M45,12 C45,11.448 44.553,11 44,11 L43,11 C42.447,11 42,11.448 42,12 C42,12.552 42.447,13 43,13 L44,13 C44.553,13 45,12.552 45,12 Z" id="Shape"></path>
                <path d="M50,13 C50.553,13 51,12.552 51,12 C51,11.448 50.553,11 50,11 L48,11 C47.447,11 47,11.448 47,12 C47,12.552 47.447,13 48,13 L50,13 Z" id="Shape"></path>
                <path d="M53.29,11.29 C53.109,11.48 53,11.74 53,12 C53,12.26 53.109,12.52 53.29,12.71 C53.479,12.89 53.729,13 54,13 C54.26,13 54.52,12.89 54.71,12.71 C54.89,12.52 55,12.26 55,12 C55,11.74 54.89,11.48 54.71,11.29 C54.33,10.92 53.66,10.92 53.29,11.29 Z" id="Shape"></path>
            </g>
        </g>
    </g>
</svg>