<?xml version="1.0" encoding="UTF-8"?>
<svg width="46px" height="46px" viewBox="0 0 46 46" version="1.1" xmlns="http://www.w3.org/2000/svg" xmlns:xlink="http://www.w3.org/1999/xlink">
    <!-- Generator: Sketch 50.2 (55047) - http://www.bohemiancoding.com/sketch -->
    <title>money</title>
    <desc>Created with Sketch.</desc>
    <defs></defs>
    <g id="Page-1" stroke="none" stroke-width="1" fill="none" fill-rule="evenodd" opacity="0.900000036">
        <g id="Desktop-Copy" transform="translate(-936.000000, -2435.000000)" fill="#FFFFFF">
            <g id="card-program" transform="translate(0.000000, 1959.000000)">
                <g id="currency" transform="translate(829.000000, 476.000000)">
                    <g id="money" transform="translate(107.000000, 0.000000)">
                        <g id="Shape">
                            <path d="M45.7363086,0.263152344 C45.5677617,0.0946953125 45.3391992,0 45.1008437,0 L22.9998203,0.00116796875 C22.5037031,0.00116796875 22.1014727,0.403488281 22.1014727,0.899605469 L22.1014727,3.46886719 L13.5852734,5.75080859 C13.105957,5.87928516 12.8215117,6.37189844 12.9499883,6.851125 L17.3637422,23.3232578 L13.5454727,27.1415273 C13.0595078,26.4319414 12.2435469,25.965293 11.320582,25.965293 L2.69585156,25.965293 C1.20965625,25.965293 0.00062890625,27.1744102 0.00062890625,28.6605156 L0.00062890625,43.3046875 C0.00062890625,44.7908828 1.20965625,46 2.69585156,46 L11.3206719,46 C12.5832461,46 13.6453789,45.1270781 13.9364727,43.9533594 L15.0047148,44.8849492 C15.8293906,45.6040586 16.8859531,46.0000898 17.9801602,46.0000898 L45.1010234,46.0000898 C45.5971406,46.0000898 45.9994609,45.5977695 45.9994609,45.1016523 L45.9994609,0.8984375 C45.9992812,0.660171875 45.9047656,0.431609375 45.7363086,0.263152344 Z M12.2189297,43.3047773 C12.2189297,43.8000859 11.8158906,44.2032148 11.3204922,44.2032148 L2.69576172,44.2032148 C2.20036328,44.2032148 1.79732422,43.8001758 1.79732422,43.3047773 L1.79732422,28.6606055 C1.79732422,28.165207 2.20036328,27.762168 2.69576172,27.762168 L6.10973437,27.762168 L6.10973437,38.1117188 C6.10973437,38.6078359 6.51205469,39.0101563 7.00817187,39.0101563 C7.50428906,39.0101563 7.90660937,38.6078359 7.90660937,38.1117188 L7.90660937,27.762168 L11.320582,27.762168 C11.8159805,27.762168 12.2190195,28.165207 12.2190195,28.6606055 L12.2190195,43.3047773 L12.2189297,43.3047773 Z M14.9181055,7.25389453 L22.1014727,5.32908203 L22.1014727,8.65824219 L21.4993398,8.81960156 C21.2690703,8.88132422 21.0729414,9.0318125 20.9538086,9.23818359 C20.8346758,9.44455469 20.802332,9.68973828 20.8640547,9.91991797 C21.2093242,11.2083672 20.4419687,12.5374258 19.1535195,12.8826953 C18.9230703,12.9445078 18.726582,13.0952656 18.6075391,13.3020859 C18.4884961,13.5088164 18.4564219,13.7544492 18.5186836,13.9848086 L22.0207031,26.9526758 L20.2175391,26.9526758 L19.2882852,23.3172383 C19.2587266,23.2015195 19.2069766,23.094875 19.137707,23.0021563 L14.9181055,7.25389453 Z M22.1014727,12.7783867 L22.1014727,20.3594922 L20.4628125,14.2918945 C21.147332,13.9384492 21.7075078,13.4096289 22.1014727,12.7783867 Z M35.0087852,44.203125 L17.9799805,44.203125 C17.3200781,44.203125 16.6828164,43.9643203 16.1854414,43.5306445 L14.0158047,41.6384453 L14.0158047,29.2124258 L17.9382031,25.2900273 L18.6495859,28.0733867 C18.7512891,28.471125 19.1094961,28.7492813 19.5199922,28.7492813 L37.1836328,28.7503594 C37.8772266,28.7503594 38.4414453,29.3145781 38.4414453,30.0081719 C38.4414453,30.7017656 37.8772266,31.2659844 37.1836328,31.2659844 L28.1327734,31.2659844 C27.6366562,31.2659844 27.2343359,31.6683047 27.2343359,32.1644219 C27.2343359,32.6605391 27.6366562,33.0628594 28.1327734,33.0628594 L39.9957422,33.0628594 C40.6893359,33.0628594 41.2535547,33.6270781 41.2535547,34.3206719 C41.2535547,35.0142656 40.6893359,35.5784844 39.9957422,35.5784844 L28.1327734,35.5784844 C27.6366562,35.5784844 27.2343359,35.9808047 27.2343359,36.4769219 C27.2343359,36.9730391 27.6366562,37.3753594 28.1327734,37.3753594 L38.0733555,37.3753594 C38.7669492,37.3753594 39.331168,37.9395781 39.331168,38.6331719 C39.331168,39.3267656 38.7669492,39.8909844 38.0733555,39.8909844 L28.1327734,39.8909844 C27.6366562,39.8909844 27.2343359,40.2933047 27.2343359,40.7894219 C27.2343359,41.2855391 27.6366562,41.6878594 28.1327734,41.6878594 L35.0087852,41.6878594 C35.7023789,41.6878594 36.2665977,42.2520781 36.2665977,42.9456719 C36.2665078,43.6389063 35.7022891,44.203125 35.0087852,44.203125 Z M44.2025859,44.203125 L37.7913359,44.203125 C37.965543,43.8192227 38.0633828,43.3936328 38.0633828,42.9453125 C38.0633828,42.4969922 37.965543,42.0714023 37.7913359,41.6875 L38.0733555,41.6875 C39.7576562,41.6875 41.1279531,40.3172031 41.1279531,38.6329023 C41.1279531,38.1416367 41.010707,37.6774141 40.803707,37.26575 C42.0970977,36.9105078 43.05025,35.7250195 43.05025,34.3204922 C43.05025,33.6391172 42.8258203,33.0092227 42.4473086,32.500707 L42.4473086,21.1139102 C42.4473086,20.617793 42.0449883,20.2154727 41.5488711,20.2154727 C41.0527539,20.2154727 40.6504336,20.617793 40.6504336,21.1139102 L40.6504336,31.3374102 C40.4393008,31.2911406 40.2203516,31.2659844 39.9955625,31.2659844 L39.9660937,31.2659844 C40.1403008,30.882082 40.2381406,30.4564922 40.2381406,30.0081719 C40.2381406,28.3237812 38.8678437,26.9535742 37.183543,26.9535742 L35.7393047,26.9535742 C37.2728477,26.295918 38.3498945,24.7716289 38.3498945,23 C38.3498945,20.6291133 36.4211289,18.7002578 34.0502422,18.7002578 C31.6794453,18.7002578 29.7505898,20.6291133 29.7505898,23 C29.7505898,24.7716289 30.8277266,26.295918 32.3611797,26.9535742 L27.4500508,26.9535742 L27.4500508,9.87050391 C29.0550195,9.52074219 30.321457,8.25439453 30.6711289,6.64933594 L37.4292656,6.64933594 C37.7789375,8.25439453 39.045375,9.52074219 40.6503437,9.87050391 L40.6503437,12.6637461 C40.6503437,13.1598633 41.0526641,13.5621836 41.5487812,13.5621836 C42.0448984,13.5621836 42.4472187,13.1598633 42.4472187,12.6637461 L42.4472187,9.06837891 C42.4472187,8.57226172 42.0448984,8.16994141 41.5487812,8.16994141 C40.2148711,8.16994141 39.1298281,7.08471875 39.1298281,5.75089844 C39.1298281,5.25478125 38.7275078,4.85246094 38.2313906,4.85246094 L29.8690937,4.85246094 C29.3729766,4.85246094 28.9706562,5.25478125 28.9706562,5.75089844 C28.9706562,7.08480859 27.8855234,8.16994141 26.5517031,8.16994141 C26.0555859,8.16994141 25.6532656,8.57226172 25.6532656,9.06837891 L25.6532656,26.9534844 L23.8984375,26.9534844 L23.8984375,1.79786328 L44.2025859,1.796875 L44.2025859,44.203125 Z M34.0504219,25.5028672 C32.670332,25.5028672 31.5476445,24.3800898 31.5476445,23.0000898 C31.5476445,21.6200898 32.6704219,20.4972227 34.0504219,20.4972227 C35.4304219,20.4972227 36.5531992,21.62 36.5531992,23 C36.5531992,24.38 35.4305117,25.5028672 34.0504219,25.5028672 Z" fill-rule="nonzero"></path>
                        </g>
                    </g>
                </g>
            </g>
        </g>
    </g>
</svg>