<?xml version="1.0" encoding="UTF-8"?>
<svg width="60px" height="53px" viewBox="0 0 60 53" version="1.1" xmlns="http://www.w3.org/2000/svg" xmlns:xlink="http://www.w3.org/1999/xlink">
    <!-- Generator: Sketch 50.2 (55047) - http://www.bohemiancoding.com/sketch -->
    <title>program (1)</title>
    <desc>Created with Sketch.</desc>
    <defs></defs>
    <g id="Page-1" stroke="none" stroke-width="1" fill="none" fill-rule="evenodd">
        <g id="Desktop" transform="translate(-160.000000, -841.000000)" fill="#EA1A3C" fill-rule="nonzero">
            <g id="Benefits" transform="translate(0.000000, 669.000000)">
                <g id="secure-hpp" transform="translate(160.000000, 172.000000)">
                    <g id="program-(1)">
                        <path d="M53.7500391,0 L6.24996094,0 C2.79996094,0.0041015625 0.0041015625,2.79996094 0,6.24996094 L0,46.2499219 C0.0041015625,49.7000391 2.79996094,52.4958984 6.24996094,52.5 L53.7499219,52.5 C57.2000391,52.4958984 59.9957813,49.7000391 59.9998828,46.2500391 L59.9998828,6.24996094 C59.9958984,2.79996094 57.2000391,0.0041015625 53.7500391,0 Z M57.5000391,46.2500391 C57.5000391,48.3210937 55.8210937,50.0000391 53.7500391,50.0000391 L6.24996094,50.0000391 C4.17890625,50.0000391 2.49996094,48.3210937 2.49996094,46.2500391 L2.49996094,6.24996094 C2.49996094,4.17890625 4.17890625,2.49996094 6.24996094,2.49996094 L53.7499219,2.49996094 C55.8209766,2.49996094 57.4999219,4.17890625 57.4999219,6.24996094 L57.4999219,46.2500391 L57.5000391,46.2500391 Z" id="Shape"></path>
                        <rect id="Rectangle-path" x="1.25003906" y="7.5" width="53.7500391" height="2.49996094"></rect>
                        <rect id="Rectangle-path" x="6.24996094" y="3.75" width="11.25" height="2.49996094"></rect>
                        <rect id="Rectangle-path" x="20.0000391" y="3.75" width="2.49996094" height="2.49996094"></rect>
                        <rect id="Rectangle-path" x="24.9999609" y="3.75" width="2.49996094" height="2.49996094"></rect>
                        <rect id="Rectangle-path" x="30" y="3.75" width="2.49996094" height="2.49996094"></rect>
                        <rect id="Rectangle-path" x="35.0000391" y="3.75" width="2.49996094" height="2.49996094"></rect>
                        <path d="M41.25,27.5000391 L18.75,27.5000391 C16.6789453,27.5000391 15,29.1789844 15,31.2500391 L15,42.5000391 C15,44.5710937 16.6789453,46.2500391 18.75,46.2500391 L41.25,46.2500391 C43.3210547,46.2500391 45,44.5710937 45,42.5000391 L45,31.2500391 C45,29.1789844 43.3210547,27.5000391 41.25,27.5000391 Z M42.5000391,42.5000391 C42.5000391,43.1903906 41.9403516,43.7500781 41.25,43.7500781 L18.75,43.7500781 C18.0596484,43.7500781 17.4999609,43.1903906 17.4999609,42.5000391 L17.4999609,31.2500391 C17.4999609,30.5596875 18.0596484,30 18.75,30 L41.25,30 C41.9403516,30 42.5000391,30.5596875 42.5000391,31.2500391 L42.5000391,42.5000391 Z" id="Shape"></path>
                        <path d="M32.4999609,13.7499609 L27.4999219,13.7499609 C21.9796875,13.7561719 17.5061719,18.2296875 17.4999609,23.7499219 L17.4999609,28.7499609 L19.9999219,28.7499609 L19.9999219,23.7499219 C20.0040234,19.6094531 23.3594531,16.2540234 27.4999219,16.2499219 L32.4999609,16.2499219 C36.6404297,16.2540234 39.9958594,19.6094531 39.9999609,23.7499219 L39.9999609,28.7499609 L42.4999219,28.7499609 L42.4999219,23.7499219 C42.4938281,18.2296875 38.0203125,13.7561719 32.4999609,13.7499609 Z" id="Shape"></path>
                        <path d="M32.4999609,17.4999609 L27.4999219,17.4999609 C24.0498047,17.5040625 21.2540625,20.2999219 21.2499609,23.7499219 L21.2499609,28.7499609 L23.7499219,28.7499609 L23.7499219,23.7499219 C23.7499219,21.6788672 25.4288672,19.9999219 27.4999219,19.9999219 L32.4999609,19.9999219 C34.5710156,19.9999219 36.2499609,21.6788672 36.2499609,23.7499219 L36.2499609,28.7499609 L38.7499219,28.7499609 L38.7499219,23.7499219 C38.7458203,20.2999219 35.9500781,17.5041797 32.4999609,17.4999609 Z" id="Shape"></path>
                        <rect id="Rectangle-path" x="23.7500391" y="32.4999609" width="12.5000391" height="2.49996094"></rect>
                        <path d="M31.2500391,33.75 L31.2500391,38.7500391 L28.7500781,38.7500391 L28.7500781,33.75 L26.25,33.75 L26.25,39.9999609 C26.25,40.6903125 26.8096875,41.25 27.5000391,41.25 L32.5000781,41.25 C33.1904297,41.25 33.7501172,40.6903125 33.7501172,39.9999609 L33.7501172,33.75 L31.2500391,33.75 Z" id="Shape"></path>
                        <path d="M8.75003906,43.7499609 L8.75003906,28.7499609 L6.24996094,28.7499609 L6.24996094,45 C6.24996094,45.6903516 6.80964844,46.2500391 7.5,46.2500391 L12.5000391,46.2500391 L12.5000391,43.7500781 L8.75003906,43.7500781 L8.75003906,43.7499609 Z" id="Shape"></path>
                        <rect id="Rectangle-path" x="6.24996094" y="23.7500391" width="2.49996094" height="2.49996094"></rect>
                        <rect id="Rectangle-path" x="6.24996094" y="18.75" width="2.49996094" height="2.49996094"></rect>
                        <rect id="Rectangle-path" x="6.24996094" y="13.7499609" width="2.49996094" height="2.49996094"></rect>
                        <rect id="Rectangle-path" x="7.5" y="38.7500391" width="5.00003906" height="2.49996094"></rect>
                        <rect id="Rectangle-path" x="7.5" y="33.75" width="5.00003906" height="2.49996094"></rect>
                        <path d="M52.5,12.5000391 L47.4999609,12.5000391 L47.4999609,15 L51.2499609,15 L51.2499609,30 L53.7499219,30 L53.7499219,13.7499609 C53.7500391,13.0596094 53.1903516,12.5000391 52.5,12.5000391 Z" id="Shape"></path>
                        <rect id="Rectangle-path" x="51.2499609" y="32.4999609" width="2.49996094" height="2.49996094"></rect>
                        <rect id="Rectangle-path" x="51.2499609" y="37.5" width="2.49996094" height="2.49996094"></rect>
                        <rect id="Rectangle-path" x="51.2499609" y="42.5000391" width="2.49996094" height="2.49996094"></rect>
                        <rect id="Rectangle-path" x="47.4999609" y="17.4999609" width="5.00003906" height="2.49996094"></rect>
                        <rect id="Rectangle-path" x="47.4999609" y="22.5" width="5.00003906" height="2.49996094"></rect>
                    </g>
                </g>
            </g>
        </g>
    </g>
</svg>