<?xml version="1.0" encoding="UTF-8"?>
<svg width="123px" height="40px" viewBox="0 0 123 40" version="1.1" xmlns="http://www.w3.org/2000/svg" xmlns:xlink="http://www.w3.org/1999/xlink">
    <!-- Generator: Sketch 50.2 (55047) - http://www.bohemiancoding.com/sketch -->
    <title>stylopay_logo2</title>
    <desc>Created with Sketch.</desc>
    <defs>
        <polygon id="path-1" points="34.4196338 25.6235225 34.4196338 0.0562043543 0.0252602672 0.0562043543 0.0252602672 25.6235225 34.4196338 25.6235225"></polygon>
        <polygon id="path-3" points="20.840479 0.0545522019 0.0677278575 0.0545522019 0.0677278575 14.713186 20.840479 14.713186 20.840479 0.0545522019"></polygon>
        <path d="M8.24852031,11.100026 C8.24852031,10.491562 8.01896551,9.9817597 7.55985592,9.57092168 C7.100595,9.16008366 6.28633371,8.81461655 5.11707206,8.53467167 C3.70266949,8.19707328 2.59923271,7.69998198 1.80630776,7.04324643 C1.01338282,6.38681352 0.617071666,5.5610518 0.617071666,4.56686919 C0.617071666,3.52380971 1.04410109,2.65234888 1.89815995,1.95263801 C2.7522188,1.25307846 3.85883333,0.903223025 5.21800354,0.903223025 C6.68128297,0.903223025 7.84585366,1.30422515 8.71232088,2.10607806 C9.57863678,2.90823363 9.99643559,3.83886119 9.96586864,4.89796075 L9.94755873,4.95304179 L8.22097979,4.95304179 C8.22097979,4.16949878 7.96221993,3.53591543 7.44500286,3.0519891 C6.92763446,2.56851673 6.18525091,2.32655357 5.21800354,2.32655357 C4.31809425,2.32655357 3.62776532,2.53023238 3.14716806,2.93743869 C2.66641948,3.34449367 2.42627217,3.87563232 2.42627217,4.53070333 C2.42627217,5.11238339 2.68639393,5.5975203 3.20694007,5.98626537 C3.72718358,6.37501044 4.57201182,6.71624055 5.74142479,7.01025833 C7.14947186,7.35905451 8.22097979,7.87339648 8.95564594,8.55298158 C9.69031209,9.23256668 10.0577208,10.0745198 10.0577208,11.078387 C10.0577208,12.1560991 9.61676981,13.0222637 8.73532175,13.6773347 C7.85372238,14.3324057 6.70261931,14.6598656 5.2823152,14.6598656 C3.94750776,14.6598656 2.76750228,14.2971478 1.7419961,13.5717123 C0.716641249,12.8461254 0.219095977,11.8773648 0.249814253,10.6651278 L0.268124161,10.6100468 L1.99455178,10.6100468 C1.99455178,11.4672834 2.3099059,12.1191767 2.94046282,12.5660292 C3.57101974,13.0131844 4.35168764,13.236535 5.2823152,13.236535 C6.19448153,13.236535 6.91689063,13.0448106 7.4495425,12.6613618 C7.98219438,12.277913 8.24852031,11.7575181 8.24852031,11.100026 Z M14.7412289,2.13378504 L14.7412289,4.53071847 L16.6238203,4.53071847 L16.6238203,5.87142744 L14.7412289,5.87142744 L14.7412289,11.9049205 C14.7412289,12.3702343 14.8376207,12.6978454 15.0305557,12.8874513 C15.2233393,13.0773599 15.4789214,13.1722385 15.797302,13.1722385 C15.9014112,13.1722385 16.016113,13.1599814 16.1417099,13.1354674 C16.2670041,13.1111046 16.3788307,13.0803863 16.4768871,13.0437665 L16.7156725,14.2833927 C16.580845,14.3937061 16.3835217,14.4838937 16.1232486,14.5542582 C15.8629755,14.6246228 15.6013406,14.6598807 15.3380411,14.6598807 C14.6033749,14.6598807 14.0186684,14.4381946 13.5840729,13.9942172 C13.1493261,13.5502397 12.9320284,12.8540093 12.9320284,11.9049205 L12.9320284,5.87142744 L11.352534,5.87142744 L11.352534,4.53071847 L12.9320284,4.53071847 L12.9320284,2.13378504 L14.7412289,2.13378504 Z M21.8950916,10.7845357 L22.2164985,12.0335438 L22.2715796,12.0335438 L24.7143634,4.53071847 L26.7255782,4.53071847 L22.5471361,15.9915104 C22.2959423,16.6586871 21.9364023,17.2405185 21.4680621,17.7362479 C20.9997219,18.23228 20.3675005,18.4801447 19.5717004,18.4801447 C19.4247672,18.4801447 19.2378851,18.463348 19.011508,18.4296033 C18.7849796,18.3960099 18.6103546,18.3639297 18.4880867,18.3333628 L18.6717911,16.9098809 C18.63502,16.9036767 18.7436689,16.9098809 18.9977377,16.9283421 C19.2516553,16.946652 19.4123588,16.9557313 19.4798482,16.9557313 C19.8655669,16.9557313 20.1807697,16.784284 20.4257593,16.4415407 C20.6705975,16.0984947 20.8757896,15.7189803 21.0410327,15.3026947 L21.4726018,14.2650828 L17.7809611,4.53071847 L19.8012552,4.53071847 L21.8950916,10.7845357 Z M28.4611154,14.4670062 L28.4611154,0.140940694 L30.2703159,0.140940694 L30.2703159,14.4670062 L28.4611154,14.4670062 Z M34.4396333,9.60424268 C34.4396333,10.6560788 34.6614707,11.5245132 35.1054481,12.2092432 C35.5492743,12.8941246 36.2088849,13.2365653 37.0844314,13.2365653 C37.9477209,13.2365653 38.6027919,12.8941246 39.0496445,12.2092432 C39.496497,11.5245132 39.7201503,10.6560788 39.7201503,9.60424268 L39.7201503,9.40253105 C39.7201503,8.36310329 39.4951351,7.49784664 39.0451048,6.80691242 C38.5950745,6.11582688 37.9353125,5.77035977 37.0661215,5.77035977 C36.2028321,5.77035977 35.5492743,6.11582688 35.1054481,6.80691242 C34.6614707,7.49784664 34.4396333,8.36310329 34.4396333,9.40253105 L34.4396333,9.60424268 Z M32.6304328,9.40691938 C32.6304328,7.93758708 33.0284085,6.72701464 33.8243599,5.77489942 C34.6201599,4.82308684 35.7007471,4.34702923 37.0661215,4.34702923 C38.4436016,4.34702923 39.5317549,4.82157363 40.3307327,5.77035977 C41.1297106,6.71944857 41.5291995,7.93153422 41.5291995,9.40691938 L41.5291995,9.60908497 C41.5291995,11.0906743 41.1312238,12.3029113 40.3354237,13.2456446 C39.5394723,14.1885292 38.4558587,14.6598958 37.0844314,14.6598958 C35.7130042,14.6598958 34.6278773,14.187016 33.8288995,13.2411049 C33.030073,12.2951939 32.6304328,11.0844701 32.6304328,9.60908497 L32.6304328,9.40691938 Z M45.8913005,7.68052202 L49.1973738,7.68052202 C50.103336,7.68052202 50.7798947,7.43765093 51.2268985,6.95175742 C51.6735998,6.46601523 51.897253,5.85331425 51.897253,5.11380581 C51.897253,4.37429738 51.6722379,3.75705675 51.2222076,3.26208395 C50.7723286,2.76695982 50.0972831,2.51954908 49.1973738,2.51954908 L45.8913005,2.51954908 L45.8913005,7.68052202 Z M45.8913005,9.10400389 L45.8913005,14.4671424 L44.0821,14.4671424 L44.0821,1.09606721 L49.1973738,1.09606721 C50.6237308,1.09606721 51.7320099,1.46332463 52.5217571,2.1981421 C53.3115043,2.93265692 53.7064535,3.90020694 53.7064535,5.10003555 C53.7064535,6.31832539 53.3115043,7.29026373 52.5217571,8.01569927 C51.7320099,8.74128612 50.6237308,9.10400389 49.1973738,9.10400389 L45.8913005,9.10400389 Z M58.7939901,13.1354825 C59.4490611,13.1354825 60.0398205,12.9676669 60.5664195,12.6318844 C61.0928672,12.2961018 61.4357618,11.9114424 61.5949521,11.4779062 L61.5949521,9.86633162 L59.5654274,9.86633162 C58.8368141,9.86633162 58.2536209,10.0494307 57.8159989,10.4156289 C57.3782257,10.7819783 57.1594147,11.2124882 57.1594147,11.707007 C57.1594147,12.1465961 57.2971173,12.4946357 57.5726739,12.7509744 C57.8480791,13.0073131 58.2551341,13.1354825 58.7939901,13.1354825 Z M61.7969664,14.4671122 C61.7356812,14.1671928 61.6881662,13.9022288 61.6545728,13.672674 C61.6209794,13.4431192 61.601005,13.2122025 61.5949521,12.97947 C61.2581103,13.4568895 60.8189752,13.8563784 60.2770927,14.1777854 C59.7353615,14.4993437 59.1521682,14.6598958 58.5276642,14.6598958 C57.4929274,14.6598958 56.7046934,14.3952344 56.1629623,13.865609 C55.6210798,13.3361349 55.3502142,12.6060084 55.3502142,11.6753808 C55.3502142,10.7264433 55.7342683,9.98421111 56.5026791,9.44838148 C57.2709387,8.91270318 58.3132415,8.64471271 59.6295878,8.64471271 L61.5949521,8.64471271 L61.5949521,7.66218185 C61.5949521,7.0805018 61.4173006,6.61972766 61.0623002,6.28001077 C60.7071485,5.94029388 60.2050636,5.77035977 59.5561968,5.77035977 C58.9745167,5.77035977 58.5014856,5.91895754 58.1374059,6.21569911 C57.7730236,6.51274332 57.5909838,6.86940823 57.5909838,7.28569382 L55.8645562,7.28569382 L55.8460949,7.23061278 C55.8093238,6.50820368 56.1505539,5.8470798 56.8700879,5.24693852 C57.5894706,4.64694855 58.5184336,4.34702923 59.6572796,4.34702923 C60.7835659,4.34702923 61.6898307,4.63317829 62.3754687,5.20562773 C63.0611066,5.7782285 63.4040013,6.60308229 63.4040013,7.68049176 L63.4040013,12.4649767 C63.4040013,12.8202797 63.4224625,13.163023 63.4592337,13.4936606 C63.4958535,13.8242982 63.5631916,14.1487316 63.6612479,14.4671122 L61.7969664,14.4671122 Z M68.9324586,10.7845357 L69.2538656,12.0335438 L69.3089467,12.0335438 L71.7517305,4.53071847 L73.7629453,4.53071847 L69.5845032,15.9915104 C69.3333094,16.6586871 68.9737694,17.2405185 68.5054292,17.7362479 C68.037089,18.23228 67.4048675,18.4801447 66.6090675,18.4801447 C66.4621343,18.4801447 66.2752521,18.463348 66.0488751,18.4296033 C65.8223467,18.3960099 65.6477216,18.3639297 65.5254538,18.3333628 L65.7091582,16.9098809 C65.6723871,16.9036767 65.7810359,16.9098809 66.0351048,16.9283421 C66.2890224,16.946652 66.4497259,16.9557313 66.5172153,16.9557313 C66.9029339,16.9557313 67.2181367,16.784284 67.4631263,16.4415407 C67.7079646,16.0984947 67.9131566,15.7189803 68.0783998,15.3026947 L68.5099689,14.2650828 L64.8183282,4.53071847 L66.8386223,4.53071847 L68.9324586,10.7845357 Z" id="path-5"></path>
    </defs>
    <g id="Page-1" stroke="none" stroke-width="1" fill="none" fill-rule="evenodd">
        <g id="Desktop" transform="translate(-159.000000, -3161.000000)">
            <g id="footer" transform="translate(1.000000, 3141.000000)">
                <g id="stylopay_logo2" transform="translate(158.000000, 20.000000)">
                    <g>
                        <g id="Group-3" transform="translate(4.571994, 12.414523)">
                            <mask id="mask-2" fill="white">
                                <use xlink:href="#path-1"></use>
                            </mask>
                            <g id="Clip-2"></g>
                            <path d="M31.014236,0.0562043543 L31.014236,1.41980158 L32.3763785,2.10165215 L31.014236,0.0562043543 Z M31.6953592,14.7147447 L33.0575017,14.3739233 L32.3763785,12.6694008 L31.6953592,14.7147447 Z M33.3980114,14.0331019 L34.4196442,10.9648783 L32.7169921,10.9648783 L33.3980114,14.0331019 Z M34.0791346,10.2831316 L33.0575017,7.55593716 L32.7169921,10.2831316 L34.0791346,10.2831316 Z M34.4196442,6.87408659 L33.0575017,6.19244384 L34.0791346,9.26045967 L34.4196442,6.87408659 Z M32.7169921,7.21511578 L30.6737264,6.87408659 L32.0358689,9.94231024 L32.7169921,7.21511578 Z M29.9926032,7.89675854 L28.9709703,10.623953 L31.3547457,10.623953 L29.9926032,7.89675854 Z M32.3763785,11.3059075 L29.6520935,11.6467288 L31.014236,14.3739233 L32.3763785,11.3059075 Z M27.9494414,14.7147447 L30.3332167,14.7147447 L29.3115839,12.6694008 L27.9494414,14.7147447 Z M28.9709703,11.9876541 L25.2251564,11.9876541 L26.9278085,15.3965952 L28.9709703,11.9876541 Z M30.3332167,18.1237897 L32.7169921,15.0557739 L30.3332167,15.0557739 L30.3332167,18.1237897 Z M29.6520935,19.1465656 L29.6520935,16.4192672 L27.9494414,18.4646111 L29.6520935,19.1465656 Z M29.3115839,15.7374166 C29.171099,15.5788516 26.2466853,16.0783419 26.2466853,16.0783419 L27.2683182,18.4646111 C27.2683182,18.4646111 29.4520688,15.8960856 29.3115839,15.7374166 Z M25.565666,16.4192672 L21.4791346,16.7600886 L23.5224003,19.8282083 L25.565666,16.4192672 Z M26.9278085,18.8054325 L25.9061757,16.4192672 L24.2035235,19.4873869 L26.9278085,18.8054325 Z M25.9061757,22.2145814 L27.2683182,19.4873869 L23.8629099,20.5100589 L25.9061757,22.2145814 Z M19.0953592,20.8508803 L20.4576056,23.5780747 L24.8845428,22.2145814 L22.841381,20.5100589 L19.0953592,20.8508803 Z M21.1386249,17.4419391 L19.0953592,20.1691336 L22.5007674,19.8282083 L21.1386249,17.4419391 Z M19.4359728,23.5780747 L17.7333206,21.5328347 L16.3710742,23.5780747 L19.4359728,23.5780747 Z M13.3062796,21.1919095 L15.3495453,23.5780747 L17.0521974,21.1919095 L13.3062796,21.1919095 Z M18.0738303,25.6235225 L20.1169921,24.2599253 L16.0305646,24.2599253 L18.0738303,25.6235225 Z M12.9657699,25.6235225 L14.3279124,24.2599253 L11.9441371,24.2599253 L12.9657699,25.6235225 Z M9.90087135,24.9416719 L11.9441371,25.2825972 L9.90087135,23.9188961 L9.90087135,24.9416719 Z M10.9225042,23.5780747 L14.3279124,23.9188961 L12.9657699,21.8736561 L10.9225042,23.5780747 Z M12.2846467,21.8736561 L8.8792385,20.5100589 L9.90087135,23.2372533 L12.2846467,21.8736561 Z M8.1982192,23.2372533 L9.5603617,22.8963281 L6.49546314,20.8508803 L8.1982192,23.2372533 Z M3.09015883,21.8736561 L5.47393419,23.2372533 L3.09015883,20.5100589 L3.09015883,21.8736561 Z M6.15495349,23.2372533 L6.15495349,21.8736561 L4.45230134,20.5100589 L6.15495349,23.2372533 Z M4.11168778,19.4873869 L6.15495349,21.1919095 L5.81433993,19.8282083 L4.11168778,19.4873869 Z M2.06852598,20.5100589 L2.74954527,19.8282083 L1.04689312,17.4419391 L2.06852598,20.5100589 Z M1.38740277,14.0331019 L0.0252602672,15.0557739 L2.06852598,17.1011178 L1.38740277,14.0331019 Z M33.3980114,3.46524938 L33.3980114,5.51048936 L34.0791346,5.51048936 L33.3980114,3.46524938 Z M32.3763785,5.16966799 L32.7169921,2.7832949 L31.3547457,2.10165215 L32.3763785,5.16966799 Z" id="Fill-1" fill="#53258E" mask="url(#mask-2)"></path>
                        </g>
                        <path d="M23.1566304,23.9666734 L28.2646907,23.6258521 L25.8809154,20.216807 L23.1566304,23.9666734 Z M28.94571,23.2849268 L30.3079565,19.1941351 L26.221425,19.5351643 L28.94571,23.2849268 Z M30.3079565,17.1487912 L30.9889758,14.0806714 L28.6052004,14.4217006 L30.3079565,17.1487912 Z M26.5619347,18.5123884 L30.6484661,18.1714631 L27.9241811,14.762522 L26.5619347,18.5123884 Z M27.2430579,14.762522 L23.49714,15.1033434 L26.221425,18.1714631 L27.2430579,14.762522 Z M22.8161207,15.785194 L20.0917318,19.1941351 L25.1998961,18.8532098 L22.8161207,15.785194 Z M20.0917318,19.5351643 L22.8161207,23.2849268 L25.1998961,19.8759857 L20.0917318,19.5351643 Z M17.7079565,23.9666734 L22.1349975,23.9666734 L19.4107125,20.216807 L17.7079565,23.9666734 Z M14.9836714,19.1941351 L16.6863236,23.2849268 L19.070099,19.8759857 L14.9836714,19.1941351 Z M12.2593864,23.2849268 L16.0053043,23.6258521 L13.9620386,19.8759857 L12.2593864,23.2849268 Z M14.3026522,19.1941351 L10.8972439,19.1941351 L12.5998961,22.6031801 L14.3026522,19.1941351 Z M8.17295893,23.2849268 L11.2377536,23.6258521 L9.53510143,19.8759857 L8.17295893,23.2849268 Z M6.81071252,19.5351643 L7.49183572,22.6031801 L9.19448788,19.1941351 L6.81071252,19.5351643 Z M6.47020287,20.216807 C6.3035329,20.4994394 5.10806037,23.2849268 5.10806037,23.2849268 L6.81071252,23.9666734 C6.81071252,23.9666734 6.63697674,19.9342786 6.47020287,20.216807 Z M3.06489857,20.5577323 L3.74591786,22.9440015 L4.76755072,19.8759857 L4.42704107,19.5351643 L3.06489857,20.5577323 Z M17.3674468,14.762522 L14.6431618,18.5123884 L18.7295893,19.1941351 L17.3674468,14.762522 Z M8.85397823,15.785194 L6.81071252,18.5123884 L8.17295893,18.5123884 L8.85397823,15.785194 Z M28.6052004,13.7398501 L32.3511183,13.3990287 L28.2646907,9.98987976 L28.6052004,13.7398501 Z M28.6052004,9.30823701 L32.3511183,12.7170742 L32.0106086,9.64905839 L28.6052004,9.30823701 Z M32.0106086,8.62638644 L32.0106086,7.94453587 L29.9673429,6.92186393 L32.0106086,8.62638644 Z M26.9025482,5.89919198 L23.49714,4.87641613 L23.8376497,6.58104255 L26.9025482,5.89919198 Z M30.6484661,5.55837061 L26.9025482,4.53559476 L28.94571,6.92186393 L30.6484661,5.55837061 Z M2.38377536,17.8305379 L4.76755072,18.5123884 L4.42704107,15.4442687 L2.38377536,17.8305379 Z" id="Fill-4" fill="#DA1D61"></path>
                        <path d="M27.5836195,9.08201682 L23.8377016,7.37770213 L27.5836195,7.03667293 L27.5836195,9.08201682 Z M22.8160688,7.7185235 L27.2431098,9.76386739 L23.1565784,10.445718 L22.8160688,7.7185235 Z M25.5403538,3.62783572 C25.6605764,3.63521326 27.9241291,3.62783572 27.9241291,3.62783572 L26.221477,4.30958238 C26.221477,4.30958238 25.4201311,3.62035428 25.5403538,3.62783572 Z M27.5836195,10.445718 L27.5836195,13.5138377 L23.4970881,11.1274646 L27.5836195,10.445718 Z M19.4106606,18.6271974 L18.0485181,14.5365096 L22.1349456,15.5591816 L19.4106606,18.6271974 Z M26.5619866,14.1955844 L22.4755591,14.877331 L18.0485181,13.854763 L22.4755591,11.4683899 L26.5619866,14.1955844 Z M16.6863756,14.1955844 L14.3026002,18.2862721 L13.621477,14.1955844 L16.6863756,14.1955844 Z M13.621477,18.6271974 L10.2161727,18.6271974 L12.599948,14.5365096 L13.621477,18.6271974 Z M11.9188248,14.1955844 L9.19453983,17.9454508 L9.53504948,14.1955844 L11.9188248,14.1955844 Z M6.12964127,18.2862721 L6.12964127,15.900003 L8.17290698,14.5365096 L6.12964127,18.2862721 Z M2.04321376,15.2182563 L2.04321376,17.9454508 L5.1954478e-05,18.2862721 L2.04321376,15.2182563 Z M5.10811232,13.5138377 L7.15127412,14.1955844 L5.10811232,16.5819574 L5.10811232,13.5138377 Z M12.2593345,12.4911658 C12.2593345,12.4911658 11.2199332,12.1716457 11.2377016,12.1501366 C11.255574,12.1286274 10.897192,13.1728085 10.897192,13.1728085 L8.85403018,13.1728085 L7.49188768,13.854763 L8.85403018,11.4683899 L8.85403018,12.4911658 L9.53504948,12.1501366 L9.87566304,10.445718 L12.2593345,9.08201682 L10.897192,11.1274646 L13.2809673,9.76386739 L12.2593345,12.4911658 Z M14.6336541,12.4058565 L14.3026002,9.42304602 L17.0268852,9.42304602 L14.8417838,12.2355497 L17.0268852,10.445718 L17.0268852,13.5138377 L13.2809673,13.5138377 L14.6336541,12.4058565 Z M22.4755591,10.445718 L17.7080084,13.1728085 L18.0485181,9.76386739 L22.4755591,10.445718 Z M22.1349456,9.83992875 L18.0485181,8.81715289 L22.1349456,7.45365957 L22.1349456,9.83992875 Z M18.3890277,8.05934488 L18.3890277,6.0141049 L22.8160688,6.35503018 L18.3890277,8.05934488 Z M22.8160688,5.67317961 L18.7296413,5.33225433 L23.1565784,3.9686571 L22.8160688,5.67317961 Z M25.5403538,4.30958238 L23.8377016,4.30958238 L24.2463756,3.696 L22.8160688,2.2642385 L26.9024963,2.60505987 L24.9521252,3.72073033 L25.5403538,4.30958238 Z" id="Fill-6" fill="#EC440F"></path>
                        <path d="M6.81076447,25.765805 L6.12964127,28.1519703 L8.17290698,27.8111489 L6.81076447,25.765805 Z M26.221477,28.1519703 L30.6485181,27.8111489 L28.6052524,24.7430292 L26.221477,28.1519703 Z M23.4970881,24.7430292 L24.8593345,27.8111489 L27.2431098,24.7430292 L23.4970881,24.7430292 Z M20.7728031,28.4929995 L24.8593345,28.8338209 L22.8160688,25.0839545 L20.7728031,28.4929995 Z M22.4755591,32.5836873 L24.8593345,29.5156714 L20.7728031,29.1747462 L22.4755591,32.5836873 Z M18.0485181,32.5836873 L21.7944359,32.9246126 L19.7512741,29.5156714 L18.0485181,32.5836873 Z M14.6431098,29.1747462 L17.0268852,33.2654339 L19.0701509,29.5156714 L14.6431098,29.1747462 Z M13.621477,32.5836873 L16.3458659,33.2654339 L14.6431098,30.5383434 L13.621477,32.5836873 Z M22.4755591,24.7430292 L17.3674988,24.4022078 L20.0917838,28.4929995 L22.4755591,24.7430292 Z M18.7296413,28.8338209 L16.6863756,25.0839545 L14.6431098,28.4929995 L18.7296413,28.8338209 Z M16.3458659,24.4022078 L12.599948,24.0612825 L14.3026002,27.8111489 L16.3458659,24.4022078 Z M10.5566823,32.242762 L13.2809673,32.5836873 L10.5566823,29.5156714 L10.5566823,32.242762 Z M11.2377016,28.8338209 L13.2809673,31.5610153 L14.6431098,28.8338209 L11.2377016,28.8338209 Z M11.5783152,24.4022078 L10.2161727,27.8111489 L13.2809673,28.1519703 L11.5783152,24.4022078 Z M9.53504948,31.2199861 L9.53504948,28.4929995 L7.83239733,28.4929995 L9.53504948,31.2199861 Z M7.83239733,31.5610153 L9.19453983,31.5610153 L7.49188768,29.1747462 L7.83239733,31.5610153 Z M10.5566823,24.4022078 L7.15127412,23.7203572 L8.85403018,27.8111489 L10.5566823,24.4022078 Z M29.2862716,23.7203572 L33.0321895,23.379432 L34.394332,19.2886403 L31.3295374,19.2886403 L29.2862716,23.7203572 Z M35.0754552,14.8570272 L35.4159649,18.2659683 L37.1187209,18.9478189 L35.0754552,14.8570272 Z M34.394332,17.925147 L34.394332,14.5161019 L31.670047,14.1751766 L34.394332,17.925147 Z M31.670047,14.8570272 L30.6485181,18.2659683 L34.0538224,18.6068936 L31.670047,14.8570272 Z M4.76749876,23.379432 L5.78913162,27.1292984 L6.81076447,24.4022078 L4.76749876,23.379432 Z M3.74586591,27.1292984 L4.08647947,24.0612825 L3.06484661,24.7430292 L3.74586591,27.1292984 Z M2.3837234,20.3114161 L1.70270411,24.0612825 L3.74586591,23.379432 L2.3837234,20.3114161 Z M35.4159649,13.8343553 L35.7564745,13.4935339 L32.6916799,10.0844889 L33.0321895,13.4935339 L35.4159649,13.8343553 Z M35.4159649,12.1298328 L34.394332,11.1071608 L35.0754552,12.4708619 L35.4159649,12.1298328 Z" id="Fill-8" fill="#9D2066"></path>
                        <g id="Group-12" transform="translate(1.039090, 0.049357)">
                            <mask id="mask-4" fill="white">
                                <use xlink:href="#path-3"></use>
                            </mask>
                            <g id="Clip-11"></g>
                            <path d="M16.7540515,8.57694656 L16.7540515,6.87252796 L13.3486432,8.91776794 L16.7540515,8.57694656 Z M0.0677278575,14.713186 L1.0892568,13.6905141 L0.748747155,13.3494849 L0.0677278575,14.713186 Z M9.34503117,8.47553142 L8.24058288,7.55427462 L7.72976645,9.08828253 L7.55945967,8.91776794 L6.19731717,10.6223944 L7.59052845,9.50661999 L7.21895002,10.6223944 L10.2837447,9.25869322 L9.47730727,8.58588273 L9.94323503,8.23602128 L9.34503117,8.47553142 Z M4.83517467,12.326813 L5.85680752,9.25869322 L3.13252251,12.326813 L4.83517467,12.326813 Z M4.15415537,7.55427462 L1.0892568,10.2813652 L3.13252251,10.6223944 L4.15415537,7.55427462 Z M11.6459911,6.53160267 L9.94323503,8.23602128 L11.3053775,7.55427462 L11.6459911,6.53160267 Z M14.7107857,6.19067739 L11.6459911,7.55427462 L13.3486432,8.23602128 L14.7107857,6.19067739 Z M15.7324186,5.16790153 L18.4567036,4.48625878 L17.4350708,3.80440821 L15.7324186,5.16790153 Z M18.116194,3.12255764 L19.1378268,4.1453335 L20.840479,3.12255764 L18.116194,3.12255764 Z M9.94323503,5.16790153 L11.9865007,4.48625878 L11.6459911,5.50893073 L14.7107857,4.48625878 L14.3702761,4.1453335 L16.0729283,2.78173627 L13.6891529,3.80440821 L13.0081336,3.12255764 L12.66752,3.80440821 L11.6459911,3.80440821 L9.94323503,5.16790153 Z M19.1378268,0.054437902 L15.7324186,0.73639238 L17.4350708,2.0998857 L19.1378268,0.054437902 Z M11.9865007,1.41813904 L8.24058288,3.12255764 L10.2837447,3.80440821 L11.9865007,1.41813904 Z" id="Fill-10" fill="#F9A42A" mask="url(#mask-4)"></path>
                        </g>
                        <path d="M36.9457229,28.8338521 L36.9457229,30.5382707 L37.9673558,27.4702548 L36.9457229,28.8338521 Z M35.9240901,31.5610465 L35.9240901,29.5157026 L34.5619476,31.9018679 L35.9240901,31.5610465 Z M31.1566432,36.333481 L32.8592954,35.310809 L32.1781722,34.9699876 L31.1566432,36.333481 Z M32.5187857,34.2881371 L30.47552,35.310809 L31.4971529,35.6518382 L32.5187857,34.2881371 Z M33.8809283,32.5837185 L33.199805,34.6290623 C33.199805,34.6290623 35.3328481,32.5343617 35.2430708,32.5837185 C35.1532934,32.6329713 33.8809283,32.5837185 33.8809283,32.5837185 Z M31.1566432,34.2881371 L33.8809283,32.5837185 L32.1781722,32.2427932 L31.1566432,34.2881371 Z M29.1133775,37.0153315 L30.47552,35.9927635 L29.7943968,35.9927635 L29.1133775,37.0153315 Z M25.7079693,36.333481 L28.0917447,37.3562568 L29.4538872,35.310809 L25.7079693,36.333481 Z M25.0268461,39.0606754 L25.7079693,38.3788248 L23.324194,39.0606754 L25.0268461,39.0606754 Z M22.9836843,38.3788248 L27.0701118,38.0380035 L25.0268461,37.0153315 L22.9836843,38.3788248 Z M19.9187857,39.742526 L21.9620515,39.4016007 L19.5782761,38.719854 L19.9187857,39.742526 Z M15.4918486,38.3788248 L18.8972568,39.4016007 L18.5566432,38.3788248 L15.4918486,38.3788248 Z M18.5566432,37.0153315 L18.5566432,38.3788248 L21.6215418,38.719854 L18.5566432,37.0153315 Z M14.4702157,38.0380035 L14.4702157,36.333481 L11.4054211,35.6518382 L14.4702157,38.0380035 Z" id="Fill-13" fill="#0067B4"></path>
                        <g id="Rectangle-8" transform="translate(49.000000, 13.000000)">
                            <mask id="mask-6" fill="white">
                                <use xlink:href="#path-5"></use>
                            </mask>
                            <use id="Mask" fill="#FFFFFF" xlink:href="#path-5"></use>
                            <rect fill="#333333" mask="url(#mask-6)" x="-5" y="-19" width="135" height="53"></rect>
                        </g>
                    </g>
                </g>
            </g>
        </g>
    </g>
</svg>