<?xml version="1.0" encoding="UTF-8"?>
<svg width="154px" height="50px" viewBox="0 0 154 50" version="1.1" xmlns="http://www.w3.org/2000/svg" xmlns:xlink="http://www.w3.org/1999/xlink">
    <!-- Generator: Sketch 50.2 (55047) - http://www.bohemiancoding.com/sketch -->
    <title>stylopay_logo</title>
    <desc>Created with Sketch.</desc>
    <defs>
        <polygon id="path-1" points="43.0245423 32.0294031 43.0245423 0.0702554429 0.031575334 0.0702554429 0.031575334 32.0294031 43.0245423 32.0294031"></polygon>
        <polygon id="path-3" points="26.0505987 0.0681902524 0.0846598219 0.0681902524 0.0846598219 18.3914826 26.0505987 18.3914826 26.0505987 0.0681902524"></polygon>
    </defs>
    <g id="Page-1" stroke="none" stroke-width="1" fill="none" fill-rule="evenodd">
        <g id="Desktop" transform="translate(-159.000000, -26.000000)">
            <g id="screen1">
                <g id="header">
                    <g id="stylopay_logo" transform="translate(159.000000, 26.000000)">
                        <g>
                            <g id="Group-3" transform="translate(5.714993, 15.518153)">
                                <mask id="mask-2" fill="white">
                                    <use xlink:href="#path-1"></use>
                                </mask>
                                <g id="Clip-2"></g>
                                <path d="M38.767795,0.0702554429 L38.767795,1.77475198 L40.4704732,2.62706519 L38.767795,0.0702554429 Z M39.619199,18.3934309 L41.3218772,17.9674041 L40.4704732,15.836751 L39.619199,18.3934309 Z M41.7475142,17.5413774 L43.0245553,13.7060978 L40.8962401,13.7060978 L41.7475142,17.5413774 Z M42.5989182,12.8539145 L41.3218772,9.44492145 L40.8962401,12.8539145 L42.5989182,12.8539145 Z M43.0245553,8.59260824 L41.3218772,7.7405548 L42.5989182,11.5755746 L43.0245553,8.59260824 Z M40.8962401,9.01889473 L38.342158,8.59260824 L40.0448361,12.4278878 L40.8962401,9.01889473 Z M37.490754,9.87094817 L36.2137129,13.2799412 L39.1934321,13.2799412 L37.490754,9.87094817 Z M40.4704732,14.1323843 L37.0651169,14.5584111 L38.767795,17.9674041 L40.4704732,14.1323843 Z M34.9368017,18.3934309 L37.9165209,18.3934309 L36.6394798,15.836751 L34.9368017,18.3934309 Z M36.2137129,14.9845677 L31.5314454,14.9845677 L33.6597606,19.2457441 L36.2137129,14.9845677 Z M37.9165209,22.6547371 L40.8962401,18.8197173 L37.9165209,18.8197173 L37.9165209,22.6547371 Z M37.0651169,23.933207 L37.0651169,20.524084 L34.9368017,23.0807639 L37.0651169,23.933207 Z M36.6394798,19.6717708 C36.4638737,19.4735644 32.8083566,20.0979274 32.8083566,20.0979274 L34.0853977,23.0807639 C34.0853977,23.0807639 36.815086,19.870107 36.6394798,19.6717708 Z M31.9570825,20.524084 L26.8489182,20.9501107 L29.4030004,24.7852604 L31.9570825,20.524084 Z M33.6597606,23.5067906 L32.3827196,20.524084 L30.2544044,24.3592337 L33.6597606,23.5067906 Z M32.3827196,27.7682267 L34.0853977,24.3592337 L29.8286374,25.6375736 L32.3827196,27.7682267 Z M23.869199,26.0636003 L25.5720071,29.4725934 L31.1056785,27.7682267 L28.5517262,25.6375736 L23.869199,26.0636003 Z M26.4232812,21.8024239 L23.869199,25.211417 L28.1259593,24.7852604 L26.4232812,21.8024239 Z M24.294966,29.4725934 L22.1666508,26.9160434 L20.4638428,29.4725934 L24.294966,29.4725934 Z M16.6328495,26.4898868 L19.1869316,29.4725934 L21.3152468,26.4898868 L16.6328495,26.4898868 Z M22.5922879,32.0294031 L25.1462401,30.3249066 L20.0382057,30.3249066 L22.5922879,32.0294031 Z M16.2072124,32.0294031 L17.9098905,30.3249066 L14.9301713,30.3249066 L16.2072124,32.0294031 Z M12.3760892,31.1770899 L14.9301713,31.6032465 L12.3760892,29.8986201 L12.3760892,31.1770899 Z M13.6531303,29.4725934 L17.9098905,29.8986201 L16.2072124,27.3420701 L13.6531303,29.4725934 Z M15.3558084,27.3420701 L11.0990481,25.6375736 L12.3760892,29.0465667 L15.3558084,27.3420701 Z M10.247774,29.0465667 L11.9504521,28.6204101 L8.11932892,26.0636003 L10.247774,29.0465667 Z M3.86269854,27.3420701 L6.84241774,29.0465667 L3.86269854,25.6375736 L3.86269854,27.3420701 Z M7.69369186,29.0465667 L7.69369186,27.3420701 L5.56537667,25.6375736 L7.69369186,29.0465667 Z M5.13960972,24.3592337 L7.69369186,26.4898868 L7.26792491,24.7852604 L5.13960972,24.3592337 Z M2.58565747,25.6375736 L3.43693159,24.7852604 L1.3086164,21.8024239 L2.58565747,25.6375736 Z M1.73425346,17.5413774 L0.031575334,18.8197173 L2.58565747,21.3763972 L1.73425346,17.5413774 Z M41.7475142,4.33156173 L41.7475142,6.8881117 L42.5989182,6.8881117 L41.7475142,4.33156173 Z M40.4704732,6.46208498 L40.8962401,3.47911863 L39.1934321,2.62706519 L40.4704732,6.46208498 Z" id="Fill-1" fill="#53258E" mask="url(#mask-2)"></path>
                            </g>
                            <path d="M28.945788,29.9583418 L35.3308634,29.5323151 L32.3511442,25.2710088 L28.945788,29.9583418 Z M36.1821376,29.1061585 L37.8849456,23.9926689 L32.7767813,24.4189553 L36.1821376,29.1061585 Z M37.8849456,21.435989 L38.7362197,17.6008393 L35.7565005,18.0271258 L37.8849456,21.435989 Z M33.2024184,23.1404855 L38.3105826,22.7143289 L34.9052264,18.4531525 L33.2024184,23.1404855 Z M34.0538224,18.4531525 L29.371425,18.8791792 L32.7767813,22.7143289 L34.0538224,18.4531525 Z M28.5201509,19.7314925 L25.1146648,23.9926689 L31.4998701,23.5665122 L28.5201509,19.7314925 Z M25.1146648,24.4189553 L28.5201509,29.1061585 L31.4998701,24.8449821 L25.1146648,24.4189553 Z M22.1349456,29.9583418 L27.6687469,29.9583418 L24.2633906,25.2710088 L22.1349456,29.9583418 Z M18.7295893,23.9926689 L20.8579045,29.1061585 L23.8376237,24.8449821 L18.7295893,23.9926689 Z M15.3242331,29.1061585 L20.0066304,29.5323151 L17.4525482,24.8449821 L15.3242331,29.1061585 Z M17.8783152,23.9926689 L13.6215549,23.9926689 L15.7498701,28.2539751 L17.8783152,23.9926689 Z M10.2161987,29.1061585 L14.047192,29.5323151 L11.9188768,24.8449821 L10.2161987,29.1061585 Z M8.51339065,24.4189553 L9.36479466,28.2539751 L11.4931098,23.9926689 L8.51339065,24.4189553 Z M8.08775359,25.2710088 C7.87941613,25.6242992 6.38507546,29.1061585 6.38507546,29.1061585 L8.51339065,29.9583418 C8.51339065,29.9583418 8.29622093,24.9178482 8.08775359,25.2710088 Z M3.83112321,25.6971654 L4.68239733,28.6800019 L5.9594384,24.8449821 L5.53380134,24.4189553 L3.83112321,25.6971654 Z M21.7093085,18.4531525 L18.3039523,23.1404855 L23.4119866,23.9926689 L21.7093085,18.4531525 Z M11.0674728,19.7314925 L8.51339065,23.1404855 L10.2161987,23.1404855 L11.0674728,19.7314925 Z M35.7565005,17.1748126 L40.4388978,16.7487859 L35.3308634,12.4873497 L35.7565005,17.1748126 Z M35.7565005,11.6352963 L40.4388978,15.8963428 L40.0132608,12.061323 L35.7565005,11.6352963 Z M40.0132608,10.7829831 L40.0132608,9.93066984 L37.4591786,8.65232991 L40.0132608,10.7829831 Z M33.6281853,7.37398998 L29.371425,6.09552016 L29.7970621,8.22630319 L33.6281853,7.37398998 Z M38.3105826,6.94796326 L33.6281853,5.66949344 L36.1821376,8.65232991 L38.3105826,6.94796326 Z M2.9797192,22.2881723 L5.9594384,23.1404855 L5.53380134,19.3053358 L2.9797192,22.2881723 Z" id="Fill-4" fill="#DA1D61"></path>
                            <path d="M34.4795244,11.352521 L29.797127,9.22212766 L34.4795244,8.79584117 L34.4795244,11.352521 Z M28.520086,9.64815438 L34.0538873,12.2048342 L28.945723,13.0571475 L28.520086,9.64815438 Z M31.9254422,4.53479466 C32.0757206,4.54401658 34.9051614,4.53479466 34.9051614,4.53479466 L32.7768462,5.38697798 C32.7768462,5.38697798 31.7751639,4.52544285 31.9254422,4.53479466 Z M34.4795244,13.0571475 L34.4795244,16.8922971 L29.3713601,13.9093308 L34.4795244,13.0571475 Z M24.2633257,23.2839968 L22.5606476,18.1706371 L27.668682,19.448977 L24.2633257,23.2839968 Z M33.2024833,17.7444805 L28.0944489,18.5966638 L22.5606476,17.3184537 L28.0944489,14.3354874 L33.2024833,17.7444805 Z M20.8579694,17.7444805 L17.8782502,22.8578402 L17.0268462,17.7444805 L20.8579694,17.7444805 Z M17.0268462,23.2839968 L12.7702159,23.2839968 L15.7499351,18.1706371 L17.0268462,23.2839968 Z M14.898531,17.7444805 L11.4931748,22.4318135 L11.9188119,17.7444805 L14.898531,17.7444805 Z M7.66205158,22.8578402 L7.66205158,19.8750037 L10.2161337,18.1706371 L7.66205158,22.8578402 Z M2.55401719,19.0228204 L2.55401719,22.4318135 L6.49430975e-05,22.8578402 L2.55401719,19.0228204 Z M6.3851404,16.8922971 L8.93909265,17.7444805 L6.3851404,20.7274468 L6.3851404,16.8922971 Z M15.3241681,15.6139572 C15.3241681,15.6139572 14.0249165,15.2145571 14.047127,15.1876707 C14.0694675,15.1607843 13.62149,16.4660106 13.62149,16.4660106 L11.0675377,16.4660106 L9.3648596,17.3184537 L11.0675377,14.3354874 L11.0675377,15.6139572 L11.9188119,15.1876707 L12.3445788,13.0571475 L15.3241681,11.352521 L13.62149,13.9093308 L16.6012092,12.2048342 L15.3241681,15.6139572 Z M18.2920677,15.5073206 L17.8782502,11.7788075 L21.2836065,11.7788075 L18.5522297,15.2944372 L21.2836065,13.0571475 L21.2836065,16.8922971 L16.6012092,16.8922971 L18.2920677,15.5073206 Z M28.0944489,13.0571475 L22.1350105,16.4660106 L22.5606476,12.2048342 L28.0944489,13.0571475 Z M27.668682,12.2999109 L22.5606476,11.0214411 L27.668682,9.31707447 L27.668682,12.2999109 Z M22.9862846,10.0741811 L22.9862846,7.51763112 L28.520086,7.94378773 L22.9862846,10.0741811 Z M28.520086,7.09147452 L23.4120516,6.66531791 L28.945723,4.96082138 L28.520086,7.09147452 Z M31.9254422,5.38697798 L29.797127,5.38697798 L30.3079694,4.62 L28.520086,2.83029812 L33.6281204,3.25632484 L31.1901565,4.65091291 L31.9254422,5.38697798 Z" id="Fill-6" fill="#EC440F"></path>
                            <path d="M8.51345559,32.2072563 L7.66205158,35.1899629 L10.2161337,34.7639362 L8.51345559,32.2072563 Z M32.7768462,35.1899629 L38.3106476,34.7639362 L35.7565654,30.9287865 L32.7768462,35.1899629 Z M29.3713601,30.9287865 L31.0741681,34.7639362 L34.0538873,30.9287865 L29.3713601,30.9287865 Z M25.9660038,35.6162494 L31.0741681,36.0422761 L28.520086,31.3549431 L25.9660038,35.6162494 Z M28.0944489,40.7296091 L31.0741681,36.8945893 L25.9660038,36.4684327 L28.0944489,40.7296091 Z M22.5606476,40.7296091 L27.2430449,41.1557657 L24.6890927,36.8945893 L22.5606476,40.7296091 Z M18.3038873,36.4684327 L21.2836065,41.5817924 L23.8376886,36.8945893 L18.3038873,36.4684327 Z M17.0268462,40.7296091 L20.4323324,41.5817924 L18.3038873,38.1729292 L17.0268462,40.7296091 Z M28.0944489,30.9287865 L21.7093735,30.5027598 L25.1147297,35.6162494 L28.0944489,30.9287865 Z M23.4120516,36.0422761 L20.8579694,31.3549431 L18.3038873,35.6162494 L23.4120516,36.0422761 Z M20.4323324,30.5027598 L15.7499351,30.0766032 L17.8782502,34.7639362 L20.4323324,30.5027598 Z M13.1958529,40.3034525 L16.6012092,40.7296091 L13.1958529,36.8945893 L13.1958529,40.3034525 Z M14.047127,36.0422761 L16.6012092,39.4512692 L18.3038873,36.0422761 L14.047127,36.0422761 Z M14.472894,30.5027598 L12.7702159,34.7639362 L16.6012092,35.1899629 L14.472894,30.5027598 Z M11.9188119,39.0249827 L11.9188119,35.6162494 L9.79049666,35.6162494 L11.9188119,39.0249827 Z M9.79049666,39.4512692 L11.4931748,39.4512692 L9.3648596,36.4684327 L9.79049666,39.4512692 Z M13.1958529,30.5027598 L8.93909265,29.6504466 L11.0675377,34.7639362 L13.1958529,30.5027598 Z M36.6078396,29.6504466 L41.2902369,29.22429 L42.992915,24.1108003 L39.1619217,24.1108003 L36.6078396,29.6504466 Z M43.844319,18.571284 L44.2699561,22.8324604 L46.3984012,23.6847736 L43.844319,18.571284 Z M42.992915,22.4064337 L42.992915,18.1451274 L39.5875588,17.7189708 L42.992915,22.4064337 Z M39.5875588,18.571284 L38.3106476,22.8324604 L42.567278,23.258617 L39.5875588,18.571284 Z M5.95937345,29.22429 L7.23641452,33.911623 L8.51345559,30.5027598 L5.95937345,29.22429 Z M4.68233238,33.911623 L5.10809933,30.0766032 L3.83105826,30.9287865 L4.68233238,33.911623 Z M2.97965426,25.3892702 L2.12838013,30.0766032 L4.68233238,29.22429 L2.97965426,25.3892702 Z M44.2699561,17.2929441 L44.6955931,16.8669174 L40.8645998,12.6056111 L41.2902369,16.8669174 L44.2699561,17.2929441 Z M44.2699561,15.1622909 L42.992915,13.883951 L43.844319,15.5885774 L44.2699561,15.1622909 Z" id="Fill-8" fill="#9D2066"></path>
                            <g id="Group-12" transform="translate(1.298862, 0.061696)">
                                <mask id="mask-4" fill="white">
                                    <use xlink:href="#path-3"></use>
                                </mask>
                                <g id="Clip-11"></g>
                                <path d="M20.9425643,10.7211832 L20.9425643,8.59065995 L16.6858041,11.1472099 L20.9425643,10.7211832 Z M0.0846598219,18.3914826 L1.361571,17.1131426 L0.935933944,16.6868561 L0.0846598219,18.3914826 Z M11.681289,10.5944143 L10.3007286,9.44284327 L9.66220807,11.3603532 L9.44932459,11.1472099 L7.74664646,13.2779929 L9.48816056,11.883275 L9.02368753,13.2779929 L12.8546809,11.5733665 L11.8466341,10.7323534 L12.4290438,10.2950266 L11.681289,10.5944143 Z M6.04396833,15.4085162 L7.3210094,11.5733665 L3.91565314,15.4085162 L6.04396833,15.4085162 Z M5.19269421,9.44284327 L1.361571,12.8517065 L3.91565314,13.2779929 L5.19269421,9.44284327 Z M14.5574889,8.16450334 L12.4290438,10.2950266 L14.1317219,9.44284327 L14.5574889,8.16450334 Z M18.3884822,7.73834673 L14.5574889,9.44284327 L16.6858041,10.2950266 L18.3884822,7.73834673 Z M19.6655233,6.45987692 L23.0708795,5.60782348 L21.7938384,4.75551027 L19.6655233,6.45987692 Z M22.6452425,3.90319706 L23.9222835,5.18166687 L26.0505987,3.90319706 L22.6452425,3.90319706 Z M12.4290438,6.45987692 L14.9831259,5.60782348 L14.5574889,6.88616341 L18.3884822,5.60782348 L17.9628451,5.18166687 L20.0911603,3.47717034 L17.1114411,4.75551027 L16.260167,3.90319706 L15.8344,4.75551027 L14.5574889,4.75551027 L12.4290438,6.45987692 Z M23.9222835,0.0680473775 L19.6655233,0.920490475 L21.7938384,2.62485713 L23.9222835,0.0680473775 Z M14.9831259,1.7726738 L10.3007286,3.90319706 L12.8546809,4.75551027 L14.9831259,1.7726738 Z" id="Fill-10" fill="#F9A42A" mask="url(#mask-4)"></path>
                            </g>
                            <path d="M46.1821536,36.0423151 L46.1821536,38.1728383 L47.4591947,34.3378185 L46.1821536,36.0423151 Z M44.9051126,39.4513081 L44.9051126,36.8946283 L43.2024344,39.8773349 L44.9051126,39.4513081 Z M38.9458041,45.4168512 L41.0741192,44.1385113 L40.2227152,43.7124845 L38.9458041,45.4168512 Z M40.6484822,42.8601713 L38.0944,44.1385113 L39.3714411,44.5647977 L40.6484822,42.8601713 Z M42.3511603,40.7296481 L41.4997563,43.2863279 C41.4997563,43.2863279 44.1660601,40.6679521 44.0538384,40.7296481 C43.9416168,40.7912141 42.3511603,40.7296481 42.3511603,40.7296481 Z M38.9458041,42.8601713 L42.3511603,40.7296481 L40.2227152,40.3034915 L38.9458041,42.8601713 Z M36.3917219,46.2691644 L38.0944,44.9909544 L37.242996,44.9909544 L36.3917219,46.2691644 Z M32.1349617,45.4168512 L35.1146809,46.695321 L36.817359,44.1385113 L32.1349617,45.4168512 Z M31.2835576,48.8258443 L32.1349617,47.973531 L29.1552425,48.8258443 L31.2835576,48.8258443 Z M28.7296054,47.973531 L33.8376398,47.5475043 L31.2835576,46.2691644 L28.7296054,47.973531 Z M24.8984822,49.6781575 L27.4525643,49.2520009 L24.4728451,48.3998175 L24.8984822,49.6781575 Z M19.3648107,47.973531 L23.621571,49.2520009 L23.1958041,47.973531 L19.3648107,47.973531 Z M23.1958041,46.2691644 L23.1958041,47.973531 L27.0269273,48.3998175 L23.1958041,46.2691644 Z M18.0877697,47.5475043 L18.0877697,45.4168512 L14.2567763,44.5647977 L18.0877697,47.5475043 Z" id="Fill-13" fill="#0067B4"></path>
                            <path d="M71.5606504,30.1250325 C71.5606504,29.3644525 71.2737069,28.7271996 70.6998199,28.2136521 C70.1257437,27.7001046 69.1079171,27.2682707 67.6463401,26.9183396 C65.8783369,26.4963416 64.4990409,25.8749775 63.5078847,25.054058 C62.5167285,24.2335169 62.0213396,23.2013148 62.0213396,21.9585865 C62.0213396,20.6547621 62.5551264,19.5654361 63.6226999,18.6907975 C64.6902735,17.8163481 66.0735417,17.3790288 67.7725044,17.3790288 C69.6016037,17.3790288 71.0573171,17.8802814 72.1404011,18.8825976 C73.223296,19.885292 73.7455445,21.0485765 73.7073358,22.3724509 L73.6844484,22.4413022 L71.5262247,22.4413022 C71.5262247,21.4618735 71.2027749,20.6698943 70.5562536,20.0649864 C69.9095431,19.4606459 68.9815636,19.158192 67.7725044,19.158192 C66.6476178,19.158192 65.7847066,19.4127905 65.1839601,19.9217984 C64.5830244,20.4306171 64.2828402,21.0945404 64.2828402,21.9133792 C64.2828402,22.6404792 64.6079924,23.2469004 65.2586751,23.7328317 C65.9089795,24.2187631 66.9650148,24.6453007 68.426781,25.0128229 C70.1868398,25.4488181 71.5262247,26.0917456 72.4445574,26.941227 C73.3628901,27.7907084 73.822151,28.8431498 73.822151,30.0979838 C73.822151,31.4451239 73.2709623,32.5278296 72.1691522,33.3466684 C71.067153,34.1655071 69.6282741,34.574832 67.852894,34.574832 C66.1843847,34.574832 64.7093778,34.1214347 63.4274951,33.2146403 C62.1458016,32.3076568 61.52387,31.096706 61.5622678,29.5814098 L61.5851552,29.5125585 L63.7431897,29.5125585 C63.7431897,30.5841043 64.1373824,31.3989708 64.9255785,31.9575365 C65.7137747,32.5164805 66.6896095,32.7956688 67.852894,32.7956688 C68.9931019,32.7956688 69.8961133,32.5560133 70.5619281,32.0767022 C71.227743,31.5973912 71.5606504,30.9468977 71.5606504,30.1250325 Z M79.6765361,18.9172313 L79.6765361,21.9133981 L82.0297754,21.9133981 L82.0297754,23.5892843 L79.6765361,23.5892843 L79.6765361,31.1311506 C79.6765361,31.7127928 79.7970259,32.1223068 80.0381946,32.3593142 C80.2791742,32.5966998 80.5986518,32.7152981 80.9966275,32.7152981 C81.126764,32.7152981 81.2701412,32.6999768 81.4271373,32.6693342 C81.5837551,32.6388807 81.7235384,32.6004829 81.8461089,32.5547081 L82.1445906,34.1042408 C81.9760563,34.2421326 81.7294021,34.3548672 81.4040608,34.4428228 C81.0787194,34.5307785 80.7516757,34.5748509 80.4225513,34.5748509 C79.5042187,34.5748509 78.7733355,34.2977433 78.2300912,33.7427715 C77.6866576,33.1877997 77.4150354,32.3175116 77.4150354,31.1311506 L77.4150354,23.5892843 L75.4406675,23.5892843 L75.4406675,21.9133981 L77.4150354,21.9133981 L77.4150354,18.9172313 L79.6765361,18.9172313 Z M88.6188644,29.7306696 L89.0206232,31.2919297 L89.0894745,31.2919297 L92.1429543,21.9133981 L94.6569728,21.9133981 L89.4339202,36.239388 C89.1199279,37.0733589 88.6705029,37.8006481 88.0850777,38.4203099 C87.4996524,39.0403499 86.7093756,39.3501808 85.7146255,39.3501808 C85.530959,39.3501808 85.2973563,39.329185 85.014385,39.2870041 C84.7312245,39.2450123 84.5129432,39.2049121 84.3601084,39.1667034 L84.5897389,37.3873511 C84.543775,37.3795959 84.6795861,37.3873511 84.9971722,37.4104277 C85.3145691,37.433315 85.5154485,37.4446642 85.5998103,37.4446642 C86.0819586,37.4446642 86.4759621,37.230355 86.7821991,36.8019258 C87.0882469,36.3731184 87.3447369,35.8987253 87.5512909,35.3783683 L88.0907522,34.0813534 L83.4762014,21.9133981 L86.001569,21.9133981 L88.6188644,29.7306696 Z M96.8263942,34.3337578 L96.8263942,16.4261759 L99.0878949,16.4261759 L99.0878949,34.3337578 L96.8263942,34.3337578 Z M104.299542,28.2553034 C104.299542,29.5700985 104.576838,30.6556415 105.13181,31.5115541 C105.686593,32.3676558 106.511106,32.7957066 107.605539,32.7957066 C108.684651,32.7957066 109.50349,32.3676558 110.062056,31.5115541 C110.620621,30.6556415 110.900188,29.5700985 110.900188,28.2553034 L110.900188,28.0031638 C110.900188,26.7038791 110.618919,25.6223083 110.056381,24.7586405 C109.493843,23.8947836 108.669141,23.4629497 107.582652,23.4629497 C106.50354,23.4629497 105.686593,23.8947836 105.13181,24.7586405 C104.576838,25.6223083 104.299542,26.7038791 104.299542,28.0031638 L104.299542,28.2553034 Z M102.038041,28.0086492 C102.038041,26.1719839 102.535511,24.6587683 103.53045,23.4686243 C104.5252,22.2788586 105.875934,21.6837865 107.582652,21.6837865 C109.304502,21.6837865 110.664694,22.276967 111.663416,23.4629497 C112.662138,24.6493107 113.161499,26.1644178 113.161499,28.0086492 L113.161499,28.2613562 C113.161499,30.1133429 112.66403,31.6286391 111.66928,32.8070557 C110.67434,33.9856615 109.319823,34.5748698 107.605539,34.5748698 C105.891255,34.5748698 104.534847,33.98377 103.536124,32.8013812 C102.537591,31.6189924 102.038041,30.1055877 102.038041,28.2613562 L102.038041,28.0086492 Z M118.614126,25.8506525 L122.746717,25.8506525 C123.87917,25.8506525 124.724868,25.5470637 125.283623,24.9396968 C125.842,24.332519 126.121566,23.5666428 126.121566,22.6422573 C126.121566,21.7178717 125.840297,20.9463209 125.277759,20.3276049 C124.715411,19.7086998 123.871604,19.3994363 122.746717,19.3994363 L118.614126,19.3994363 L118.614126,25.8506525 Z M118.614126,27.6300049 L118.614126,34.333928 L116.352625,34.333928 L116.352625,17.620084 L122.746717,17.620084 C124.529664,17.620084 125.915012,18.0791558 126.902196,18.9976776 C127.88938,19.9158212 128.383067,21.1252587 128.383067,22.6250444 C128.383067,24.1479067 127.88938,25.3628297 126.902196,26.2696241 C125.915012,27.1766077 124.529664,27.6300049 122.746717,27.6300049 L118.614126,27.6300049 Z M134.742488,32.6693531 C135.561326,32.6693531 136.299776,32.4595836 136.958024,32.0398554 C137.616084,31.6201273 138.044702,31.139303 138.24369,30.5973827 L138.24369,28.5829145 L135.706784,28.5829145 C134.796018,28.5829145 134.067026,28.8117884 133.519999,29.2695361 C132.972782,29.7274729 132.699268,30.2656102 132.699268,30.8837588 C132.699268,31.4332452 132.871397,31.8682946 133.215842,32.188718 C133.560099,32.5091414 134.068918,32.6693531 134.742488,32.6693531 Z M138.496208,34.3338902 C138.419601,33.9589911 138.360208,33.627786 138.318216,33.3408425 C138.276224,33.053899 138.251256,32.7652531 138.24369,32.4743375 C137.822638,33.0711118 137.273719,33.570473 136.596366,33.9722317 C135.919202,34.3741796 135.19021,34.5748698 134.40958,34.5748698 C133.116159,34.5748698 132.130867,34.244043 131.453703,33.5820112 C130.77635,32.9201686 130.437768,32.0075105 130.437768,30.844226 C130.437768,29.6580542 130.917835,28.7302639 131.878349,28.0604769 C132.838673,27.390879 134.141552,27.0558909 135.786985,27.0558909 L138.24369,27.0558909 L138.24369,25.8277273 C138.24369,25.1006272 138.021626,24.5246596 137.577875,24.1000135 C137.133936,23.6753674 136.50633,23.4629497 135.695246,23.4629497 C134.968146,23.4629497 134.376857,23.6486969 133.921757,24.0196239 C133.466279,24.3909292 133.23873,24.8367603 133.23873,25.3571173 L131.080695,25.3571173 L131.057619,25.288266 C131.011655,24.3852546 131.438192,23.5588498 132.33761,22.8086731 C133.236838,22.0586857 134.398042,21.6837865 135.821599,21.6837865 C137.229457,21.6837865 138.362288,22.0414729 139.219336,22.7570347 C140.076383,23.4727856 140.505002,24.5038529 140.505002,25.8506147 L140.505002,31.8312208 C140.505002,32.2753496 140.528078,32.7037788 140.574042,33.1170758 C140.619817,33.5303728 140.703989,33.9359145 140.82656,34.3338902 L138.496208,34.3338902 Z M147.415573,29.7306696 L147.817332,31.2919297 L147.886183,31.2919297 L150.939663,21.9133981 L153.453682,21.9133981 L148.230629,36.239388 C147.916637,37.0733589 147.467212,37.8006481 146.881787,38.4203099 C146.296361,39.0403499 145.506084,39.3501808 144.511334,39.3501808 C144.327668,39.3501808 144.094065,39.329185 143.811094,39.2870041 C143.527933,39.2450123 143.309652,39.2049121 143.156817,39.1667034 L143.386448,37.3873511 C143.340484,37.3795959 143.476295,37.3873511 143.793881,37.4104277 C144.111278,37.433315 144.312157,37.4446642 144.396519,37.4446642 C144.878667,37.4446642 145.272671,37.230355 145.578908,36.8019258 C145.884956,36.3731184 146.141446,35.8987253 146.348,35.3783683 L146.887461,34.0813534 L142.27291,21.9133981 L144.798278,21.9133981 L147.415573,29.7306696 Z" id="Fill-1" fill="#FFFFFF"></path>
                        </g>
                    </g>
                </g>
            </g>
        </g>
    </g>
</svg>