<svg width="254" height="214" viewBox="0 0 254 214" fill="none" xmlns="http://www.w3.org/2000/svg">
<path opacity="0.2" d="M252 2C245.326 20.0806 206.248 57.6351 103.331 63.2085C0.413475 68.7819 -4.6256 164.725 5.71952 212" stroke="url(#paint0_linear)" stroke-width="3" stroke-linecap="round" stroke-dasharray="10 13"/>
<circle cx="96.3359" cy="64.353" r="35" fill="#8196F9"/>
<circle cx="96.3359" cy="64.353" r="40" stroke="#8196F9" stroke-opacity="0.1" stroke-width="10"/>
<path fill-rule="evenodd" clip-rule="evenodd" d="M88.4303 51.8575L88.3947 51.8552C86.7487 51.7786 84.4258 53.7578 83.5675 55.1894C82.6258 56.4757 82.6077 58.184 83.4301 60.1599L83.5597 60.4583C85.7268 65.7952 93.8585 73.9167 99.1745 76.1402C101.209 77.0918 103.021 77.1092 104.45 76.0806C105.705 75.3628 107.765 72.9741 107.705 71.2776C107.649 70.5796 107.324 70.0098 106.82 69.4911L106.697 69.3689L106.355 69.0523C105.115 67.9437 102.969 66.3653 102.305 66.2258C101.525 66.0633 100.997 66.2087 100.163 66.6684L99.8525 66.845C99.2596 67.1869 99.0476 67.2454 98.7667 67.1429C95.8006 65.9252 93.709 63.8232 92.4833 60.808C92.4036 60.5846 92.443 60.3894 92.7009 59.9164L92.8367 59.6752C93.3986 58.6937 93.587 58.1389 93.41 57.2845L93.3788 57.1738C93.0884 56.3285 91.309 53.9437 90.3209 52.9055L90.1618 52.7444C89.6468 52.2387 89.0806 51.9135 88.4303 51.8575ZM88.2922 53.683L88.3599 53.696C88.4786 53.7295 88.6185 53.8116 88.776 53.947L88.8907 54.0519L89.1073 54.2799C89.9474 55.2074 91.5749 57.3948 91.6287 57.6563C91.6795 57.9019 91.6233 58.1071 91.3567 58.5907L91.2173 58.8373C90.6303 59.8651 90.4486 60.5279 90.7859 61.4651C92.2098 64.97 94.6606 67.4331 98.1127 68.8494C99.003 69.1749 99.6341 69.0448 100.528 68.5602L100.835 68.3872C101.441 68.0363 101.664 67.9601 101.934 68.0165C102.198 68.072 104.563 69.8467 105.43 70.6807L105.531 70.7812C105.754 71.0115 105.877 71.2261 105.89 71.3854C105.902 71.7575 105.529 72.4567 104.871 73.2199C104.403 73.7632 103.794 74.3186 103.531 74.5028L103.468 74.5435C102.616 75.1516 101.564 75.1778 100.172 74.5849L99.9074 74.4665C95.101 72.4553 87.5423 64.963 85.3592 60.0381L85.2298 59.7337C84.5534 58.2375 84.4973 57.1437 84.983 56.3478L85.0804 56.202C85.6433 55.2699 87.3399 53.8017 88.1846 53.6887L88.2922 53.683ZM98.3629 52.1577L98.4865 52.1631C103.399 52.7114 107.278 56.6068 107.83 61.5448C107.886 62.0468 107.527 62.4994 107.028 62.5558C106.528 62.6122 106.078 62.2511 106.022 61.7491C105.565 57.6604 102.353 54.435 98.2857 53.981C97.7864 53.9253 97.4266 53.4732 97.482 52.9712C97.5282 52.5528 97.8482 52.2319 98.2425 52.1687L98.3629 52.1577ZM98.4374 56.4792L98.5601 56.4948C101.071 56.9867 103.032 58.959 103.522 61.483C103.618 61.9787 103.296 62.459 102.803 62.5556C102.31 62.6522 101.832 62.3287 101.736 61.8329C101.388 60.0401 99.9953 58.6395 98.2121 58.2901C97.719 58.1935 97.3971 57.7132 97.4933 57.2175C97.5734 56.8043 97.9184 56.5108 98.3166 56.4803L98.4374 56.4792Z" fill="white"/>
<defs>
<linearGradient id="paint0_linear" x1="4.34476" y1="247.764" x2="240.412" y2="0.610411" gradientUnits="userSpaceOnUse">
<stop stop-color="#8196F9" stop-opacity="0"/>
<stop offset="0.222883" stop-color="#8196F9"/>
<stop offset="0.824044" stop-color="#8196F9" stop-opacity="0.945544"/>
<stop offset="1" stop-color="#8196F9" stop-opacity="0"/>
</linearGradient>
</defs>
</svg>
