<svg width="350" height="210" viewBox="0 0 350 210" fill="none" xmlns="http://www.w3.org/2000/svg">
<path opacity="0.2" d="M271.829 132.196C262.474 123.481 233.843 103.915 172.004 131.268C110.164 158.621 78.2802 103.327 70.0682 72.2607" stroke="url(#paint0_linear)" stroke-width="3" stroke-linecap="round" stroke-dasharray="10 13"/>
<circle cx="309" cy="170" r="30" fill="#3246D0"/>
<circle cx="309" cy="170" r="35" stroke="#3246D0" stroke-opacity="0.1" stroke-width="10"/>
<path d="M320.585 167.968C320.573 161.893 315.605 156.955 309.5 156.955C303.395 156.955 298.427 161.893 298.415 167.968C297.525 168.647 296.95 169.718 296.95 170.921V173.948C296.95 175.995 298.615 177.66 300.662 177.66H302.127C302.559 177.66 302.909 177.31 302.909 176.878V167.991C302.909 164.385 305.866 161.449 309.5 161.449C313.134 161.449 316.091 164.385 316.091 167.991V176.878C316.091 177.31 316.441 177.66 316.873 177.66H317.555V178.343C317.555 178.719 317.249 179.025 316.873 179.025H313.12C312.802 178.171 311.978 177.56 311.014 177.56H308.035C306.796 177.56 305.788 178.568 305.788 179.808C305.788 181.047 306.796 182.055 308.035 182.055H311.014C311.978 182.055 312.802 181.444 313.12 180.59H316.873C318.112 180.59 319.12 179.582 319.12 178.343V177.577C320.793 177.217 322.05 175.727 322.05 173.948V170.921C322.05 169.718 321.475 168.647 320.585 167.968ZM311.014 180.49H308.035C307.659 180.49 307.353 180.184 307.353 179.808C307.353 179.431 307.659 179.125 308.035 179.125H311.014C311.39 179.125 311.696 179.431 311.696 179.808C311.696 180.184 311.39 180.49 311.014 180.49ZM301.345 176.096H300.662C299.478 176.096 298.515 175.132 298.515 173.948V170.921C298.515 169.737 299.478 168.774 300.662 168.774H301.345V176.096ZM309.5 159.885C305.231 159.885 301.774 163.162 301.383 167.209H300.662C300.439 167.209 300.22 167.229 300.008 167.267C300.381 162.382 304.495 158.52 309.5 158.52C314.505 158.52 318.619 162.382 318.992 167.267C318.78 167.229 318.561 167.209 318.338 167.209H317.617C317.225 163.161 313.767 159.885 309.5 159.885ZM320.485 173.948C320.485 175.132 319.522 176.096 318.338 176.096H317.655V168.774H318.338C319.522 168.774 320.485 169.737 320.485 170.921V173.948Z" fill="white" stroke="white" stroke-width="0.1"/>
<circle cx="35" cy="35.0049" r="25" fill="#FFA720"/>
<circle cx="35" cy="35.0049" r="30" stroke="#FFA720" stroke-opacity="0.1" stroke-width="10"/>
<path d="M39.3735 34.629L39.2165 34.4345C38.9434 34.655 38.9017 35.055 39.122 35.3273L39.1221 35.3273L43.163 40.319H26.837L30.8779 35.3273L30.878 35.3272C31.0983 35.0549 31.0565 34.6554 30.7837 34.4346L30.7836 34.4346C30.5114 34.2144 30.1119 34.2559 29.8912 34.5287L26.0192 39.3118V29.7548L33.7987 35.5894L33.7993 35.5899C34.1572 35.8564 34.5859 35.9691 34.9992 35.9702L35.0004 35.9702C35.4133 35.9693 35.8425 35.8567 36.2005 35.5899L36.2012 35.5894L43.9806 29.7548V39.3117L40.1087 34.5286C40.1086 34.5286 40.1086 34.5286 40.1086 34.5286C39.8881 34.2561 39.4883 34.2142 39.2161 34.4347L39.3735 34.629ZM39.3735 34.629C39.5384 34.4954 39.7807 34.5208 39.9143 34.6859L39.3164 35.17C39.1827 35.0049 39.2081 34.7625 39.3735 34.629ZM34.56 34.5741L27.1605 29.0241H42.8395L35.44 34.5741L35.4386 34.5752C35.3464 34.6453 35.1821 34.7019 35.0011 34.701L34.9988 34.701C34.8178 34.7019 34.6536 34.6454 34.5613 34.5752L34.56 34.5741ZM43.9743 27.7549H26.0257C25.3235 27.7549 24.75 28.3283 24.75 29.0305V40.3126C24.75 41.0147 25.3234 41.5882 26.0257 41.5882H43.9743C44.6765 41.5882 45.25 41.0148 45.25 40.3126V29.0305C45.25 28.3283 44.6765 27.7549 43.9743 27.7549Z" fill="white" stroke="white" stroke-width="0.5"/>
<defs>
<linearGradient id="paint0_linear" x1="58.4775" y1="51.4992" x2="289.62" y2="113.445" gradientUnits="userSpaceOnUse">
<stop stop-color="#8196F9" stop-opacity="0"/>
<stop offset="0.222883" stop-color="#8196F9"/>
<stop offset="0.824044" stop-color="#8196F9" stop-opacity="0.945544"/>
<stop offset="1" stop-color="#8196F9" stop-opacity="0"/>
</linearGradient>
</defs>
</svg>
